<mxfile host="app.diagrams.net" modified="2024-04-22T06:07:27.896Z" agent="Mozilla/5.0 (Windows NT 10.0; Win64; x64) AppleWebKit/537.36 (KHTML, like Gecko) Chrome/123.0.0.0 Safari/537.36" etag="YoVzcwVpAX4HTOIZCw7p" version="24.2.5" type="device">
  <diagram id="R2lEEEUBdFMjLlhIrx00" name="Page-1">
    <mxGraphModel dx="1690" dy="1582" grid="1" gridSize="10" guides="1" tooltips="1" connect="1" arrows="1" fold="1" page="1" pageScale="1" pageWidth="850" pageHeight="1100" math="0" shadow="0" extFonts="Permanent Marker^https://fonts.googleapis.com/css?family=Permanent+Marker">
      <root>
        <mxCell id="0" />
        <mxCell id="1" parent="0" />
        <mxCell id="jrHXLefe-VMUljtb0HfS-173" value="College" style="shape=table;startSize=25;container=1;collapsible=0;childLayout=tableLayout;fixedRows=1;rowLines=1;fontStyle=1;align=center;resizeLast=1;fillColor=#dae8fc;strokeColor=#6c8ebf;" parent="1" vertex="1">
          <mxGeometry x="297" y="240" width="126" height="135" as="geometry" />
        </mxCell>
        <mxCell id="jrHXLefe-VMUljtb0HfS-174" style="shape=tableRow;horizontal=0;startSize=0;swimlaneHead=0;swimlaneBody=0;fillColor=none;collapsible=0;dropTarget=0;points=[[0,0.5],[1,0.5]];portConstraint=eastwest;top=0;left=0;right=0;bottom=0;" parent="jrHXLefe-VMUljtb0HfS-173" vertex="1">
          <mxGeometry y="25" width="126" height="22" as="geometry" />
        </mxCell>
        <mxCell id="jrHXLefe-VMUljtb0HfS-175" value="PK" style="shape=partialRectangle;connectable=0;fillColor=none;top=0;left=0;bottom=0;right=0;align=left;spacingLeft=2;overflow=hidden;fontSize=11;" parent="jrHXLefe-VMUljtb0HfS-174" vertex="1">
          <mxGeometry width="36" height="22" as="geometry">
            <mxRectangle width="36" height="22" as="alternateBounds" />
          </mxGeometry>
        </mxCell>
        <mxCell id="jrHXLefe-VMUljtb0HfS-176" value="CollegeID" style="shape=partialRectangle;connectable=0;fillColor=none;top=0;left=0;bottom=0;right=0;align=left;spacingLeft=2;overflow=hidden;fontSize=11;fontStyle=5" parent="jrHXLefe-VMUljtb0HfS-174" vertex="1">
          <mxGeometry x="36" width="90" height="22" as="geometry">
            <mxRectangle width="90" height="22" as="alternateBounds" />
          </mxGeometry>
        </mxCell>
        <mxCell id="jrHXLefe-VMUljtb0HfS-177" style="shape=tableRow;horizontal=0;startSize=0;swimlaneHead=0;swimlaneBody=0;fillColor=none;collapsible=0;dropTarget=0;points=[[0,0.5],[1,0.5]];portConstraint=eastwest;top=0;left=0;right=0;bottom=0;" parent="jrHXLefe-VMUljtb0HfS-173" vertex="1">
          <mxGeometry y="47" width="126" height="22" as="geometry" />
        </mxCell>
        <mxCell id="jrHXLefe-VMUljtb0HfS-178" value="" style="shape=partialRectangle;connectable=0;fillColor=none;top=0;left=0;bottom=0;right=0;align=left;spacingLeft=2;overflow=hidden;fontSize=11;" parent="jrHXLefe-VMUljtb0HfS-177" vertex="1">
          <mxGeometry width="36" height="22" as="geometry">
            <mxRectangle width="36" height="22" as="alternateBounds" />
          </mxGeometry>
        </mxCell>
        <mxCell id="jrHXLefe-VMUljtb0HfS-179" value="Name" style="shape=partialRectangle;connectable=0;fillColor=none;top=0;left=0;bottom=0;right=0;align=left;spacingLeft=2;overflow=hidden;fontSize=11;" parent="jrHXLefe-VMUljtb0HfS-177" vertex="1">
          <mxGeometry x="36" width="90" height="22" as="geometry">
            <mxRectangle width="90" height="22" as="alternateBounds" />
          </mxGeometry>
        </mxCell>
        <mxCell id="jrHXLefe-VMUljtb0HfS-180" style="shape=tableRow;horizontal=0;startSize=0;swimlaneHead=0;swimlaneBody=0;fillColor=none;collapsible=0;dropTarget=0;points=[[0,0.5],[1,0.5]];portConstraint=eastwest;top=0;left=0;right=0;bottom=0;" parent="jrHXLefe-VMUljtb0HfS-173" vertex="1">
          <mxGeometry y="69" width="126" height="22" as="geometry" />
        </mxCell>
        <mxCell id="jrHXLefe-VMUljtb0HfS-181" value="" style="shape=partialRectangle;connectable=0;fillColor=none;top=0;left=0;bottom=0;right=0;align=left;spacingLeft=2;overflow=hidden;fontSize=11;" parent="jrHXLefe-VMUljtb0HfS-180" vertex="1">
          <mxGeometry width="36" height="22" as="geometry">
            <mxRectangle width="36" height="22" as="alternateBounds" />
          </mxGeometry>
        </mxCell>
        <mxCell id="jrHXLefe-VMUljtb0HfS-182" value="Address" style="shape=partialRectangle;connectable=0;fillColor=none;top=0;left=0;bottom=0;right=0;align=left;spacingLeft=2;overflow=hidden;fontSize=11;" parent="jrHXLefe-VMUljtb0HfS-180" vertex="1">
          <mxGeometry x="36" width="90" height="22" as="geometry">
            <mxRectangle width="90" height="22" as="alternateBounds" />
          </mxGeometry>
        </mxCell>
        <mxCell id="jrHXLefe-VMUljtb0HfS-183" style="shape=tableRow;horizontal=0;startSize=0;swimlaneHead=0;swimlaneBody=0;fillColor=none;collapsible=0;dropTarget=0;points=[[0,0.5],[1,0.5]];portConstraint=eastwest;top=0;left=0;right=0;bottom=0;" parent="jrHXLefe-VMUljtb0HfS-173" vertex="1">
          <mxGeometry y="91" width="126" height="22" as="geometry" />
        </mxCell>
        <mxCell id="jrHXLefe-VMUljtb0HfS-184" value="" style="shape=partialRectangle;connectable=0;fillColor=none;top=0;left=0;bottom=0;right=0;align=left;spacingLeft=2;overflow=hidden;fontSize=11;" parent="jrHXLefe-VMUljtb0HfS-183" vertex="1">
          <mxGeometry width="36" height="22" as="geometry">
            <mxRectangle width="36" height="22" as="alternateBounds" />
          </mxGeometry>
        </mxCell>
        <mxCell id="jrHXLefe-VMUljtb0HfS-185" value="ContactNumber" style="shape=partialRectangle;connectable=0;fillColor=none;top=0;left=0;bottom=0;right=0;align=left;spacingLeft=2;overflow=hidden;fontSize=11;" parent="jrHXLefe-VMUljtb0HfS-183" vertex="1">
          <mxGeometry x="36" width="90" height="22" as="geometry">
            <mxRectangle width="90" height="22" as="alternateBounds" />
          </mxGeometry>
        </mxCell>
        <mxCell id="jrHXLefe-VMUljtb0HfS-186" style="shape=tableRow;horizontal=0;startSize=0;swimlaneHead=0;swimlaneBody=0;fillColor=none;collapsible=0;dropTarget=0;points=[[0,0.5],[1,0.5]];portConstraint=eastwest;top=0;left=0;right=0;bottom=0;" parent="jrHXLefe-VMUljtb0HfS-173" vertex="1">
          <mxGeometry y="113" width="126" height="22" as="geometry" />
        </mxCell>
        <mxCell id="jrHXLefe-VMUljtb0HfS-187" value="" style="shape=partialRectangle;connectable=0;fillColor=none;top=0;left=0;bottom=0;right=0;align=left;spacingLeft=2;overflow=hidden;fontSize=11;" parent="jrHXLefe-VMUljtb0HfS-186" vertex="1">
          <mxGeometry width="36" height="22" as="geometry">
            <mxRectangle width="36" height="22" as="alternateBounds" />
          </mxGeometry>
        </mxCell>
        <mxCell id="jrHXLefe-VMUljtb0HfS-188" value="EstablishedDate" style="shape=partialRectangle;connectable=0;fillColor=none;top=0;left=0;bottom=0;right=0;align=left;spacingLeft=2;overflow=hidden;fontSize=11;" parent="jrHXLefe-VMUljtb0HfS-186" vertex="1">
          <mxGeometry x="36" width="90" height="22" as="geometry">
            <mxRectangle width="90" height="22" as="alternateBounds" />
          </mxGeometry>
        </mxCell>
        <mxCell id="jrHXLefe-VMUljtb0HfS-189" value="Department" style="shape=table;startSize=25;container=1;collapsible=0;childLayout=tableLayout;fixedRows=1;rowLines=1;fontStyle=1;align=center;resizeLast=1;fillColor=#dae8fc;strokeColor=#6c8ebf;" parent="1" vertex="1">
          <mxGeometry x="60" y="476" width="120" height="135" as="geometry" />
        </mxCell>
        <mxCell id="jrHXLefe-VMUljtb0HfS-190" style="shape=tableRow;horizontal=0;startSize=0;swimlaneHead=0;swimlaneBody=0;fillColor=none;collapsible=0;dropTarget=0;points=[[0,0.5],[1,0.5]];portConstraint=eastwest;top=0;left=0;right=0;bottom=0;" parent="jrHXLefe-VMUljtb0HfS-189" vertex="1">
          <mxGeometry y="25" width="120" height="22" as="geometry" />
        </mxCell>
        <mxCell id="jrHXLefe-VMUljtb0HfS-191" value="PK" style="shape=partialRectangle;connectable=0;fillColor=none;top=0;left=0;bottom=0;right=0;align=left;spacingLeft=2;overflow=hidden;fontSize=11;fontStyle=1" parent="jrHXLefe-VMUljtb0HfS-190" vertex="1">
          <mxGeometry width="36" height="22" as="geometry">
            <mxRectangle width="36" height="22" as="alternateBounds" />
          </mxGeometry>
        </mxCell>
        <mxCell id="jrHXLefe-VMUljtb0HfS-192" value="DepartmentID" style="shape=partialRectangle;connectable=0;fillColor=none;top=0;left=0;bottom=0;right=0;align=left;spacingLeft=2;overflow=hidden;fontSize=11;fontStyle=5" parent="jrHXLefe-VMUljtb0HfS-190" vertex="1">
          <mxGeometry x="36" width="84" height="22" as="geometry">
            <mxRectangle width="84" height="22" as="alternateBounds" />
          </mxGeometry>
        </mxCell>
        <mxCell id="jrHXLefe-VMUljtb0HfS-193" style="shape=tableRow;horizontal=0;startSize=0;swimlaneHead=0;swimlaneBody=0;fillColor=none;collapsible=0;dropTarget=0;points=[[0,0.5],[1,0.5]];portConstraint=eastwest;top=0;left=0;right=0;bottom=0;" parent="jrHXLefe-VMUljtb0HfS-189" vertex="1">
          <mxGeometry y="47" width="120" height="22" as="geometry" />
        </mxCell>
        <mxCell id="jrHXLefe-VMUljtb0HfS-194" value="" style="shape=partialRectangle;connectable=0;fillColor=none;top=0;left=0;bottom=0;right=0;align=left;spacingLeft=2;overflow=hidden;fontSize=11;" parent="jrHXLefe-VMUljtb0HfS-193" vertex="1">
          <mxGeometry width="36" height="22" as="geometry">
            <mxRectangle width="36" height="22" as="alternateBounds" />
          </mxGeometry>
        </mxCell>
        <mxCell id="jrHXLefe-VMUljtb0HfS-195" value="Name" style="shape=partialRectangle;connectable=0;fillColor=none;top=0;left=0;bottom=0;right=0;align=left;spacingLeft=2;overflow=hidden;fontSize=11;" parent="jrHXLefe-VMUljtb0HfS-193" vertex="1">
          <mxGeometry x="36" width="84" height="22" as="geometry">
            <mxRectangle width="84" height="22" as="alternateBounds" />
          </mxGeometry>
        </mxCell>
        <mxCell id="jrHXLefe-VMUljtb0HfS-196" style="shape=tableRow;horizontal=0;startSize=0;swimlaneHead=0;swimlaneBody=0;fillColor=none;collapsible=0;dropTarget=0;points=[[0,0.5],[1,0.5]];portConstraint=eastwest;top=0;left=0;right=0;bottom=0;" parent="jrHXLefe-VMUljtb0HfS-189" vertex="1">
          <mxGeometry y="69" width="120" height="22" as="geometry" />
        </mxCell>
        <mxCell id="jrHXLefe-VMUljtb0HfS-197" value="FK" style="shape=partialRectangle;connectable=0;fillColor=none;top=0;left=0;bottom=0;right=0;align=left;spacingLeft=2;overflow=hidden;fontSize=11;fontStyle=1" parent="jrHXLefe-VMUljtb0HfS-196" vertex="1">
          <mxGeometry width="36" height="22" as="geometry">
            <mxRectangle width="36" height="22" as="alternateBounds" />
          </mxGeometry>
        </mxCell>
        <mxCell id="jrHXLefe-VMUljtb0HfS-198" value="CollegeID" style="shape=partialRectangle;connectable=0;fillColor=none;top=0;left=0;bottom=0;right=0;align=left;spacingLeft=2;overflow=hidden;fontSize=11;" parent="jrHXLefe-VMUljtb0HfS-196" vertex="1">
          <mxGeometry x="36" width="84" height="22" as="geometry">
            <mxRectangle width="84" height="22" as="alternateBounds" />
          </mxGeometry>
        </mxCell>
        <mxCell id="jrHXLefe-VMUljtb0HfS-199" style="shape=tableRow;horizontal=0;startSize=0;swimlaneHead=0;swimlaneBody=0;fillColor=none;collapsible=0;dropTarget=0;points=[[0,0.5],[1,0.5]];portConstraint=eastwest;top=0;left=0;right=0;bottom=0;" parent="jrHXLefe-VMUljtb0HfS-189" vertex="1">
          <mxGeometry y="91" width="120" height="22" as="geometry" />
        </mxCell>
        <mxCell id="jrHXLefe-VMUljtb0HfS-200" value="" style="shape=partialRectangle;connectable=0;fillColor=none;top=0;left=0;bottom=0;right=0;align=left;spacingLeft=2;overflow=hidden;fontSize=11;" parent="jrHXLefe-VMUljtb0HfS-199" vertex="1">
          <mxGeometry width="36" height="22" as="geometry">
            <mxRectangle width="36" height="22" as="alternateBounds" />
          </mxGeometry>
        </mxCell>
        <mxCell id="jrHXLefe-VMUljtb0HfS-201" value="HOD" style="shape=partialRectangle;connectable=0;fillColor=none;top=0;left=0;bottom=0;right=0;align=left;spacingLeft=2;overflow=hidden;fontSize=11;" parent="jrHXLefe-VMUljtb0HfS-199" vertex="1">
          <mxGeometry x="36" width="84" height="22" as="geometry">
            <mxRectangle width="84" height="22" as="alternateBounds" />
          </mxGeometry>
        </mxCell>
        <mxCell id="jrHXLefe-VMUljtb0HfS-202" style="shape=tableRow;horizontal=0;startSize=0;swimlaneHead=0;swimlaneBody=0;fillColor=none;collapsible=0;dropTarget=0;points=[[0,0.5],[1,0.5]];portConstraint=eastwest;top=0;left=0;right=0;bottom=0;" parent="jrHXLefe-VMUljtb0HfS-189" vertex="1">
          <mxGeometry y="113" width="120" height="22" as="geometry" />
        </mxCell>
        <mxCell id="jrHXLefe-VMUljtb0HfS-203" value="" style="shape=partialRectangle;connectable=0;fillColor=none;top=0;left=0;bottom=0;right=0;align=left;spacingLeft=2;overflow=hidden;fontSize=11;" parent="jrHXLefe-VMUljtb0HfS-202" vertex="1">
          <mxGeometry width="36" height="22" as="geometry">
            <mxRectangle width="36" height="22" as="alternateBounds" />
          </mxGeometry>
        </mxCell>
        <mxCell id="jrHXLefe-VMUljtb0HfS-204" value="OfficeNumber" style="shape=partialRectangle;connectable=0;fillColor=none;top=0;left=0;bottom=0;right=0;align=left;spacingLeft=2;overflow=hidden;fontSize=11;" parent="jrHXLefe-VMUljtb0HfS-202" vertex="1">
          <mxGeometry x="36" width="84" height="22" as="geometry">
            <mxRectangle width="84" height="22" as="alternateBounds" />
          </mxGeometry>
        </mxCell>
        <mxCell id="jrHXLefe-VMUljtb0HfS-205" value="Course" style="shape=table;startSize=25;container=1;collapsible=0;childLayout=tableLayout;fixedRows=1;rowLines=1;fontStyle=1;align=center;resizeLast=1;fillColor=#dae8fc;strokeColor=#6c8ebf;" parent="1" vertex="1">
          <mxGeometry x="166" y="1042" width="124" height="179" as="geometry" />
        </mxCell>
        <mxCell id="jrHXLefe-VMUljtb0HfS-206" style="shape=tableRow;horizontal=0;startSize=0;swimlaneHead=0;swimlaneBody=0;fillColor=none;collapsible=0;dropTarget=0;points=[[0,0.5],[1,0.5]];portConstraint=eastwest;top=0;left=0;right=0;bottom=0;" parent="jrHXLefe-VMUljtb0HfS-205" vertex="1">
          <mxGeometry y="25" width="124" height="22" as="geometry" />
        </mxCell>
        <mxCell id="jrHXLefe-VMUljtb0HfS-207" value="PK" style="shape=partialRectangle;connectable=0;fillColor=none;top=0;left=0;bottom=0;right=0;align=left;spacingLeft=2;overflow=hidden;fontSize=11;fontStyle=1" parent="jrHXLefe-VMUljtb0HfS-206" vertex="1">
          <mxGeometry width="36" height="22" as="geometry">
            <mxRectangle width="36" height="22" as="alternateBounds" />
          </mxGeometry>
        </mxCell>
        <mxCell id="jrHXLefe-VMUljtb0HfS-208" value="CourseID" style="shape=partialRectangle;connectable=0;fillColor=none;top=0;left=0;bottom=0;right=0;align=left;spacingLeft=2;overflow=hidden;fontSize=11;fontStyle=5" parent="jrHXLefe-VMUljtb0HfS-206" vertex="1">
          <mxGeometry x="36" width="88" height="22" as="geometry">
            <mxRectangle width="88" height="22" as="alternateBounds" />
          </mxGeometry>
        </mxCell>
        <mxCell id="jrHXLefe-VMUljtb0HfS-209" style="shape=tableRow;horizontal=0;startSize=0;swimlaneHead=0;swimlaneBody=0;fillColor=none;collapsible=0;dropTarget=0;points=[[0,0.5],[1,0.5]];portConstraint=eastwest;top=0;left=0;right=0;bottom=0;" parent="jrHXLefe-VMUljtb0HfS-205" vertex="1">
          <mxGeometry y="47" width="124" height="22" as="geometry" />
        </mxCell>
        <mxCell id="jrHXLefe-VMUljtb0HfS-210" value="                                                    " style="shape=partialRectangle;connectable=0;fillColor=none;top=0;left=0;bottom=0;right=0;align=left;spacingLeft=2;overflow=hidden;fontSize=11;" parent="jrHXLefe-VMUljtb0HfS-209" vertex="1">
          <mxGeometry width="36" height="22" as="geometry">
            <mxRectangle width="36" height="22" as="alternateBounds" />
          </mxGeometry>
        </mxCell>
        <mxCell id="jrHXLefe-VMUljtb0HfS-211" value="Name" style="shape=partialRectangle;connectable=0;fillColor=none;top=0;left=0;bottom=0;right=0;align=left;spacingLeft=2;overflow=hidden;fontSize=11;" parent="jrHXLefe-VMUljtb0HfS-209" vertex="1">
          <mxGeometry x="36" width="88" height="22" as="geometry">
            <mxRectangle width="88" height="22" as="alternateBounds" />
          </mxGeometry>
        </mxCell>
        <mxCell id="jrHXLefe-VMUljtb0HfS-212" style="shape=tableRow;horizontal=0;startSize=0;swimlaneHead=0;swimlaneBody=0;fillColor=none;collapsible=0;dropTarget=0;points=[[0,0.5],[1,0.5]];portConstraint=eastwest;top=0;left=0;right=0;bottom=0;" parent="jrHXLefe-VMUljtb0HfS-205" vertex="1">
          <mxGeometry y="69" width="124" height="22" as="geometry" />
        </mxCell>
        <mxCell id="jrHXLefe-VMUljtb0HfS-213" value="" style="shape=partialRectangle;connectable=0;fillColor=none;top=0;left=0;bottom=0;right=0;align=left;spacingLeft=2;overflow=hidden;fontSize=11;" parent="jrHXLefe-VMUljtb0HfS-212" vertex="1">
          <mxGeometry width="36" height="22" as="geometry">
            <mxRectangle width="36" height="22" as="alternateBounds" />
          </mxGeometry>
        </mxCell>
        <mxCell id="jrHXLefe-VMUljtb0HfS-214" value="Description" style="shape=partialRectangle;connectable=0;fillColor=none;top=0;left=0;bottom=0;right=0;align=left;spacingLeft=2;overflow=hidden;fontSize=11;" parent="jrHXLefe-VMUljtb0HfS-212" vertex="1">
          <mxGeometry x="36" width="88" height="22" as="geometry">
            <mxRectangle width="88" height="22" as="alternateBounds" />
          </mxGeometry>
        </mxCell>
        <mxCell id="jrHXLefe-VMUljtb0HfS-215" style="shape=tableRow;horizontal=0;startSize=0;swimlaneHead=0;swimlaneBody=0;fillColor=none;collapsible=0;dropTarget=0;points=[[0,0.5],[1,0.5]];portConstraint=eastwest;top=0;left=0;right=0;bottom=0;" parent="jrHXLefe-VMUljtb0HfS-205" vertex="1">
          <mxGeometry y="91" width="124" height="22" as="geometry" />
        </mxCell>
        <mxCell id="jrHXLefe-VMUljtb0HfS-216" value="" style="shape=partialRectangle;connectable=0;fillColor=none;top=0;left=0;bottom=0;right=0;align=left;spacingLeft=2;overflow=hidden;fontSize=11;" parent="jrHXLefe-VMUljtb0HfS-215" vertex="1">
          <mxGeometry width="36" height="22" as="geometry">
            <mxRectangle width="36" height="22" as="alternateBounds" />
          </mxGeometry>
        </mxCell>
        <mxCell id="jrHXLefe-VMUljtb0HfS-217" value="Credits" style="shape=partialRectangle;connectable=0;fillColor=none;top=0;left=0;bottom=0;right=0;align=left;spacingLeft=2;overflow=hidden;fontSize=11;" parent="jrHXLefe-VMUljtb0HfS-215" vertex="1">
          <mxGeometry x="36" width="88" height="22" as="geometry">
            <mxRectangle width="88" height="22" as="alternateBounds" />
          </mxGeometry>
        </mxCell>
        <mxCell id="jrHXLefe-VMUljtb0HfS-218" style="shape=tableRow;horizontal=0;startSize=0;swimlaneHead=0;swimlaneBody=0;fillColor=none;collapsible=0;dropTarget=0;points=[[0,0.5],[1,0.5]];portConstraint=eastwest;top=0;left=0;right=0;bottom=0;" parent="jrHXLefe-VMUljtb0HfS-205" vertex="1">
          <mxGeometry y="113" width="124" height="22" as="geometry" />
        </mxCell>
        <mxCell id="jrHXLefe-VMUljtb0HfS-219" value="FK" style="shape=partialRectangle;connectable=0;fillColor=none;top=0;left=0;bottom=0;right=0;align=left;spacingLeft=2;overflow=hidden;fontSize=11;fontStyle=1" parent="jrHXLefe-VMUljtb0HfS-218" vertex="1">
          <mxGeometry width="36" height="22" as="geometry">
            <mxRectangle width="36" height="22" as="alternateBounds" />
          </mxGeometry>
        </mxCell>
        <mxCell id="jrHXLefe-VMUljtb0HfS-220" value="DepartmentID" style="shape=partialRectangle;connectable=0;fillColor=none;top=0;left=0;bottom=0;right=0;align=left;spacingLeft=2;overflow=hidden;fontSize=11;" parent="jrHXLefe-VMUljtb0HfS-218" vertex="1">
          <mxGeometry x="36" width="88" height="22" as="geometry">
            <mxRectangle width="88" height="22" as="alternateBounds" />
          </mxGeometry>
        </mxCell>
        <mxCell id="jrHXLefe-VMUljtb0HfS-221" style="shape=tableRow;horizontal=0;startSize=0;swimlaneHead=0;swimlaneBody=0;fillColor=none;collapsible=0;dropTarget=0;points=[[0,0.5],[1,0.5]];portConstraint=eastwest;top=0;left=0;right=0;bottom=0;" parent="jrHXLefe-VMUljtb0HfS-205" vertex="1">
          <mxGeometry y="135" width="124" height="22" as="geometry" />
        </mxCell>
        <mxCell id="jrHXLefe-VMUljtb0HfS-222" value="" style="shape=partialRectangle;connectable=0;fillColor=none;top=0;left=0;bottom=0;right=0;align=left;spacingLeft=2;overflow=hidden;fontSize=11;" parent="jrHXLefe-VMUljtb0HfS-221" vertex="1">
          <mxGeometry width="36" height="22" as="geometry">
            <mxRectangle width="36" height="22" as="alternateBounds" />
          </mxGeometry>
        </mxCell>
        <mxCell id="jrHXLefe-VMUljtb0HfS-223" value="Semester" style="shape=partialRectangle;connectable=0;fillColor=none;top=0;left=0;bottom=0;right=0;align=left;spacingLeft=2;overflow=hidden;fontSize=11;" parent="jrHXLefe-VMUljtb0HfS-221" vertex="1">
          <mxGeometry x="36" width="88" height="22" as="geometry">
            <mxRectangle width="88" height="22" as="alternateBounds" />
          </mxGeometry>
        </mxCell>
        <mxCell id="jrHXLefe-VMUljtb0HfS-224" style="shape=tableRow;horizontal=0;startSize=0;swimlaneHead=0;swimlaneBody=0;fillColor=none;collapsible=0;dropTarget=0;points=[[0,0.5],[1,0.5]];portConstraint=eastwest;top=0;left=0;right=0;bottom=0;" parent="jrHXLefe-VMUljtb0HfS-205" vertex="1">
          <mxGeometry y="157" width="124" height="22" as="geometry" />
        </mxCell>
        <mxCell id="jrHXLefe-VMUljtb0HfS-225" value="" style="shape=partialRectangle;connectable=0;fillColor=none;top=0;left=0;bottom=0;right=0;align=left;spacingLeft=2;overflow=hidden;fontSize=11;" parent="jrHXLefe-VMUljtb0HfS-224" vertex="1">
          <mxGeometry width="36" height="22" as="geometry">
            <mxRectangle width="36" height="22" as="alternateBounds" />
          </mxGeometry>
        </mxCell>
        <mxCell id="jrHXLefe-VMUljtb0HfS-226" value="Timeslot" style="shape=partialRectangle;connectable=0;fillColor=none;top=0;left=0;bottom=0;right=0;align=left;spacingLeft=2;overflow=hidden;fontSize=11;" parent="jrHXLefe-VMUljtb0HfS-224" vertex="1">
          <mxGeometry x="36" width="88" height="22" as="geometry">
            <mxRectangle width="88" height="22" as="alternateBounds" />
          </mxGeometry>
        </mxCell>
        <mxCell id="jrHXLefe-VMUljtb0HfS-227" value="FacultyAssignment" style="shape=table;startSize=25;container=1;collapsible=0;childLayout=tableLayout;fixedRows=1;rowLines=1;fontStyle=1;align=center;resizeLast=1;fillColor=#dae8fc;strokeColor=#6c8ebf;" parent="1" vertex="1">
          <mxGeometry x="353" y="721" width="131" height="223" as="geometry" />
        </mxCell>
        <mxCell id="jrHXLefe-VMUljtb0HfS-228" style="shape=tableRow;horizontal=0;startSize=0;swimlaneHead=0;swimlaneBody=0;fillColor=none;collapsible=0;dropTarget=0;points=[[0,0.5],[1,0.5]];portConstraint=eastwest;top=0;left=0;right=0;bottom=0;" parent="jrHXLefe-VMUljtb0HfS-227" vertex="1">
          <mxGeometry y="25" width="131" height="22" as="geometry" />
        </mxCell>
        <mxCell id="jrHXLefe-VMUljtb0HfS-229" value="PK" style="shape=partialRectangle;connectable=0;fillColor=none;top=0;left=0;bottom=0;right=0;align=left;spacingLeft=2;overflow=hidden;fontSize=11;fontStyle=1" parent="jrHXLefe-VMUljtb0HfS-228" vertex="1">
          <mxGeometry width="36" height="22" as="geometry">
            <mxRectangle width="36" height="22" as="alternateBounds" />
          </mxGeometry>
        </mxCell>
        <mxCell id="jrHXLefe-VMUljtb0HfS-230" value="AssignmentID" style="shape=partialRectangle;connectable=0;fillColor=none;top=0;left=0;bottom=0;right=0;align=left;spacingLeft=2;overflow=hidden;fontSize=11;fontStyle=5" parent="jrHXLefe-VMUljtb0HfS-228" vertex="1">
          <mxGeometry x="36" width="95" height="22" as="geometry">
            <mxRectangle width="95" height="22" as="alternateBounds" />
          </mxGeometry>
        </mxCell>
        <mxCell id="jrHXLefe-VMUljtb0HfS-231" style="shape=tableRow;horizontal=0;startSize=0;swimlaneHead=0;swimlaneBody=0;fillColor=none;collapsible=0;dropTarget=0;points=[[0,0.5],[1,0.5]];portConstraint=eastwest;top=0;left=0;right=0;bottom=0;" parent="jrHXLefe-VMUljtb0HfS-227" vertex="1">
          <mxGeometry y="47" width="131" height="22" as="geometry" />
        </mxCell>
        <mxCell id="jrHXLefe-VMUljtb0HfS-232" value="FK" style="shape=partialRectangle;connectable=0;fillColor=none;top=0;left=0;bottom=0;right=0;align=left;spacingLeft=2;overflow=hidden;fontSize=11;fontStyle=1" parent="jrHXLefe-VMUljtb0HfS-231" vertex="1">
          <mxGeometry width="36" height="22" as="geometry">
            <mxRectangle width="36" height="22" as="alternateBounds" />
          </mxGeometry>
        </mxCell>
        <mxCell id="jrHXLefe-VMUljtb0HfS-233" value="FacultyID" style="shape=partialRectangle;connectable=0;fillColor=none;top=0;left=0;bottom=0;right=0;align=left;spacingLeft=2;overflow=hidden;fontSize=11;" parent="jrHXLefe-VMUljtb0HfS-231" vertex="1">
          <mxGeometry x="36" width="95" height="22" as="geometry">
            <mxRectangle width="95" height="22" as="alternateBounds" />
          </mxGeometry>
        </mxCell>
        <mxCell id="jrHXLefe-VMUljtb0HfS-234" style="shape=tableRow;horizontal=0;startSize=0;swimlaneHead=0;swimlaneBody=0;fillColor=none;collapsible=0;dropTarget=0;points=[[0,0.5],[1,0.5]];portConstraint=eastwest;top=0;left=0;right=0;bottom=0;" parent="jrHXLefe-VMUljtb0HfS-227" vertex="1">
          <mxGeometry y="69" width="131" height="22" as="geometry" />
        </mxCell>
        <mxCell id="jrHXLefe-VMUljtb0HfS-235" value="FK" style="shape=partialRectangle;connectable=0;fillColor=none;top=0;left=0;bottom=0;right=0;align=left;spacingLeft=2;overflow=hidden;fontSize=11;fontStyle=1" parent="jrHXLefe-VMUljtb0HfS-234" vertex="1">
          <mxGeometry width="36" height="22" as="geometry">
            <mxRectangle width="36" height="22" as="alternateBounds" />
          </mxGeometry>
        </mxCell>
        <mxCell id="jrHXLefe-VMUljtb0HfS-236" value="DepartmentID" style="shape=partialRectangle;connectable=0;fillColor=none;top=0;left=0;bottom=0;right=0;align=left;spacingLeft=2;overflow=hidden;fontSize=11;" parent="jrHXLefe-VMUljtb0HfS-234" vertex="1">
          <mxGeometry x="36" width="95" height="22" as="geometry">
            <mxRectangle width="95" height="22" as="alternateBounds" />
          </mxGeometry>
        </mxCell>
        <mxCell id="jrHXLefe-VMUljtb0HfS-237" style="shape=tableRow;horizontal=0;startSize=0;swimlaneHead=0;swimlaneBody=0;fillColor=none;collapsible=0;dropTarget=0;points=[[0,0.5],[1,0.5]];portConstraint=eastwest;top=0;left=0;right=0;bottom=0;" parent="jrHXLefe-VMUljtb0HfS-227" vertex="1">
          <mxGeometry y="91" width="131" height="22" as="geometry" />
        </mxCell>
        <mxCell id="jrHXLefe-VMUljtb0HfS-238" value="FK" style="shape=partialRectangle;connectable=0;fillColor=none;top=0;left=0;bottom=0;right=0;align=left;spacingLeft=2;overflow=hidden;fontSize=11;fontStyle=1" parent="jrHXLefe-VMUljtb0HfS-237" vertex="1">
          <mxGeometry width="36" height="22" as="geometry">
            <mxRectangle width="36" height="22" as="alternateBounds" />
          </mxGeometry>
        </mxCell>
        <mxCell id="jrHXLefe-VMUljtb0HfS-239" value="CourseID" style="shape=partialRectangle;connectable=0;fillColor=none;top=0;left=0;bottom=0;right=0;align=left;spacingLeft=2;overflow=hidden;fontSize=11;" parent="jrHXLefe-VMUljtb0HfS-237" vertex="1">
          <mxGeometry x="36" width="95" height="22" as="geometry">
            <mxRectangle width="95" height="22" as="alternateBounds" />
          </mxGeometry>
        </mxCell>
        <mxCell id="jrHXLefe-VMUljtb0HfS-240" style="shape=tableRow;horizontal=0;startSize=0;swimlaneHead=0;swimlaneBody=0;fillColor=none;collapsible=0;dropTarget=0;points=[[0,0.5],[1,0.5]];portConstraint=eastwest;top=0;left=0;right=0;bottom=0;" parent="jrHXLefe-VMUljtb0HfS-227" vertex="1">
          <mxGeometry y="113" width="131" height="22" as="geometry" />
        </mxCell>
        <mxCell id="jrHXLefe-VMUljtb0HfS-241" value="" style="shape=partialRectangle;connectable=0;fillColor=none;top=0;left=0;bottom=0;right=0;align=left;spacingLeft=2;overflow=hidden;fontSize=11;" parent="jrHXLefe-VMUljtb0HfS-240" vertex="1">
          <mxGeometry width="36" height="22" as="geometry">
            <mxRectangle width="36" height="22" as="alternateBounds" />
          </mxGeometry>
        </mxCell>
        <mxCell id="jrHXLefe-VMUljtb0HfS-242" value="StartDate" style="shape=partialRectangle;connectable=0;fillColor=none;top=0;left=0;bottom=0;right=0;align=left;spacingLeft=2;overflow=hidden;fontSize=11;" parent="jrHXLefe-VMUljtb0HfS-240" vertex="1">
          <mxGeometry x="36" width="95" height="22" as="geometry">
            <mxRectangle width="95" height="22" as="alternateBounds" />
          </mxGeometry>
        </mxCell>
        <mxCell id="jrHXLefe-VMUljtb0HfS-243" style="shape=tableRow;horizontal=0;startSize=0;swimlaneHead=0;swimlaneBody=0;fillColor=none;collapsible=0;dropTarget=0;points=[[0,0.5],[1,0.5]];portConstraint=eastwest;top=0;left=0;right=0;bottom=0;" parent="jrHXLefe-VMUljtb0HfS-227" vertex="1">
          <mxGeometry y="135" width="131" height="22" as="geometry" />
        </mxCell>
        <mxCell id="jrHXLefe-VMUljtb0HfS-244" value="" style="shape=partialRectangle;connectable=0;fillColor=none;top=0;left=0;bottom=0;right=0;align=left;spacingLeft=2;overflow=hidden;fontSize=11;" parent="jrHXLefe-VMUljtb0HfS-243" vertex="1">
          <mxGeometry width="36" height="22" as="geometry">
            <mxRectangle width="36" height="22" as="alternateBounds" />
          </mxGeometry>
        </mxCell>
        <mxCell id="jrHXLefe-VMUljtb0HfS-245" value="-    " style="shape=partialRectangle;connectable=0;fillColor=none;top=0;left=0;bottom=0;right=0;align=left;spacingLeft=2;overflow=hidden;fontSize=11;" parent="jrHXLefe-VMUljtb0HfS-243" vertex="1">
          <mxGeometry x="36" width="95" height="22" as="geometry">
            <mxRectangle width="95" height="22" as="alternateBounds" />
          </mxGeometry>
        </mxCell>
        <mxCell id="jrHXLefe-VMUljtb0HfS-246" style="shape=tableRow;horizontal=0;startSize=0;swimlaneHead=0;swimlaneBody=0;fillColor=none;collapsible=0;dropTarget=0;points=[[0,0.5],[1,0.5]];portConstraint=eastwest;top=0;left=0;right=0;bottom=0;" parent="jrHXLefe-VMUljtb0HfS-227" vertex="1">
          <mxGeometry y="157" width="131" height="22" as="geometry" />
        </mxCell>
        <mxCell id="jrHXLefe-VMUljtb0HfS-247" value="" style="shape=partialRectangle;connectable=0;fillColor=none;top=0;left=0;bottom=0;right=0;align=left;spacingLeft=2;overflow=hidden;fontSize=11;" parent="jrHXLefe-VMUljtb0HfS-246" vertex="1">
          <mxGeometry width="36" height="22" as="geometry">
            <mxRectangle width="36" height="22" as="alternateBounds" />
          </mxGeometry>
        </mxCell>
        <mxCell id="jrHXLefe-VMUljtb0HfS-248" value="RecurringType" style="shape=partialRectangle;connectable=0;fillColor=none;top=0;left=0;bottom=0;right=0;align=left;spacingLeft=2;overflow=hidden;fontSize=11;" parent="jrHXLefe-VMUljtb0HfS-246" vertex="1">
          <mxGeometry x="36" width="95" height="22" as="geometry">
            <mxRectangle width="95" height="22" as="alternateBounds" />
          </mxGeometry>
        </mxCell>
        <mxCell id="jrHXLefe-VMUljtb0HfS-249" style="shape=tableRow;horizontal=0;startSize=0;swimlaneHead=0;swimlaneBody=0;fillColor=none;collapsible=0;dropTarget=0;points=[[0,0.5],[1,0.5]];portConstraint=eastwest;top=0;left=0;right=0;bottom=0;" parent="jrHXLefe-VMUljtb0HfS-227" vertex="1">
          <mxGeometry y="179" width="131" height="22" as="geometry" />
        </mxCell>
        <mxCell id="jrHXLefe-VMUljtb0HfS-250" value="" style="shape=partialRectangle;connectable=0;fillColor=none;top=0;left=0;bottom=0;right=0;align=left;spacingLeft=2;overflow=hidden;fontSize=11;" parent="jrHXLefe-VMUljtb0HfS-249" vertex="1">
          <mxGeometry width="36" height="22" as="geometry">
            <mxRectangle width="36" height="22" as="alternateBounds" />
          </mxGeometry>
        </mxCell>
        <mxCell id="jrHXLefe-VMUljtb0HfS-251" value="DaysOfWeek" style="shape=partialRectangle;connectable=0;fillColor=none;top=0;left=0;bottom=0;right=0;align=left;spacingLeft=2;overflow=hidden;fontSize=11;" parent="jrHXLefe-VMUljtb0HfS-249" vertex="1">
          <mxGeometry x="36" width="95" height="22" as="geometry">
            <mxRectangle width="95" height="22" as="alternateBounds" />
          </mxGeometry>
        </mxCell>
        <mxCell id="jrHXLefe-VMUljtb0HfS-252" style="shape=tableRow;horizontal=0;startSize=0;swimlaneHead=0;swimlaneBody=0;fillColor=none;collapsible=0;dropTarget=0;points=[[0,0.5],[1,0.5]];portConstraint=eastwest;top=0;left=0;right=0;bottom=0;" parent="jrHXLefe-VMUljtb0HfS-227" vertex="1">
          <mxGeometry y="201" width="131" height="22" as="geometry" />
        </mxCell>
        <mxCell id="jrHXLefe-VMUljtb0HfS-253" value="string" style="shape=partialRectangle;connectable=0;fillColor=none;top=0;left=0;bottom=0;right=0;align=left;spacingLeft=2;overflow=hidden;fontSize=11;" parent="jrHXLefe-VMUljtb0HfS-252" vertex="1">
          <mxGeometry width="36" height="22" as="geometry">
            <mxRectangle width="36" height="22" as="alternateBounds" />
          </mxGeometry>
        </mxCell>
        <mxCell id="jrHXLefe-VMUljtb0HfS-254" value="Timeslot" style="shape=partialRectangle;connectable=0;fillColor=none;top=0;left=0;bottom=0;right=0;align=left;spacingLeft=2;overflow=hidden;fontSize=11;" parent="jrHXLefe-VMUljtb0HfS-252" vertex="1">
          <mxGeometry x="36" width="95" height="22" as="geometry">
            <mxRectangle width="95" height="22" as="alternateBounds" />
          </mxGeometry>
        </mxCell>
        <mxCell id="jrHXLefe-VMUljtb0HfS-255" value="Enrollment" style="shape=table;startSize=25;container=1;collapsible=0;childLayout=tableLayout;fixedRows=1;rowLines=1;fontStyle=1;align=center;resizeLast=1;fillColor=#dae8fc;strokeColor=#6c8ebf;" parent="1" vertex="1">
          <mxGeometry x="399" y="1320" width="131" height="157" as="geometry" />
        </mxCell>
        <mxCell id="jrHXLefe-VMUljtb0HfS-256" style="shape=tableRow;horizontal=0;startSize=0;swimlaneHead=0;swimlaneBody=0;fillColor=none;collapsible=0;dropTarget=0;points=[[0,0.5],[1,0.5]];portConstraint=eastwest;top=0;left=0;right=0;bottom=0;" parent="jrHXLefe-VMUljtb0HfS-255" vertex="1">
          <mxGeometry y="25" width="131" height="22" as="geometry" />
        </mxCell>
        <mxCell id="jrHXLefe-VMUljtb0HfS-257" value="PK" style="shape=partialRectangle;connectable=0;fillColor=none;top=0;left=0;bottom=0;right=0;align=left;spacingLeft=2;overflow=hidden;fontSize=11;fontStyle=1" parent="jrHXLefe-VMUljtb0HfS-256" vertex="1">
          <mxGeometry width="36" height="22" as="geometry">
            <mxRectangle width="36" height="22" as="alternateBounds" />
          </mxGeometry>
        </mxCell>
        <mxCell id="jrHXLefe-VMUljtb0HfS-258" value="EnrollmentID" style="shape=partialRectangle;connectable=0;fillColor=none;top=0;left=0;bottom=0;right=0;align=left;spacingLeft=2;overflow=hidden;fontSize=11;fontStyle=5" parent="jrHXLefe-VMUljtb0HfS-256" vertex="1">
          <mxGeometry x="36" width="95" height="22" as="geometry">
            <mxRectangle width="95" height="22" as="alternateBounds" />
          </mxGeometry>
        </mxCell>
        <mxCell id="jrHXLefe-VMUljtb0HfS-259" style="shape=tableRow;horizontal=0;startSize=0;swimlaneHead=0;swimlaneBody=0;fillColor=none;collapsible=0;dropTarget=0;points=[[0,0.5],[1,0.5]];portConstraint=eastwest;top=0;left=0;right=0;bottom=0;" parent="jrHXLefe-VMUljtb0HfS-255" vertex="1">
          <mxGeometry y="47" width="131" height="22" as="geometry" />
        </mxCell>
        <mxCell id="jrHXLefe-VMUljtb0HfS-260" value="FK" style="shape=partialRectangle;connectable=0;fillColor=none;top=0;left=0;bottom=0;right=0;align=left;spacingLeft=2;overflow=hidden;fontSize=11;fontStyle=1" parent="jrHXLefe-VMUljtb0HfS-259" vertex="1">
          <mxGeometry width="36" height="22" as="geometry">
            <mxRectangle width="36" height="22" as="alternateBounds" />
          </mxGeometry>
        </mxCell>
        <mxCell id="jrHXLefe-VMUljtb0HfS-261" value="StudentID" style="shape=partialRectangle;connectable=0;fillColor=none;top=0;left=0;bottom=0;right=0;align=left;spacingLeft=2;overflow=hidden;fontSize=11;" parent="jrHXLefe-VMUljtb0HfS-259" vertex="1">
          <mxGeometry x="36" width="95" height="22" as="geometry">
            <mxRectangle width="95" height="22" as="alternateBounds" />
          </mxGeometry>
        </mxCell>
        <mxCell id="jrHXLefe-VMUljtb0HfS-262" style="shape=tableRow;horizontal=0;startSize=0;swimlaneHead=0;swimlaneBody=0;fillColor=none;collapsible=0;dropTarget=0;points=[[0,0.5],[1,0.5]];portConstraint=eastwest;top=0;left=0;right=0;bottom=0;" parent="jrHXLefe-VMUljtb0HfS-255" vertex="1">
          <mxGeometry y="69" width="131" height="22" as="geometry" />
        </mxCell>
        <mxCell id="jrHXLefe-VMUljtb0HfS-263" value="FK" style="shape=partialRectangle;connectable=0;fillColor=none;top=0;left=0;bottom=0;right=0;align=left;spacingLeft=2;overflow=hidden;fontSize=11;fontStyle=1" parent="jrHXLefe-VMUljtb0HfS-262" vertex="1">
          <mxGeometry width="36" height="22" as="geometry">
            <mxRectangle width="36" height="22" as="alternateBounds" />
          </mxGeometry>
        </mxCell>
        <mxCell id="jrHXLefe-VMUljtb0HfS-264" value="CourseID" style="shape=partialRectangle;connectable=0;fillColor=none;top=0;left=0;bottom=0;right=0;align=left;spacingLeft=2;overflow=hidden;fontSize=11;" parent="jrHXLefe-VMUljtb0HfS-262" vertex="1">
          <mxGeometry x="36" width="95" height="22" as="geometry">
            <mxRectangle width="95" height="22" as="alternateBounds" />
          </mxGeometry>
        </mxCell>
        <mxCell id="jrHXLefe-VMUljtb0HfS-265" style="shape=tableRow;horizontal=0;startSize=0;swimlaneHead=0;swimlaneBody=0;fillColor=none;collapsible=0;dropTarget=0;points=[[0,0.5],[1,0.5]];portConstraint=eastwest;top=0;left=0;right=0;bottom=0;" parent="jrHXLefe-VMUljtb0HfS-255" vertex="1">
          <mxGeometry y="91" width="131" height="22" as="geometry" />
        </mxCell>
        <mxCell id="jrHXLefe-VMUljtb0HfS-266" value="" style="shape=partialRectangle;connectable=0;fillColor=none;top=0;left=0;bottom=0;right=0;align=left;spacingLeft=2;overflow=hidden;fontSize=11;" parent="jrHXLefe-VMUljtb0HfS-265" vertex="1">
          <mxGeometry width="36" height="22" as="geometry">
            <mxRectangle width="36" height="22" as="alternateBounds" />
          </mxGeometry>
        </mxCell>
        <mxCell id="jrHXLefe-VMUljtb0HfS-267" value="EnrollmentDate" style="shape=partialRectangle;connectable=0;fillColor=none;top=0;left=0;bottom=0;right=0;align=left;spacingLeft=2;overflow=hidden;fontSize=11;" parent="jrHXLefe-VMUljtb0HfS-265" vertex="1">
          <mxGeometry x="36" width="95" height="22" as="geometry">
            <mxRectangle width="95" height="22" as="alternateBounds" />
          </mxGeometry>
        </mxCell>
        <mxCell id="jrHXLefe-VMUljtb0HfS-268" style="shape=tableRow;horizontal=0;startSize=0;swimlaneHead=0;swimlaneBody=0;fillColor=none;collapsible=0;dropTarget=0;points=[[0,0.5],[1,0.5]];portConstraint=eastwest;top=0;left=0;right=0;bottom=0;" parent="jrHXLefe-VMUljtb0HfS-255" vertex="1">
          <mxGeometry y="113" width="131" height="22" as="geometry" />
        </mxCell>
        <mxCell id="jrHXLefe-VMUljtb0HfS-269" value="" style="shape=partialRectangle;connectable=0;fillColor=none;top=0;left=0;bottom=0;right=0;align=left;spacingLeft=2;overflow=hidden;fontSize=11;" parent="jrHXLefe-VMUljtb0HfS-268" vertex="1">
          <mxGeometry width="36" height="22" as="geometry">
            <mxRectangle width="36" height="22" as="alternateBounds" />
          </mxGeometry>
        </mxCell>
        <mxCell id="jrHXLefe-VMUljtb0HfS-270" value="Status" style="shape=partialRectangle;connectable=0;fillColor=none;top=0;left=0;bottom=0;right=0;align=left;spacingLeft=2;overflow=hidden;fontSize=11;" parent="jrHXLefe-VMUljtb0HfS-268" vertex="1">
          <mxGeometry x="36" width="95" height="22" as="geometry">
            <mxRectangle width="95" height="22" as="alternateBounds" />
          </mxGeometry>
        </mxCell>
        <mxCell id="jrHXLefe-VMUljtb0HfS-271" style="shape=tableRow;horizontal=0;startSize=0;swimlaneHead=0;swimlaneBody=0;fillColor=none;collapsible=0;dropTarget=0;points=[[0,0.5],[1,0.5]];portConstraint=eastwest;top=0;left=0;right=0;bottom=0;" parent="jrHXLefe-VMUljtb0HfS-255" vertex="1">
          <mxGeometry y="135" width="131" height="22" as="geometry" />
        </mxCell>
        <mxCell id="jrHXLefe-VMUljtb0HfS-272" value="" style="shape=partialRectangle;connectable=0;fillColor=none;top=0;left=0;bottom=0;right=0;align=left;spacingLeft=2;overflow=hidden;fontSize=11;" parent="jrHXLefe-VMUljtb0HfS-271" vertex="1">
          <mxGeometry width="36" height="22" as="geometry">
            <mxRectangle width="36" height="22" as="alternateBounds" />
          </mxGeometry>
        </mxCell>
        <mxCell id="jrHXLefe-VMUljtb0HfS-273" value="Timeslot" style="shape=partialRectangle;connectable=0;fillColor=none;top=0;left=0;bottom=0;right=0;align=left;spacingLeft=2;overflow=hidden;fontSize=11;" parent="jrHXLefe-VMUljtb0HfS-271" vertex="1">
          <mxGeometry x="36" width="95" height="22" as="geometry">
            <mxRectangle width="95" height="22" as="alternateBounds" />
          </mxGeometry>
        </mxCell>
        <mxCell id="jrHXLefe-VMUljtb0HfS-274" value="Faculty" style="shape=table;startSize=25;container=1;collapsible=0;childLayout=tableLayout;fixedRows=1;rowLines=1;fontStyle=1;align=center;resizeLast=1;fillColor=#dae8fc;strokeColor=#6c8ebf;" parent="1" vertex="1">
          <mxGeometry x="612" y="465" width="114" height="157" as="geometry" />
        </mxCell>
        <mxCell id="jrHXLefe-VMUljtb0HfS-275" style="shape=tableRow;horizontal=0;startSize=0;swimlaneHead=0;swimlaneBody=0;fillColor=none;collapsible=0;dropTarget=0;points=[[0,0.5],[1,0.5]];portConstraint=eastwest;top=0;left=0;right=0;bottom=0;" parent="jrHXLefe-VMUljtb0HfS-274" vertex="1">
          <mxGeometry y="25" width="114" height="22" as="geometry" />
        </mxCell>
        <mxCell id="jrHXLefe-VMUljtb0HfS-276" value="PK" style="shape=partialRectangle;connectable=0;fillColor=none;top=0;left=0;bottom=0;right=0;align=left;spacingLeft=2;overflow=hidden;fontSize=11;fontStyle=1" parent="jrHXLefe-VMUljtb0HfS-275" vertex="1">
          <mxGeometry width="36" height="22" as="geometry">
            <mxRectangle width="36" height="22" as="alternateBounds" />
          </mxGeometry>
        </mxCell>
        <mxCell id="jrHXLefe-VMUljtb0HfS-277" value="FacultyID" style="shape=partialRectangle;connectable=0;fillColor=none;top=0;left=0;bottom=0;right=0;align=left;spacingLeft=2;overflow=hidden;fontSize=11;fontStyle=5" parent="jrHXLefe-VMUljtb0HfS-275" vertex="1">
          <mxGeometry x="36" width="78" height="22" as="geometry">
            <mxRectangle width="78" height="22" as="alternateBounds" />
          </mxGeometry>
        </mxCell>
        <mxCell id="jrHXLefe-VMUljtb0HfS-278" style="shape=tableRow;horizontal=0;startSize=0;swimlaneHead=0;swimlaneBody=0;fillColor=none;collapsible=0;dropTarget=0;points=[[0,0.5],[1,0.5]];portConstraint=eastwest;top=0;left=0;right=0;bottom=0;" parent="jrHXLefe-VMUljtb0HfS-274" vertex="1">
          <mxGeometry y="47" width="114" height="22" as="geometry" />
        </mxCell>
        <mxCell id="jrHXLefe-VMUljtb0HfS-279" value="" style="shape=partialRectangle;connectable=0;fillColor=none;top=0;left=0;bottom=0;right=0;align=left;spacingLeft=2;overflow=hidden;fontSize=11;" parent="jrHXLefe-VMUljtb0HfS-278" vertex="1">
          <mxGeometry width="36" height="22" as="geometry">
            <mxRectangle width="36" height="22" as="alternateBounds" />
          </mxGeometry>
        </mxCell>
        <mxCell id="jrHXLefe-VMUljtb0HfS-280" value="Name" style="shape=partialRectangle;connectable=0;fillColor=none;top=0;left=0;bottom=0;right=0;align=left;spacingLeft=2;overflow=hidden;fontSize=11;" parent="jrHXLefe-VMUljtb0HfS-278" vertex="1">
          <mxGeometry x="36" width="78" height="22" as="geometry">
            <mxRectangle width="78" height="22" as="alternateBounds" />
          </mxGeometry>
        </mxCell>
        <mxCell id="jrHXLefe-VMUljtb0HfS-281" style="shape=tableRow;horizontal=0;startSize=0;swimlaneHead=0;swimlaneBody=0;fillColor=none;collapsible=0;dropTarget=0;points=[[0,0.5],[1,0.5]];portConstraint=eastwest;top=0;left=0;right=0;bottom=0;" parent="jrHXLefe-VMUljtb0HfS-274" vertex="1">
          <mxGeometry y="69" width="114" height="22" as="geometry" />
        </mxCell>
        <mxCell id="jrHXLefe-VMUljtb0HfS-282" value="" style="shape=partialRectangle;connectable=0;fillColor=none;top=0;left=0;bottom=0;right=0;align=left;spacingLeft=2;overflow=hidden;fontSize=11;" parent="jrHXLefe-VMUljtb0HfS-281" vertex="1">
          <mxGeometry width="36" height="22" as="geometry">
            <mxRectangle width="36" height="22" as="alternateBounds" />
          </mxGeometry>
        </mxCell>
        <mxCell id="jrHXLefe-VMUljtb0HfS-283" value="Email" style="shape=partialRectangle;connectable=0;fillColor=none;top=0;left=0;bottom=0;right=0;align=left;spacingLeft=2;overflow=hidden;fontSize=11;" parent="jrHXLefe-VMUljtb0HfS-281" vertex="1">
          <mxGeometry x="36" width="78" height="22" as="geometry">
            <mxRectangle width="78" height="22" as="alternateBounds" />
          </mxGeometry>
        </mxCell>
        <mxCell id="jrHXLefe-VMUljtb0HfS-284" style="shape=tableRow;horizontal=0;startSize=0;swimlaneHead=0;swimlaneBody=0;fillColor=none;collapsible=0;dropTarget=0;points=[[0,0.5],[1,0.5]];portConstraint=eastwest;top=0;left=0;right=0;bottom=0;" parent="jrHXLefe-VMUljtb0HfS-274" vertex="1">
          <mxGeometry y="91" width="114" height="22" as="geometry" />
        </mxCell>
        <mxCell id="jrHXLefe-VMUljtb0HfS-285" value="FK" style="shape=partialRectangle;connectable=0;fillColor=none;top=0;left=0;bottom=0;right=0;align=left;spacingLeft=2;overflow=hidden;fontSize=11;fontStyle=1" parent="jrHXLefe-VMUljtb0HfS-284" vertex="1">
          <mxGeometry width="36" height="22" as="geometry">
            <mxRectangle width="36" height="22" as="alternateBounds" />
          </mxGeometry>
        </mxCell>
        <mxCell id="jrHXLefe-VMUljtb0HfS-286" value="DepartmentID" style="shape=partialRectangle;connectable=0;fillColor=none;top=0;left=0;bottom=0;right=0;align=left;spacingLeft=2;overflow=hidden;fontSize=11;" parent="jrHXLefe-VMUljtb0HfS-284" vertex="1">
          <mxGeometry x="36" width="78" height="22" as="geometry">
            <mxRectangle width="78" height="22" as="alternateBounds" />
          </mxGeometry>
        </mxCell>
        <mxCell id="jrHXLefe-VMUljtb0HfS-287" style="shape=tableRow;horizontal=0;startSize=0;swimlaneHead=0;swimlaneBody=0;fillColor=none;collapsible=0;dropTarget=0;points=[[0,0.5],[1,0.5]];portConstraint=eastwest;top=0;left=0;right=0;bottom=0;" parent="jrHXLefe-VMUljtb0HfS-274" vertex="1">
          <mxGeometry y="113" width="114" height="22" as="geometry" />
        </mxCell>
        <mxCell id="jrHXLefe-VMUljtb0HfS-288" value="" style="shape=partialRectangle;connectable=0;fillColor=none;top=0;left=0;bottom=0;right=0;align=left;spacingLeft=2;overflow=hidden;fontSize=11;" parent="jrHXLefe-VMUljtb0HfS-287" vertex="1">
          <mxGeometry width="36" height="22" as="geometry">
            <mxRectangle width="36" height="22" as="alternateBounds" />
          </mxGeometry>
        </mxCell>
        <mxCell id="jrHXLefe-VMUljtb0HfS-289" value="DateOfJoining" style="shape=partialRectangle;connectable=0;fillColor=none;top=0;left=0;bottom=0;right=0;align=left;spacingLeft=2;overflow=hidden;fontSize=11;" parent="jrHXLefe-VMUljtb0HfS-287" vertex="1">
          <mxGeometry x="36" width="78" height="22" as="geometry">
            <mxRectangle width="78" height="22" as="alternateBounds" />
          </mxGeometry>
        </mxCell>
        <mxCell id="jrHXLefe-VMUljtb0HfS-290" style="shape=tableRow;horizontal=0;startSize=0;swimlaneHead=0;swimlaneBody=0;fillColor=none;collapsible=0;dropTarget=0;points=[[0,0.5],[1,0.5]];portConstraint=eastwest;top=0;left=0;right=0;bottom=0;" parent="jrHXLefe-VMUljtb0HfS-274" vertex="1">
          <mxGeometry y="135" width="114" height="22" as="geometry" />
        </mxCell>
        <mxCell id="jrHXLefe-VMUljtb0HfS-291" value="string" style="shape=partialRectangle;connectable=0;fillColor=none;top=0;left=0;bottom=0;right=0;align=left;spacingLeft=2;overflow=hidden;fontSize=11;" parent="jrHXLefe-VMUljtb0HfS-290" vertex="1">
          <mxGeometry width="36" height="22" as="geometry">
            <mxRectangle width="36" height="22" as="alternateBounds" />
          </mxGeometry>
        </mxCell>
        <mxCell id="jrHXLefe-VMUljtb0HfS-292" value="Qualification" style="shape=partialRectangle;connectable=0;fillColor=none;top=0;left=0;bottom=0;right=0;align=left;spacingLeft=2;overflow=hidden;fontSize=11;" parent="jrHXLefe-VMUljtb0HfS-290" vertex="1">
          <mxGeometry x="36" width="78" height="22" as="geometry">
            <mxRectangle width="78" height="22" as="alternateBounds" />
          </mxGeometry>
        </mxCell>
        <mxCell id="jrHXLefe-VMUljtb0HfS-293" value="Student" style="shape=table;startSize=25;container=1;collapsible=0;childLayout=tableLayout;fixedRows=1;rowLines=1;fontStyle=1;align=center;resizeLast=1;fillColor=#dae8fc;strokeColor=#6c8ebf;" parent="1" vertex="1">
          <mxGeometry x="433" y="1042" width="127" height="179" as="geometry" />
        </mxCell>
        <mxCell id="jrHXLefe-VMUljtb0HfS-294" style="shape=tableRow;horizontal=0;startSize=0;swimlaneHead=0;swimlaneBody=0;fillColor=none;collapsible=0;dropTarget=0;points=[[0,0.5],[1,0.5]];portConstraint=eastwest;top=0;left=0;right=0;bottom=0;" parent="jrHXLefe-VMUljtb0HfS-293" vertex="1">
          <mxGeometry y="25" width="127" height="22" as="geometry" />
        </mxCell>
        <mxCell id="jrHXLefe-VMUljtb0HfS-295" value="PK" style="shape=partialRectangle;connectable=0;fillColor=none;top=0;left=0;bottom=0;right=0;align=left;spacingLeft=2;overflow=hidden;fontSize=11;fontStyle=1" parent="jrHXLefe-VMUljtb0HfS-294" vertex="1">
          <mxGeometry width="36" height="22" as="geometry">
            <mxRectangle width="36" height="22" as="alternateBounds" />
          </mxGeometry>
        </mxCell>
        <mxCell id="jrHXLefe-VMUljtb0HfS-296" value="StudentID" style="shape=partialRectangle;connectable=0;fillColor=none;top=0;left=0;bottom=0;right=0;align=left;spacingLeft=2;overflow=hidden;fontSize=11;fontStyle=5" parent="jrHXLefe-VMUljtb0HfS-294" vertex="1">
          <mxGeometry x="36" width="91" height="22" as="geometry">
            <mxRectangle width="91" height="22" as="alternateBounds" />
          </mxGeometry>
        </mxCell>
        <mxCell id="jrHXLefe-VMUljtb0HfS-297" style="shape=tableRow;horizontal=0;startSize=0;swimlaneHead=0;swimlaneBody=0;fillColor=none;collapsible=0;dropTarget=0;points=[[0,0.5],[1,0.5]];portConstraint=eastwest;top=0;left=0;right=0;bottom=0;" parent="jrHXLefe-VMUljtb0HfS-293" vertex="1">
          <mxGeometry y="47" width="127" height="22" as="geometry" />
        </mxCell>
        <mxCell id="jrHXLefe-VMUljtb0HfS-298" value="" style="shape=partialRectangle;connectable=0;fillColor=none;top=0;left=0;bottom=0;right=0;align=left;spacingLeft=2;overflow=hidden;fontSize=11;" parent="jrHXLefe-VMUljtb0HfS-297" vertex="1">
          <mxGeometry width="36" height="22" as="geometry">
            <mxRectangle width="36" height="22" as="alternateBounds" />
          </mxGeometry>
        </mxCell>
        <mxCell id="jrHXLefe-VMUljtb0HfS-299" value="Name" style="shape=partialRectangle;connectable=0;fillColor=none;top=0;left=0;bottom=0;right=0;align=left;spacingLeft=2;overflow=hidden;fontSize=11;" parent="jrHXLefe-VMUljtb0HfS-297" vertex="1">
          <mxGeometry x="36" width="91" height="22" as="geometry">
            <mxRectangle width="91" height="22" as="alternateBounds" />
          </mxGeometry>
        </mxCell>
        <mxCell id="jrHXLefe-VMUljtb0HfS-300" style="shape=tableRow;horizontal=0;startSize=0;swimlaneHead=0;swimlaneBody=0;fillColor=none;collapsible=0;dropTarget=0;points=[[0,0.5],[1,0.5]];portConstraint=eastwest;top=0;left=0;right=0;bottom=0;" parent="jrHXLefe-VMUljtb0HfS-293" vertex="1">
          <mxGeometry y="69" width="127" height="22" as="geometry" />
        </mxCell>
        <mxCell id="jrHXLefe-VMUljtb0HfS-301" value="" style="shape=partialRectangle;connectable=0;fillColor=none;top=0;left=0;bottom=0;right=0;align=left;spacingLeft=2;overflow=hidden;fontSize=11;" parent="jrHXLefe-VMUljtb0HfS-300" vertex="1">
          <mxGeometry width="36" height="22" as="geometry">
            <mxRectangle width="36" height="22" as="alternateBounds" />
          </mxGeometry>
        </mxCell>
        <mxCell id="jrHXLefe-VMUljtb0HfS-302" value="Email" style="shape=partialRectangle;connectable=0;fillColor=none;top=0;left=0;bottom=0;right=0;align=left;spacingLeft=2;overflow=hidden;fontSize=11;" parent="jrHXLefe-VMUljtb0HfS-300" vertex="1">
          <mxGeometry x="36" width="91" height="22" as="geometry">
            <mxRectangle width="91" height="22" as="alternateBounds" />
          </mxGeometry>
        </mxCell>
        <mxCell id="jrHXLefe-VMUljtb0HfS-303" style="shape=tableRow;horizontal=0;startSize=0;swimlaneHead=0;swimlaneBody=0;fillColor=none;collapsible=0;dropTarget=0;points=[[0,0.5],[1,0.5]];portConstraint=eastwest;top=0;left=0;right=0;bottom=0;" parent="jrHXLefe-VMUljtb0HfS-293" vertex="1">
          <mxGeometry y="91" width="127" height="22" as="geometry" />
        </mxCell>
        <mxCell id="jrHXLefe-VMUljtb0HfS-304" value="" style="shape=partialRectangle;connectable=0;fillColor=none;top=0;left=0;bottom=0;right=0;align=left;spacingLeft=2;overflow=hidden;fontSize=11;" parent="jrHXLefe-VMUljtb0HfS-303" vertex="1">
          <mxGeometry width="36" height="22" as="geometry">
            <mxRectangle width="36" height="22" as="alternateBounds" />
          </mxGeometry>
        </mxCell>
        <mxCell id="jrHXLefe-VMUljtb0HfS-305" value="DateOfBirth" style="shape=partialRectangle;connectable=0;fillColor=none;top=0;left=0;bottom=0;right=0;align=left;spacingLeft=2;overflow=hidden;fontSize=11;" parent="jrHXLefe-VMUljtb0HfS-303" vertex="1">
          <mxGeometry x="36" width="91" height="22" as="geometry">
            <mxRectangle width="91" height="22" as="alternateBounds" />
          </mxGeometry>
        </mxCell>
        <mxCell id="jrHXLefe-VMUljtb0HfS-306" style="shape=tableRow;horizontal=0;startSize=0;swimlaneHead=0;swimlaneBody=0;fillColor=none;collapsible=0;dropTarget=0;points=[[0,0.5],[1,0.5]];portConstraint=eastwest;top=0;left=0;right=0;bottom=0;" parent="jrHXLefe-VMUljtb0HfS-293" vertex="1">
          <mxGeometry y="113" width="127" height="22" as="geometry" />
        </mxCell>
        <mxCell id="jrHXLefe-VMUljtb0HfS-307" value="" style="shape=partialRectangle;connectable=0;fillColor=none;top=0;left=0;bottom=0;right=0;align=left;spacingLeft=2;overflow=hidden;fontSize=11;" parent="jrHXLefe-VMUljtb0HfS-306" vertex="1">
          <mxGeometry width="36" height="22" as="geometry">
            <mxRectangle width="36" height="22" as="alternateBounds" />
          </mxGeometry>
        </mxCell>
        <mxCell id="jrHXLefe-VMUljtb0HfS-308" value="AdmissionDate" style="shape=partialRectangle;connectable=0;fillColor=none;top=0;left=0;bottom=0;right=0;align=left;spacingLeft=2;overflow=hidden;fontSize=11;" parent="jrHXLefe-VMUljtb0HfS-306" vertex="1">
          <mxGeometry x="36" width="91" height="22" as="geometry">
            <mxRectangle width="91" height="22" as="alternateBounds" />
          </mxGeometry>
        </mxCell>
        <mxCell id="jrHXLefe-VMUljtb0HfS-309" style="shape=tableRow;horizontal=0;startSize=0;swimlaneHead=0;swimlaneBody=0;fillColor=none;collapsible=0;dropTarget=0;points=[[0,0.5],[1,0.5]];portConstraint=eastwest;top=0;left=0;right=0;bottom=0;" parent="jrHXLefe-VMUljtb0HfS-293" vertex="1">
          <mxGeometry y="135" width="127" height="22" as="geometry" />
        </mxCell>
        <mxCell id="jrHXLefe-VMUljtb0HfS-310" value="" style="shape=partialRectangle;connectable=0;fillColor=none;top=0;left=0;bottom=0;right=0;align=left;spacingLeft=2;overflow=hidden;fontSize=11;" parent="jrHXLefe-VMUljtb0HfS-309" vertex="1">
          <mxGeometry width="36" height="22" as="geometry">
            <mxRectangle width="36" height="22" as="alternateBounds" />
          </mxGeometry>
        </mxCell>
        <mxCell id="jrHXLefe-VMUljtb0HfS-311" value="Batch" style="shape=partialRectangle;connectable=0;fillColor=none;top=0;left=0;bottom=0;right=0;align=left;spacingLeft=2;overflow=hidden;fontSize=11;" parent="jrHXLefe-VMUljtb0HfS-309" vertex="1">
          <mxGeometry x="36" width="91" height="22" as="geometry">
            <mxRectangle width="91" height="22" as="alternateBounds" />
          </mxGeometry>
        </mxCell>
        <mxCell id="jrHXLefe-VMUljtb0HfS-312" style="shape=tableRow;horizontal=0;startSize=0;swimlaneHead=0;swimlaneBody=0;fillColor=none;collapsible=0;dropTarget=0;points=[[0,0.5],[1,0.5]];portConstraint=eastwest;top=0;left=0;right=0;bottom=0;" parent="jrHXLefe-VMUljtb0HfS-293" vertex="1">
          <mxGeometry y="157" width="127" height="22" as="geometry" />
        </mxCell>
        <mxCell id="jrHXLefe-VMUljtb0HfS-313" value="" style="shape=partialRectangle;connectable=0;fillColor=none;top=0;left=0;bottom=0;right=0;align=left;spacingLeft=2;overflow=hidden;fontSize=11;" parent="jrHXLefe-VMUljtb0HfS-312" vertex="1">
          <mxGeometry width="36" height="22" as="geometry">
            <mxRectangle width="36" height="22" as="alternateBounds" />
          </mxGeometry>
        </mxCell>
        <mxCell id="jrHXLefe-VMUljtb0HfS-314" value="Password" style="shape=partialRectangle;connectable=0;fillColor=none;top=0;left=0;bottom=0;right=0;align=left;spacingLeft=2;overflow=hidden;fontSize=11;" parent="jrHXLefe-VMUljtb0HfS-312" vertex="1">
          <mxGeometry x="36" width="91" height="22" as="geometry">
            <mxRectangle width="91" height="22" as="alternateBounds" />
          </mxGeometry>
        </mxCell>
        <mxCell id="jrHXLefe-VMUljtb0HfS-315" value="Program" style="shape=table;startSize=25;container=1;collapsible=0;childLayout=tableLayout;fixedRows=1;rowLines=1;fontStyle=1;align=center;resizeLast=1;fillColor=#dae8fc;strokeColor=#6c8ebf;" parent="1" vertex="1">
          <mxGeometry x="143" y="700" width="110" height="140" as="geometry" />
        </mxCell>
        <mxCell id="jrHXLefe-VMUljtb0HfS-316" style="shape=tableRow;horizontal=0;startSize=0;swimlaneHead=0;swimlaneBody=0;fillColor=none;collapsible=0;dropTarget=0;points=[[0,0.5],[1,0.5]];portConstraint=eastwest;top=0;left=0;right=0;bottom=0;" parent="jrHXLefe-VMUljtb0HfS-315" vertex="1">
          <mxGeometry y="25" width="110" height="22" as="geometry" />
        </mxCell>
        <mxCell id="jrHXLefe-VMUljtb0HfS-317" value="PK" style="shape=partialRectangle;connectable=0;fillColor=none;top=0;left=0;bottom=0;right=0;align=left;spacingLeft=2;overflow=hidden;fontSize=11;fontStyle=1" parent="jrHXLefe-VMUljtb0HfS-316" vertex="1">
          <mxGeometry width="36" height="22" as="geometry">
            <mxRectangle width="36" height="22" as="alternateBounds" />
          </mxGeometry>
        </mxCell>
        <mxCell id="jrHXLefe-VMUljtb0HfS-318" value="ProgramID" style="shape=partialRectangle;connectable=0;fillColor=none;top=0;left=0;bottom=0;right=0;align=left;spacingLeft=2;overflow=hidden;fontSize=11;fontStyle=5" parent="jrHXLefe-VMUljtb0HfS-316" vertex="1">
          <mxGeometry x="36" width="74" height="22" as="geometry">
            <mxRectangle width="74" height="22" as="alternateBounds" />
          </mxGeometry>
        </mxCell>
        <mxCell id="jrHXLefe-VMUljtb0HfS-319" style="shape=tableRow;horizontal=0;startSize=0;swimlaneHead=0;swimlaneBody=0;fillColor=none;collapsible=0;dropTarget=0;points=[[0,0.5],[1,0.5]];portConstraint=eastwest;top=0;left=0;right=0;bottom=0;" parent="jrHXLefe-VMUljtb0HfS-315" vertex="1">
          <mxGeometry y="47" width="110" height="22" as="geometry" />
        </mxCell>
        <mxCell id="jrHXLefe-VMUljtb0HfS-320" value="" style="shape=partialRectangle;connectable=0;fillColor=none;top=0;left=0;bottom=0;right=0;align=left;spacingLeft=2;overflow=hidden;fontSize=11;" parent="jrHXLefe-VMUljtb0HfS-319" vertex="1">
          <mxGeometry width="36" height="22" as="geometry">
            <mxRectangle width="36" height="22" as="alternateBounds" />
          </mxGeometry>
        </mxCell>
        <mxCell id="jrHXLefe-VMUljtb0HfS-321" value="Name" style="shape=partialRectangle;connectable=0;fillColor=none;top=0;left=0;bottom=0;right=0;align=left;spacingLeft=2;overflow=hidden;fontSize=11;" parent="jrHXLefe-VMUljtb0HfS-319" vertex="1">
          <mxGeometry x="36" width="74" height="22" as="geometry">
            <mxRectangle width="74" height="22" as="alternateBounds" />
          </mxGeometry>
        </mxCell>
        <mxCell id="jrHXLefe-VMUljtb0HfS-322" style="shape=tableRow;horizontal=0;startSize=0;swimlaneHead=0;swimlaneBody=0;fillColor=none;collapsible=0;dropTarget=0;points=[[0,0.5],[1,0.5]];portConstraint=eastwest;top=0;left=0;right=0;bottom=0;" parent="jrHXLefe-VMUljtb0HfS-315" vertex="1">
          <mxGeometry y="69" width="110" height="22" as="geometry" />
        </mxCell>
        <mxCell id="jrHXLefe-VMUljtb0HfS-323" value="" style="shape=partialRectangle;connectable=0;fillColor=none;top=0;left=0;bottom=0;right=0;align=left;spacingLeft=2;overflow=hidden;fontSize=11;" parent="jrHXLefe-VMUljtb0HfS-322" vertex="1">
          <mxGeometry width="36" height="22" as="geometry">
            <mxRectangle width="36" height="22" as="alternateBounds" />
          </mxGeometry>
        </mxCell>
        <mxCell id="jrHXLefe-VMUljtb0HfS-324" value="Description" style="shape=partialRectangle;connectable=0;fillColor=none;top=0;left=0;bottom=0;right=0;align=left;spacingLeft=2;overflow=hidden;fontSize=11;" parent="jrHXLefe-VMUljtb0HfS-322" vertex="1">
          <mxGeometry x="36" width="74" height="22" as="geometry">
            <mxRectangle width="74" height="22" as="alternateBounds" />
          </mxGeometry>
        </mxCell>
        <mxCell id="jrHXLefe-VMUljtb0HfS-325" style="shape=tableRow;horizontal=0;startSize=0;swimlaneHead=0;swimlaneBody=0;fillColor=none;collapsible=0;dropTarget=0;points=[[0,0.5],[1,0.5]];portConstraint=eastwest;top=0;left=0;right=0;bottom=0;" parent="jrHXLefe-VMUljtb0HfS-315" vertex="1">
          <mxGeometry y="91" width="110" height="22" as="geometry" />
        </mxCell>
        <mxCell id="jrHXLefe-VMUljtb0HfS-326" value="" style="shape=partialRectangle;connectable=0;fillColor=none;top=0;left=0;bottom=0;right=0;align=left;spacingLeft=2;overflow=hidden;fontSize=11;" parent="jrHXLefe-VMUljtb0HfS-325" vertex="1">
          <mxGeometry width="36" height="22" as="geometry">
            <mxRectangle width="36" height="22" as="alternateBounds" />
          </mxGeometry>
        </mxCell>
        <mxCell id="jrHXLefe-VMUljtb0HfS-327" value="TotalCredits" style="shape=partialRectangle;connectable=0;fillColor=none;top=0;left=0;bottom=0;right=0;align=left;spacingLeft=2;overflow=hidden;fontSize=11;" parent="jrHXLefe-VMUljtb0HfS-325" vertex="1">
          <mxGeometry x="36" width="74" height="22" as="geometry">
            <mxRectangle width="74" height="22" as="alternateBounds" />
          </mxGeometry>
        </mxCell>
        <mxCell id="jrHXLefe-VMUljtb0HfS-328" style="shape=tableRow;horizontal=0;startSize=0;swimlaneHead=0;swimlaneBody=0;fillColor=none;collapsible=0;dropTarget=0;points=[[0,0.5],[1,0.5]];portConstraint=eastwest;top=0;left=0;right=0;bottom=0;" parent="jrHXLefe-VMUljtb0HfS-315" vertex="1">
          <mxGeometry y="113" width="110" height="27" as="geometry" />
        </mxCell>
        <mxCell id="jrHXLefe-VMUljtb0HfS-329" value="FK" style="shape=partialRectangle;connectable=0;fillColor=none;top=0;left=0;bottom=0;right=0;align=left;spacingLeft=2;overflow=hidden;fontSize=11;fontStyle=1" parent="jrHXLefe-VMUljtb0HfS-328" vertex="1">
          <mxGeometry width="36" height="27" as="geometry">
            <mxRectangle width="36" height="27" as="alternateBounds" />
          </mxGeometry>
        </mxCell>
        <mxCell id="jrHXLefe-VMUljtb0HfS-330" value="DepartmentID" style="shape=partialRectangle;connectable=0;fillColor=none;top=0;left=0;bottom=0;right=0;align=left;spacingLeft=2;overflow=hidden;fontSize=11;" parent="jrHXLefe-VMUljtb0HfS-328" vertex="1">
          <mxGeometry x="36" width="74" height="27" as="geometry">
            <mxRectangle width="74" height="27" as="alternateBounds" />
          </mxGeometry>
        </mxCell>
        <mxCell id="jrHXLefe-VMUljtb0HfS-331" value="Admin" style="shape=table;startSize=25;container=1;collapsible=0;childLayout=tableLayout;fixedRows=1;rowLines=1;fontStyle=1;align=center;resizeLast=1;fillColor=#dae8fc;strokeColor=#6c8ebf;" parent="1" vertex="1">
          <mxGeometry x="310" y="10" width="100" height="113" as="geometry" />
        </mxCell>
        <mxCell id="jrHXLefe-VMUljtb0HfS-332" style="shape=tableRow;horizontal=0;startSize=0;swimlaneHead=0;swimlaneBody=0;fillColor=none;collapsible=0;dropTarget=0;points=[[0,0.5],[1,0.5]];portConstraint=eastwest;top=0;left=0;right=0;bottom=0;" parent="jrHXLefe-VMUljtb0HfS-331" vertex="1">
          <mxGeometry y="25" width="100" height="22" as="geometry" />
        </mxCell>
        <mxCell id="jrHXLefe-VMUljtb0HfS-333" value="PK" style="shape=partialRectangle;connectable=0;fillColor=none;top=0;left=0;bottom=0;right=0;align=left;spacingLeft=2;overflow=hidden;fontSize=11;fontStyle=1" parent="jrHXLefe-VMUljtb0HfS-332" vertex="1">
          <mxGeometry width="30" height="22" as="geometry">
            <mxRectangle width="30" height="22" as="alternateBounds" />
          </mxGeometry>
        </mxCell>
        <mxCell id="jrHXLefe-VMUljtb0HfS-334" value="AdminID " style="shape=partialRectangle;connectable=0;fillColor=none;top=0;left=0;bottom=0;right=0;align=left;spacingLeft=2;overflow=hidden;fontSize=11;fontStyle=5" parent="jrHXLefe-VMUljtb0HfS-332" vertex="1">
          <mxGeometry x="30" width="70" height="22" as="geometry">
            <mxRectangle width="70" height="22" as="alternateBounds" />
          </mxGeometry>
        </mxCell>
        <mxCell id="jrHXLefe-VMUljtb0HfS-335" style="shape=tableRow;horizontal=0;startSize=0;swimlaneHead=0;swimlaneBody=0;fillColor=none;collapsible=0;dropTarget=0;points=[[0,0.5],[1,0.5]];portConstraint=eastwest;top=0;left=0;right=0;bottom=0;" parent="jrHXLefe-VMUljtb0HfS-331" vertex="1">
          <mxGeometry y="47" width="100" height="22" as="geometry" />
        </mxCell>
        <mxCell id="jrHXLefe-VMUljtb0HfS-336" value="" style="shape=partialRectangle;connectable=0;fillColor=none;top=0;left=0;bottom=0;right=0;align=left;spacingLeft=2;overflow=hidden;fontSize=11;" parent="jrHXLefe-VMUljtb0HfS-335" vertex="1">
          <mxGeometry width="30" height="22" as="geometry">
            <mxRectangle width="30" height="22" as="alternateBounds" />
          </mxGeometry>
        </mxCell>
        <mxCell id="jrHXLefe-VMUljtb0HfS-337" value="Name" style="shape=partialRectangle;connectable=0;fillColor=none;top=0;left=0;bottom=0;right=0;align=left;spacingLeft=2;overflow=hidden;fontSize=11;" parent="jrHXLefe-VMUljtb0HfS-335" vertex="1">
          <mxGeometry x="30" width="70" height="22" as="geometry">
            <mxRectangle width="70" height="22" as="alternateBounds" />
          </mxGeometry>
        </mxCell>
        <mxCell id="jrHXLefe-VMUljtb0HfS-338" style="shape=tableRow;horizontal=0;startSize=0;swimlaneHead=0;swimlaneBody=0;fillColor=none;collapsible=0;dropTarget=0;points=[[0,0.5],[1,0.5]];portConstraint=eastwest;top=0;left=0;right=0;bottom=0;" parent="jrHXLefe-VMUljtb0HfS-331" vertex="1">
          <mxGeometry y="69" width="100" height="22" as="geometry" />
        </mxCell>
        <mxCell id="jrHXLefe-VMUljtb0HfS-339" value="" style="shape=partialRectangle;connectable=0;fillColor=none;top=0;left=0;bottom=0;right=0;align=left;spacingLeft=2;overflow=hidden;fontSize=11;" parent="jrHXLefe-VMUljtb0HfS-338" vertex="1">
          <mxGeometry width="30" height="22" as="geometry">
            <mxRectangle width="30" height="22" as="alternateBounds" />
          </mxGeometry>
        </mxCell>
        <mxCell id="jrHXLefe-VMUljtb0HfS-340" value="Email" style="shape=partialRectangle;connectable=0;fillColor=none;top=0;left=0;bottom=0;right=0;align=left;spacingLeft=2;overflow=hidden;fontSize=11;" parent="jrHXLefe-VMUljtb0HfS-338" vertex="1">
          <mxGeometry x="30" width="70" height="22" as="geometry">
            <mxRectangle width="70" height="22" as="alternateBounds" />
          </mxGeometry>
        </mxCell>
        <mxCell id="jrHXLefe-VMUljtb0HfS-341" style="shape=tableRow;horizontal=0;startSize=0;swimlaneHead=0;swimlaneBody=0;fillColor=none;collapsible=0;dropTarget=0;points=[[0,0.5],[1,0.5]];portConstraint=eastwest;top=0;left=0;right=0;bottom=0;" parent="jrHXLefe-VMUljtb0HfS-331" vertex="1">
          <mxGeometry y="91" width="100" height="22" as="geometry" />
        </mxCell>
        <mxCell id="jrHXLefe-VMUljtb0HfS-342" value="" style="shape=partialRectangle;connectable=0;fillColor=none;top=0;left=0;bottom=0;right=0;align=left;spacingLeft=2;overflow=hidden;fontSize=11;" parent="jrHXLefe-VMUljtb0HfS-341" vertex="1">
          <mxGeometry width="30" height="22" as="geometry">
            <mxRectangle width="30" height="22" as="alternateBounds" />
          </mxGeometry>
        </mxCell>
        <mxCell id="jrHXLefe-VMUljtb0HfS-343" value="Role" style="shape=partialRectangle;connectable=0;fillColor=none;top=0;left=0;bottom=0;right=0;align=left;spacingLeft=2;overflow=hidden;fontSize=11;" parent="jrHXLefe-VMUljtb0HfS-341" vertex="1">
          <mxGeometry x="30" width="70" height="22" as="geometry">
            <mxRectangle width="70" height="22" as="alternateBounds" />
          </mxGeometry>
        </mxCell>
        <mxCell id="jrHXLefe-VMUljtb0HfS-344" value="owns" style="curved=0;startArrow=ERmandOne;startSize=10;;endArrow=ERmany;endSize=10;;exitX=0.0022527149745396207;exitY=0.671679147389603;entryX=0.564;entryY=0.01;rounded=0;entryDx=0;entryDy=0;entryPerimeter=0;" parent="1" source="jrHXLefe-VMUljtb0HfS-173" target="jrHXLefe-VMUljtb0HfS-189" edge="1">
          <mxGeometry relative="1" as="geometry">
            <Array as="points">
              <mxPoint x="128" y="330" />
            </Array>
          </mxGeometry>
        </mxCell>
        <mxCell id="jrHXLefe-VMUljtb0HfS-345" value="offers" style="curved=0;startArrow=ERmandOne;startSize=10;;endArrow=ERmany;endSize=10;;exitX=-0.0003958865328951999;exitY=0.7528896924374957;entryX=-0.004486864263361151;entryY=0.28673575596437634;rounded=0;" parent="1" source="jrHXLefe-VMUljtb0HfS-189" target="jrHXLefe-VMUljtb0HfS-205" edge="1">
          <mxGeometry relative="1" as="geometry">
            <Array as="points">
              <mxPoint x="-50" y="578" />
              <mxPoint x="-50" y="1090" />
            </Array>
          </mxGeometry>
        </mxCell>
        <mxCell id="jrHXLefe-VMUljtb0HfS-346" value="assigns" style="curved=0;startArrow=ERmandOne;startSize=10;;endArrow=ERmany;endSize=10;;exitX=-0.0003958865328951999;exitY=0.9852450361230289;entryX=0;entryY=0.5;rounded=0;entryDx=0;entryDy=0;" parent="1" source="jrHXLefe-VMUljtb0HfS-189" target="jrHXLefe-VMUljtb0HfS-249" edge="1">
          <mxGeometry relative="1" as="geometry">
            <Array as="points">
              <mxPoint x="60" y="910" />
            </Array>
          </mxGeometry>
        </mxCell>
        <mxCell id="jrHXLefe-VMUljtb0HfS-347" value="has" style="curved=0;startArrow=ERmandOne;startSize=10;;endArrow=ERmany;endSize=10;;exitX=0.49539595517245205;exitY=1.000000128585301;entryX=0.003050565719604492;entryY=0.2960201398618796;rounded=0;" parent="1" source="jrHXLefe-VMUljtb0HfS-205" target="jrHXLefe-VMUljtb0HfS-255" edge="1">
          <mxGeometry relative="1" as="geometry">
            <Array as="points">
              <mxPoint x="227" y="1370" />
            </Array>
          </mxGeometry>
        </mxCell>
        <mxCell id="jrHXLefe-VMUljtb0HfS-348" value="assigned" style="curved=0;startArrow=ERmandOne;startSize=10;;endArrow=ERmany;endSize=10;;exitX=-0.00167083740234375;exitY=0.9311742184731469;entryX=0.998076751941943;entryY=0.11159545329194019;rounded=0;" parent="1" source="jrHXLefe-VMUljtb0HfS-274" target="jrHXLefe-VMUljtb0HfS-227" edge="1">
          <mxGeometry relative="1" as="geometry">
            <Array as="points">
              <mxPoint x="590" y="611" />
              <mxPoint x="590" y="746" />
            </Array>
          </mxGeometry>
        </mxCell>
        <mxCell id="jrHXLefe-VMUljtb0HfS-349" value="teaches" style="curved=0;startArrow=ERmandOne;startSize=10;;endArrow=ERzeroToOne;endSize=10;;exitX=0.359;exitY=1.11;entryX=1;entryY=0.5;rounded=0;exitDx=0;exitDy=0;exitPerimeter=0;entryDx=0;entryDy=0;" parent="1" source="jrHXLefe-VMUljtb0HfS-252" target="jrHXLefe-VMUljtb0HfS-209" edge="1">
          <mxGeometry relative="1" as="geometry">
            <Array as="points">
              <mxPoint x="400" y="1100" />
            </Array>
          </mxGeometry>
        </mxCell>
        <mxCell id="jrHXLefe-VMUljtb0HfS-350" value="belongs" style="curved=0;startArrow=ERmandOne;startSize=10;;endArrow=ERmany;endSize=10;;exitX=0.6173229753925589;exitY=-0.0009008527876020551;entryX=0.9973509676821597;entryY=0.7496629202948163;rounded=0;" parent="1" source="jrHXLefe-VMUljtb0HfS-227" target="jrHXLefe-VMUljtb0HfS-189" edge="1">
          <mxGeometry relative="1" as="geometry">
            <Array as="points">
              <mxPoint x="434" y="577" />
            </Array>
          </mxGeometry>
        </mxCell>
        <mxCell id="jrHXLefe-VMUljtb0HfS-351" value="instructs" style="curved=0;startArrow=ERmandOne;startSize=10;;endArrow=ERmany;endSize=10;;exitX=0.48509289925558524;exitY=0.998718017186874;entryX=1;entryY=0.5;rounded=0;entryDx=0;entryDy=0;" parent="1" source="jrHXLefe-VMUljtb0HfS-274" target="jrHXLefe-VMUljtb0HfS-262" edge="1">
          <mxGeometry relative="1" as="geometry">
            <Array as="points">
              <mxPoint x="665" y="1399" />
            </Array>
          </mxGeometry>
        </mxCell>
        <mxCell id="jrHXLefe-VMUljtb0HfS-352" value="enrolls" style="curved=0;startArrow=ERmandOne;startSize=10;;endArrow=ERmany;endSize=10;;exitX=0.57;exitY=1.018;rounded=0;entryX=0.8;entryY=-0.009;entryDx=0;entryDy=0;entryPerimeter=0;exitDx=0;exitDy=0;exitPerimeter=0;" parent="1" source="jrHXLefe-VMUljtb0HfS-312" target="jrHXLefe-VMUljtb0HfS-255" edge="1">
          <mxGeometry relative="1" as="geometry">
            <Array as="points" />
            <mxPoint x="496" y="1300" as="targetPoint" />
          </mxGeometry>
        </mxCell>
        <mxCell id="jrHXLefe-VMUljtb0HfS-353" value="includes" style="curved=0;startArrow=ERmandOne;startSize=10;;endArrow=ERmany;endSize=10;;exitX=0.4998828194358132;exitY=0.9955225133184177;rounded=0;" parent="1" source="jrHXLefe-VMUljtb0HfS-315" edge="1">
          <mxGeometry relative="1" as="geometry">
            <Array as="points" />
            <mxPoint x="200" y="1040" as="targetPoint" />
          </mxGeometry>
        </mxCell>
        <mxCell id="jrHXLefe-VMUljtb0HfS-354" value="offers" style="curved=0;startArrow=ERmandOne;startSize=10;;endArrow=ERmany;endSize=10;;exitX=0.45686255924693153;exitY=0.9985075423966593;entryX=0.584880024407774;entryY=-0.0014924576033407183;rounded=0;" parent="1" source="jrHXLefe-VMUljtb0HfS-189" target="jrHXLefe-VMUljtb0HfS-315" edge="1">
          <mxGeometry relative="1" as="geometry">
            <Array as="points">
              <mxPoint x="115" y="670" />
              <mxPoint x="207" y="671" />
            </Array>
          </mxGeometry>
        </mxCell>
        <mxCell id="jrHXLefe-VMUljtb0HfS-355" value="employs" style="curved=0;startArrow=ERmandOne;startSize=10;;endArrow=ERmany;endSize=10;;exitX=0.991;exitY=1.037;entryX=0.583;entryY=0.015;rounded=0;exitDx=0;exitDy=0;exitPerimeter=0;entryDx=0;entryDy=0;entryPerimeter=0;" parent="1" source="jrHXLefe-VMUljtb0HfS-180" target="jrHXLefe-VMUljtb0HfS-274" edge="1">
          <mxGeometry relative="1" as="geometry">
            <Array as="points">
              <mxPoint x="680" y="330" />
            </Array>
          </mxGeometry>
        </mxCell>
        <mxCell id="jrHXLefe-VMUljtb0HfS-356" value="manages" style="curved=1;startArrow=ERmandOne;startSize=10;;endArrow=ERmany;endSize=10;;exitX=0.4979414558410645;exitY=0.9964285578046527;entryX=0.5;entryY=0;rounded=0;entryDx=0;entryDy=0;" parent="1" source="jrHXLefe-VMUljtb0HfS-331" target="jrHXLefe-VMUljtb0HfS-173" edge="1">
          <mxGeometry relative="1" as="geometry">
            <Array as="points" />
          </mxGeometry>
        </mxCell>
        <mxCell id="jrHXLefe-VMUljtb0HfS-357" value="CollegeStaff" style="shape=table;startSize=25;container=1;collapsible=0;childLayout=tableLayout;fixedRows=1;rowLines=1;fontStyle=1;align=center;resizeLast=1;fillColor=#dae8fc;strokeColor=#6c8ebf;" parent="1" vertex="1">
          <mxGeometry x="580" y="130" width="126" height="135" as="geometry" />
        </mxCell>
        <mxCell id="jrHXLefe-VMUljtb0HfS-358" style="shape=tableRow;horizontal=0;startSize=0;swimlaneHead=0;swimlaneBody=0;fillColor=none;collapsible=0;dropTarget=0;points=[[0,0.5],[1,0.5]];portConstraint=eastwest;top=0;left=0;right=0;bottom=0;" parent="jrHXLefe-VMUljtb0HfS-357" vertex="1">
          <mxGeometry y="25" width="126" height="22" as="geometry" />
        </mxCell>
        <mxCell id="jrHXLefe-VMUljtb0HfS-359" value="PK" style="shape=partialRectangle;connectable=0;fillColor=none;top=0;left=0;bottom=0;right=0;align=left;spacingLeft=2;overflow=hidden;fontSize=11;" parent="jrHXLefe-VMUljtb0HfS-358" vertex="1">
          <mxGeometry width="36" height="22" as="geometry">
            <mxRectangle width="36" height="22" as="alternateBounds" />
          </mxGeometry>
        </mxCell>
        <mxCell id="jrHXLefe-VMUljtb0HfS-360" value="StaffID" style="shape=partialRectangle;connectable=0;fillColor=none;top=0;left=0;bottom=0;right=0;align=left;spacingLeft=2;overflow=hidden;fontSize=11;fontStyle=5" parent="jrHXLefe-VMUljtb0HfS-358" vertex="1">
          <mxGeometry x="36" width="90" height="22" as="geometry">
            <mxRectangle width="90" height="22" as="alternateBounds" />
          </mxGeometry>
        </mxCell>
        <mxCell id="jrHXLefe-VMUljtb0HfS-361" style="shape=tableRow;horizontal=0;startSize=0;swimlaneHead=0;swimlaneBody=0;fillColor=none;collapsible=0;dropTarget=0;points=[[0,0.5],[1,0.5]];portConstraint=eastwest;top=0;left=0;right=0;bottom=0;" parent="jrHXLefe-VMUljtb0HfS-357" vertex="1">
          <mxGeometry y="47" width="126" height="22" as="geometry" />
        </mxCell>
        <mxCell id="jrHXLefe-VMUljtb0HfS-362" value="" style="shape=partialRectangle;connectable=0;fillColor=none;top=0;left=0;bottom=0;right=0;align=left;spacingLeft=2;overflow=hidden;fontSize=11;" parent="jrHXLefe-VMUljtb0HfS-361" vertex="1">
          <mxGeometry width="36" height="22" as="geometry">
            <mxRectangle width="36" height="22" as="alternateBounds" />
          </mxGeometry>
        </mxCell>
        <mxCell id="jrHXLefe-VMUljtb0HfS-363" value="Name" style="shape=partialRectangle;connectable=0;fillColor=none;top=0;left=0;bottom=0;right=0;align=left;spacingLeft=2;overflow=hidden;fontSize=11;" parent="jrHXLefe-VMUljtb0HfS-361" vertex="1">
          <mxGeometry x="36" width="90" height="22" as="geometry">
            <mxRectangle width="90" height="22" as="alternateBounds" />
          </mxGeometry>
        </mxCell>
        <mxCell id="jrHXLefe-VMUljtb0HfS-364" style="shape=tableRow;horizontal=0;startSize=0;swimlaneHead=0;swimlaneBody=0;fillColor=none;collapsible=0;dropTarget=0;points=[[0,0.5],[1,0.5]];portConstraint=eastwest;top=0;left=0;right=0;bottom=0;" parent="jrHXLefe-VMUljtb0HfS-357" vertex="1">
          <mxGeometry y="69" width="126" height="22" as="geometry" />
        </mxCell>
        <mxCell id="jrHXLefe-VMUljtb0HfS-365" value="" style="shape=partialRectangle;connectable=0;fillColor=none;top=0;left=0;bottom=0;right=0;align=left;spacingLeft=2;overflow=hidden;fontSize=11;" parent="jrHXLefe-VMUljtb0HfS-364" vertex="1">
          <mxGeometry width="36" height="22" as="geometry">
            <mxRectangle width="36" height="22" as="alternateBounds" />
          </mxGeometry>
        </mxCell>
        <mxCell id="jrHXLefe-VMUljtb0HfS-366" value="Address" style="shape=partialRectangle;connectable=0;fillColor=none;top=0;left=0;bottom=0;right=0;align=left;spacingLeft=2;overflow=hidden;fontSize=11;" parent="jrHXLefe-VMUljtb0HfS-364" vertex="1">
          <mxGeometry x="36" width="90" height="22" as="geometry">
            <mxRectangle width="90" height="22" as="alternateBounds" />
          </mxGeometry>
        </mxCell>
        <mxCell id="jrHXLefe-VMUljtb0HfS-367" style="shape=tableRow;horizontal=0;startSize=0;swimlaneHead=0;swimlaneBody=0;fillColor=none;collapsible=0;dropTarget=0;points=[[0,0.5],[1,0.5]];portConstraint=eastwest;top=0;left=0;right=0;bottom=0;" parent="jrHXLefe-VMUljtb0HfS-357" vertex="1">
          <mxGeometry y="91" width="126" height="22" as="geometry" />
        </mxCell>
        <mxCell id="jrHXLefe-VMUljtb0HfS-368" value="" style="shape=partialRectangle;connectable=0;fillColor=none;top=0;left=0;bottom=0;right=0;align=left;spacingLeft=2;overflow=hidden;fontSize=11;" parent="jrHXLefe-VMUljtb0HfS-367" vertex="1">
          <mxGeometry width="36" height="22" as="geometry">
            <mxRectangle width="36" height="22" as="alternateBounds" />
          </mxGeometry>
        </mxCell>
        <mxCell id="jrHXLefe-VMUljtb0HfS-369" value="Role" style="shape=partialRectangle;connectable=0;fillColor=none;top=0;left=0;bottom=0;right=0;align=left;spacingLeft=2;overflow=hidden;fontSize=11;" parent="jrHXLefe-VMUljtb0HfS-367" vertex="1">
          <mxGeometry x="36" width="90" height="22" as="geometry">
            <mxRectangle width="90" height="22" as="alternateBounds" />
          </mxGeometry>
        </mxCell>
        <mxCell id="jrHXLefe-VMUljtb0HfS-370" style="shape=tableRow;horizontal=0;startSize=0;swimlaneHead=0;swimlaneBody=0;fillColor=none;collapsible=0;dropTarget=0;points=[[0,0.5],[1,0.5]];portConstraint=eastwest;top=0;left=0;right=0;bottom=0;" parent="jrHXLefe-VMUljtb0HfS-357" vertex="1">
          <mxGeometry y="113" width="126" height="22" as="geometry" />
        </mxCell>
        <mxCell id="jrHXLefe-VMUljtb0HfS-371" value="FK" style="shape=partialRectangle;connectable=0;fillColor=none;top=0;left=0;bottom=0;right=0;align=left;spacingLeft=2;overflow=hidden;fontSize=11;" parent="jrHXLefe-VMUljtb0HfS-370" vertex="1">
          <mxGeometry width="36" height="22" as="geometry">
            <mxRectangle width="36" height="22" as="alternateBounds" />
          </mxGeometry>
        </mxCell>
        <mxCell id="jrHXLefe-VMUljtb0HfS-372" value="CollegeID" style="shape=partialRectangle;connectable=0;fillColor=none;top=0;left=0;bottom=0;right=0;align=left;spacingLeft=2;overflow=hidden;fontSize=11;fontStyle=0" parent="jrHXLefe-VMUljtb0HfS-370" vertex="1">
          <mxGeometry x="36" width="90" height="22" as="geometry">
            <mxRectangle width="90" height="22" as="alternateBounds" />
          </mxGeometry>
        </mxCell>
        <mxCell id="jrHXLefe-VMUljtb0HfS-373" value="belong" style="curved=0;startArrow=ERmandOne;startSize=10;;endArrow=ERmany;endSize=10;;entryX=-0.02;entryY=0.102;rounded=0;entryDx=0;entryDy=0;entryPerimeter=0;exitX=0.831;exitY=-0.001;exitDx=0;exitDy=0;exitPerimeter=0;" parent="1" source="jrHXLefe-VMUljtb0HfS-173" target="jrHXLefe-VMUljtb0HfS-364" edge="1">
          <mxGeometry relative="1" as="geometry">
            <Array as="points">
              <mxPoint x="402" y="200" />
              <mxPoint x="500" y="200" />
            </Array>
            <mxPoint x="430" y="140" as="sourcePoint" />
            <mxPoint x="490" y="307" as="targetPoint" />
          </mxGeometry>
        </mxCell>
        <mxCell id="jrHXLefe-VMUljtb0HfS-374" value="manage" style="curved=0;startArrow=ERmandOne;startSize=10;;endArrow=ERmany;endSize=10;;entryX=1.01;entryY=0.084;rounded=0;entryDx=0;entryDy=0;entryPerimeter=0;exitX=1.02;exitY=0.043;exitDx=0;exitDy=0;exitPerimeter=0;" parent="1" source="jrHXLefe-VMUljtb0HfS-364" target="jrHXLefe-VMUljtb0HfS-271" edge="1">
          <mxGeometry relative="1" as="geometry">
            <Array as="points">
              <mxPoint x="850" y="200" />
              <mxPoint x="850" y="1457" />
            </Array>
            <mxPoint x="840" y="180" as="sourcePoint" />
            <mxPoint x="1015" y="141" as="targetPoint" />
          </mxGeometry>
        </mxCell>
        <mxCell id="jrHXLefe-VMUljtb0HfS-375" value="manage" style="curved=0;startArrow=ERmandOne;startSize=10;;endArrow=ERmany;endSize=10;;entryX=1.001;entryY=0.038;rounded=0;entryDx=0;entryDy=0;exitX=-0.002;exitY=1.263;exitDx=0;exitDy=0;exitPerimeter=0;entryPerimeter=0;" parent="1" source="jrHXLefe-VMUljtb0HfS-367" target="jrHXLefe-VMUljtb0HfS-315" edge="1">
          <mxGeometry relative="1" as="geometry">
            <Array as="points">
              <mxPoint x="510" y="250" />
              <mxPoint x="510" y="700" />
            </Array>
            <mxPoint x="400" y="470" as="sourcePoint" />
            <mxPoint x="575" y="431" as="targetPoint" />
          </mxGeometry>
        </mxCell>
        <mxCell id="J-6z406w2P_gFmTKcNu2-1" value="Users" style="shape=table;startSize=25;container=1;collapsible=0;childLayout=tableLayout;fixedRows=1;rowLines=1;fontStyle=1;align=center;resizeLast=1;fillColor=#dae8fc;strokeColor=#6c8ebf;" vertex="1" parent="1">
          <mxGeometry x="709" y="-135" width="100" height="135" as="geometry" />
        </mxCell>
        <mxCell id="J-6z406w2P_gFmTKcNu2-2" style="shape=tableRow;horizontal=0;startSize=0;swimlaneHead=0;swimlaneBody=0;fillColor=none;collapsible=0;dropTarget=0;points=[[0,0.5],[1,0.5]];portConstraint=eastwest;top=0;left=0;right=0;bottom=0;" vertex="1" parent="J-6z406w2P_gFmTKcNu2-1">
          <mxGeometry y="25" width="100" height="22" as="geometry" />
        </mxCell>
        <mxCell id="J-6z406w2P_gFmTKcNu2-3" value="PK" style="shape=partialRectangle;connectable=0;fillColor=none;top=0;left=0;bottom=0;right=0;align=left;spacingLeft=2;overflow=hidden;fontSize=11;fontStyle=1" vertex="1" parent="J-6z406w2P_gFmTKcNu2-2">
          <mxGeometry width="36" height="22" as="geometry">
            <mxRectangle width="36" height="22" as="alternateBounds" />
          </mxGeometry>
        </mxCell>
        <mxCell id="J-6z406w2P_gFmTKcNu2-4" value="UserID" style="shape=partialRectangle;connectable=0;fillColor=none;top=0;left=0;bottom=0;right=0;align=left;spacingLeft=2;overflow=hidden;fontSize=11;fontStyle=5" vertex="1" parent="J-6z406w2P_gFmTKcNu2-2">
          <mxGeometry x="36" width="64" height="22" as="geometry">
            <mxRectangle width="64" height="22" as="alternateBounds" />
          </mxGeometry>
        </mxCell>
        <mxCell id="J-6z406w2P_gFmTKcNu2-5" style="shape=tableRow;horizontal=0;startSize=0;swimlaneHead=0;swimlaneBody=0;fillColor=none;collapsible=0;dropTarget=0;points=[[0,0.5],[1,0.5]];portConstraint=eastwest;top=0;left=0;right=0;bottom=0;" vertex="1" parent="J-6z406w2P_gFmTKcNu2-1">
          <mxGeometry y="47" width="100" height="22" as="geometry" />
        </mxCell>
        <mxCell id="J-6z406w2P_gFmTKcNu2-6" value="" style="shape=partialRectangle;connectable=0;fillColor=none;top=0;left=0;bottom=0;right=0;align=left;spacingLeft=2;overflow=hidden;fontSize=11;" vertex="1" parent="J-6z406w2P_gFmTKcNu2-5">
          <mxGeometry width="36" height="22" as="geometry">
            <mxRectangle width="36" height="22" as="alternateBounds" />
          </mxGeometry>
        </mxCell>
        <mxCell id="J-6z406w2P_gFmTKcNu2-7" value="Username" style="shape=partialRectangle;connectable=0;fillColor=none;top=0;left=0;bottom=0;right=0;align=left;spacingLeft=2;overflow=hidden;fontSize=11;" vertex="1" parent="J-6z406w2P_gFmTKcNu2-5">
          <mxGeometry x="36" width="64" height="22" as="geometry">
            <mxRectangle width="64" height="22" as="alternateBounds" />
          </mxGeometry>
        </mxCell>
        <mxCell id="J-6z406w2P_gFmTKcNu2-8" style="shape=tableRow;horizontal=0;startSize=0;swimlaneHead=0;swimlaneBody=0;fillColor=none;collapsible=0;dropTarget=0;points=[[0,0.5],[1,0.5]];portConstraint=eastwest;top=0;left=0;right=0;bottom=0;" vertex="1" parent="J-6z406w2P_gFmTKcNu2-1">
          <mxGeometry y="69" width="100" height="22" as="geometry" />
        </mxCell>
        <mxCell id="J-6z406w2P_gFmTKcNu2-9" value="" style="shape=partialRectangle;connectable=0;fillColor=none;top=0;left=0;bottom=0;right=0;align=left;spacingLeft=2;overflow=hidden;fontSize=11;" vertex="1" parent="J-6z406w2P_gFmTKcNu2-8">
          <mxGeometry width="36" height="22" as="geometry">
            <mxRectangle width="36" height="22" as="alternateBounds" />
          </mxGeometry>
        </mxCell>
        <mxCell id="J-6z406w2P_gFmTKcNu2-10" value="Email" style="shape=partialRectangle;connectable=0;fillColor=none;top=0;left=0;bottom=0;right=0;align=left;spacingLeft=2;overflow=hidden;fontSize=11;" vertex="1" parent="J-6z406w2P_gFmTKcNu2-8">
          <mxGeometry x="36" width="64" height="22" as="geometry">
            <mxRectangle width="64" height="22" as="alternateBounds" />
          </mxGeometry>
        </mxCell>
        <mxCell id="J-6z406w2P_gFmTKcNu2-11" style="shape=tableRow;horizontal=0;startSize=0;swimlaneHead=0;swimlaneBody=0;fillColor=none;collapsible=0;dropTarget=0;points=[[0,0.5],[1,0.5]];portConstraint=eastwest;top=0;left=0;right=0;bottom=0;" vertex="1" parent="J-6z406w2P_gFmTKcNu2-1">
          <mxGeometry y="91" width="100" height="22" as="geometry" />
        </mxCell>
        <mxCell id="J-6z406w2P_gFmTKcNu2-12" value="" style="shape=partialRectangle;connectable=0;fillColor=none;top=0;left=0;bottom=0;right=0;align=left;spacingLeft=2;overflow=hidden;fontSize=11;" vertex="1" parent="J-6z406w2P_gFmTKcNu2-11">
          <mxGeometry width="36" height="22" as="geometry">
            <mxRectangle width="36" height="22" as="alternateBounds" />
          </mxGeometry>
        </mxCell>
        <mxCell id="J-6z406w2P_gFmTKcNu2-13" value="RoleID" style="shape=partialRectangle;connectable=0;fillColor=none;top=0;left=0;bottom=0;right=0;align=left;spacingLeft=2;overflow=hidden;fontSize=11;" vertex="1" parent="J-6z406w2P_gFmTKcNu2-11">
          <mxGeometry x="36" width="64" height="22" as="geometry">
            <mxRectangle width="64" height="22" as="alternateBounds" />
          </mxGeometry>
        </mxCell>
        <mxCell id="J-6z406w2P_gFmTKcNu2-14" style="shape=tableRow;horizontal=0;startSize=0;swimlaneHead=0;swimlaneBody=0;fillColor=none;collapsible=0;dropTarget=0;points=[[0,0.5],[1,0.5]];portConstraint=eastwest;top=0;left=0;right=0;bottom=0;" vertex="1" parent="J-6z406w2P_gFmTKcNu2-1">
          <mxGeometry y="113" width="100" height="22" as="geometry" />
        </mxCell>
        <mxCell id="J-6z406w2P_gFmTKcNu2-15" value="FK" style="shape=partialRectangle;connectable=0;fillColor=none;top=0;left=0;bottom=0;right=0;align=left;spacingLeft=2;overflow=hidden;fontSize=11;fontStyle=1" vertex="1" parent="J-6z406w2P_gFmTKcNu2-14">
          <mxGeometry width="36" height="22" as="geometry">
            <mxRectangle width="36" height="22" as="alternateBounds" />
          </mxGeometry>
        </mxCell>
        <mxCell id="J-6z406w2P_gFmTKcNu2-16" value="CollegeID" style="shape=partialRectangle;connectable=0;fillColor=none;top=0;left=0;bottom=0;right=0;align=left;spacingLeft=2;overflow=hidden;fontSize=11;" vertex="1" parent="J-6z406w2P_gFmTKcNu2-14">
          <mxGeometry x="36" width="64" height="22" as="geometry">
            <mxRectangle width="64" height="22" as="alternateBounds" />
          </mxGeometry>
        </mxCell>
        <mxCell id="J-6z406w2P_gFmTKcNu2-17" value="Roles" style="shape=table;startSize=25;container=1;collapsible=0;childLayout=tableLayout;fixedRows=1;rowLines=1;fontStyle=1;align=center;resizeLast=1;fillColor=#dae8fc;strokeColor=#6c8ebf;" vertex="1" parent="1">
          <mxGeometry x="900" y="-360" width="100" height="68" as="geometry" />
        </mxCell>
        <mxCell id="J-6z406w2P_gFmTKcNu2-18" style="shape=tableRow;horizontal=0;startSize=0;swimlaneHead=0;swimlaneBody=0;fillColor=none;collapsible=0;dropTarget=0;points=[[0,0.5],[1,0.5]];portConstraint=eastwest;top=0;left=0;right=0;bottom=0;" vertex="1" parent="J-6z406w2P_gFmTKcNu2-17">
          <mxGeometry y="25" width="100" height="21" as="geometry" />
        </mxCell>
        <mxCell id="J-6z406w2P_gFmTKcNu2-19" value="PK" style="shape=partialRectangle;connectable=0;fillColor=none;top=0;left=0;bottom=0;right=0;align=left;spacingLeft=2;overflow=hidden;fontSize=11;" vertex="1" parent="J-6z406w2P_gFmTKcNu2-18">
          <mxGeometry width="36" height="21" as="geometry">
            <mxRectangle width="36" height="21" as="alternateBounds" />
          </mxGeometry>
        </mxCell>
        <mxCell id="J-6z406w2P_gFmTKcNu2-20" value="RoleID" style="shape=partialRectangle;connectable=0;fillColor=none;top=0;left=0;bottom=0;right=0;align=left;spacingLeft=2;overflow=hidden;fontSize=11;fontStyle=5" vertex="1" parent="J-6z406w2P_gFmTKcNu2-18">
          <mxGeometry x="36" width="64" height="21" as="geometry">
            <mxRectangle width="64" height="21" as="alternateBounds" />
          </mxGeometry>
        </mxCell>
        <mxCell id="J-6z406w2P_gFmTKcNu2-21" style="shape=tableRow;horizontal=0;startSize=0;swimlaneHead=0;swimlaneBody=0;fillColor=none;collapsible=0;dropTarget=0;points=[[0,0.5],[1,0.5]];portConstraint=eastwest;top=0;left=0;right=0;bottom=0;" vertex="1" parent="J-6z406w2P_gFmTKcNu2-17">
          <mxGeometry y="46" width="100" height="21" as="geometry" />
        </mxCell>
        <mxCell id="J-6z406w2P_gFmTKcNu2-22" value="" style="shape=partialRectangle;connectable=0;fillColor=none;top=0;left=0;bottom=0;right=0;align=left;spacingLeft=2;overflow=hidden;fontSize=11;" vertex="1" parent="J-6z406w2P_gFmTKcNu2-21">
          <mxGeometry width="36" height="21" as="geometry">
            <mxRectangle width="36" height="21" as="alternateBounds" />
          </mxGeometry>
        </mxCell>
        <mxCell id="J-6z406w2P_gFmTKcNu2-23" value="RoleName" style="shape=partialRectangle;connectable=0;fillColor=none;top=0;left=0;bottom=0;right=0;align=left;spacingLeft=2;overflow=hidden;fontSize=11;" vertex="1" parent="J-6z406w2P_gFmTKcNu2-21">
          <mxGeometry x="36" width="64" height="21" as="geometry">
            <mxRectangle width="64" height="21" as="alternateBounds" />
          </mxGeometry>
        </mxCell>
        <mxCell id="J-6z406w2P_gFmTKcNu2-24" value="Credentials" style="shape=table;startSize=25;container=1;collapsible=0;childLayout=tableLayout;fixedRows=1;rowLines=1;fontStyle=1;align=center;resizeLast=1;fillColor=#dae8fc;strokeColor=#6c8ebf;" vertex="1" parent="1">
          <mxGeometry x="504" y="-360" width="108" height="113" as="geometry" />
        </mxCell>
        <mxCell id="J-6z406w2P_gFmTKcNu2-25" style="shape=tableRow;horizontal=0;startSize=0;swimlaneHead=0;swimlaneBody=0;fillColor=none;collapsible=0;dropTarget=0;points=[[0,0.5],[1,0.5]];portConstraint=eastwest;top=0;left=0;right=0;bottom=0;" vertex="1" parent="J-6z406w2P_gFmTKcNu2-24">
          <mxGeometry y="25" width="108" height="22" as="geometry" />
        </mxCell>
        <mxCell id="J-6z406w2P_gFmTKcNu2-26" value="PK" style="shape=partialRectangle;connectable=0;fillColor=none;top=0;left=0;bottom=0;right=0;align=left;spacingLeft=2;overflow=hidden;fontSize=11;fontStyle=1" vertex="1" parent="J-6z406w2P_gFmTKcNu2-25">
          <mxGeometry width="36" height="22" as="geometry">
            <mxRectangle width="36" height="22" as="alternateBounds" />
          </mxGeometry>
        </mxCell>
        <mxCell id="J-6z406w2P_gFmTKcNu2-27" value="CredentialID" style="shape=partialRectangle;connectable=0;fillColor=none;top=0;left=0;bottom=0;right=0;align=left;spacingLeft=2;overflow=hidden;fontSize=11;fontStyle=5" vertex="1" parent="J-6z406w2P_gFmTKcNu2-25">
          <mxGeometry x="36" width="72" height="22" as="geometry">
            <mxRectangle width="72" height="22" as="alternateBounds" />
          </mxGeometry>
        </mxCell>
        <mxCell id="J-6z406w2P_gFmTKcNu2-28" style="shape=tableRow;horizontal=0;startSize=0;swimlaneHead=0;swimlaneBody=0;fillColor=none;collapsible=0;dropTarget=0;points=[[0,0.5],[1,0.5]];portConstraint=eastwest;top=0;left=0;right=0;bottom=0;" vertex="1" parent="J-6z406w2P_gFmTKcNu2-24">
          <mxGeometry y="47" width="108" height="22" as="geometry" />
        </mxCell>
        <mxCell id="J-6z406w2P_gFmTKcNu2-29" value="FK" style="shape=partialRectangle;connectable=0;fillColor=none;top=0;left=0;bottom=0;right=0;align=left;spacingLeft=2;overflow=hidden;fontSize=11;fontStyle=1" vertex="1" parent="J-6z406w2P_gFmTKcNu2-28">
          <mxGeometry width="36" height="22" as="geometry">
            <mxRectangle width="36" height="22" as="alternateBounds" />
          </mxGeometry>
        </mxCell>
        <mxCell id="J-6z406w2P_gFmTKcNu2-30" value="UserID" style="shape=partialRectangle;connectable=0;fillColor=none;top=0;left=0;bottom=0;right=0;align=left;spacingLeft=2;overflow=hidden;fontSize=11;" vertex="1" parent="J-6z406w2P_gFmTKcNu2-28">
          <mxGeometry x="36" width="72" height="22" as="geometry">
            <mxRectangle width="72" height="22" as="alternateBounds" />
          </mxGeometry>
        </mxCell>
        <mxCell id="J-6z406w2P_gFmTKcNu2-31" style="shape=tableRow;horizontal=0;startSize=0;swimlaneHead=0;swimlaneBody=0;fillColor=none;collapsible=0;dropTarget=0;points=[[0,0.5],[1,0.5]];portConstraint=eastwest;top=0;left=0;right=0;bottom=0;" vertex="1" parent="J-6z406w2P_gFmTKcNu2-24">
          <mxGeometry y="69" width="108" height="22" as="geometry" />
        </mxCell>
        <mxCell id="J-6z406w2P_gFmTKcNu2-32" value="" style="shape=partialRectangle;connectable=0;fillColor=none;top=0;left=0;bottom=0;right=0;align=left;spacingLeft=2;overflow=hidden;fontSize=11;" vertex="1" parent="J-6z406w2P_gFmTKcNu2-31">
          <mxGeometry width="36" height="22" as="geometry">
            <mxRectangle width="36" height="22" as="alternateBounds" />
          </mxGeometry>
        </mxCell>
        <mxCell id="J-6z406w2P_gFmTKcNu2-33" value="Password" style="shape=partialRectangle;connectable=0;fillColor=none;top=0;left=0;bottom=0;right=0;align=left;spacingLeft=2;overflow=hidden;fontSize=11;" vertex="1" parent="J-6z406w2P_gFmTKcNu2-31">
          <mxGeometry x="36" width="72" height="22" as="geometry">
            <mxRectangle width="72" height="22" as="alternateBounds" />
          </mxGeometry>
        </mxCell>
        <mxCell id="J-6z406w2P_gFmTKcNu2-67" style="shape=tableRow;horizontal=0;startSize=0;swimlaneHead=0;swimlaneBody=0;fillColor=none;collapsible=0;dropTarget=0;points=[[0,0.5],[1,0.5]];portConstraint=eastwest;top=0;left=0;right=0;bottom=0;" vertex="1" parent="J-6z406w2P_gFmTKcNu2-24">
          <mxGeometry y="91" width="108" height="22" as="geometry" />
        </mxCell>
        <mxCell id="J-6z406w2P_gFmTKcNu2-68" value="FK" style="shape=partialRectangle;connectable=0;fillColor=none;top=0;left=0;bottom=0;right=0;align=left;spacingLeft=2;overflow=hidden;fontSize=11;fontStyle=1" vertex="1" parent="J-6z406w2P_gFmTKcNu2-67">
          <mxGeometry width="36" height="22" as="geometry">
            <mxRectangle width="36" height="22" as="alternateBounds" />
          </mxGeometry>
        </mxCell>
        <mxCell id="J-6z406w2P_gFmTKcNu2-69" value="AdminID " style="shape=partialRectangle;connectable=0;fillColor=none;top=0;left=0;bottom=0;right=0;align=left;spacingLeft=2;overflow=hidden;fontSize=11;" vertex="1" parent="J-6z406w2P_gFmTKcNu2-67">
          <mxGeometry x="36" width="72" height="22" as="geometry">
            <mxRectangle width="72" height="22" as="alternateBounds" />
          </mxGeometry>
        </mxCell>
        <mxCell id="J-6z406w2P_gFmTKcNu2-34" value="has" style="curved=0;startArrow=ERmandOne;startSize=10;;endArrow=ERmany;endSize=10;;rounded=0;entryX=0;entryY=0.5;entryDx=0;entryDy=0;exitX=0.364;exitY=0.002;exitDx=0;exitDy=0;exitPerimeter=0;" edge="1" parent="1" source="J-6z406w2P_gFmTKcNu2-1" target="J-6z406w2P_gFmTKcNu2-18">
          <mxGeometry relative="1" as="geometry">
            <Array as="points">
              <mxPoint x="745" y="-169" />
              <mxPoint x="870" y="-324" />
            </Array>
            <mxPoint x="737" y="-129" as="sourcePoint" />
            <mxPoint x="597" y="-59" as="targetPoint" />
          </mxGeometry>
        </mxCell>
        <mxCell id="J-6z406w2P_gFmTKcNu2-35" value="has" style="curved=0;startArrow=ERmandOne;startSize=10;;endArrow=ERmany;endSize=10;;exitX=0.17;exitY=0.003;entryX=1;entryY=0.5;rounded=0;entryDx=0;entryDy=0;exitDx=0;exitDy=0;exitPerimeter=0;" edge="1" parent="1" source="J-6z406w2P_gFmTKcNu2-1" target="J-6z406w2P_gFmTKcNu2-28">
          <mxGeometry relative="1" as="geometry">
            <Array as="points">
              <mxPoint x="726" y="-170" />
              <mxPoint x="650" y="-300" />
            </Array>
          </mxGeometry>
        </mxCell>
        <mxCell id="J-6z406w2P_gFmTKcNu2-36" value="belongs to" style="curved=0;startArrow=ERmandOne;startSize=10;;endArrow=ERmany;endSize=10;;exitX=1;exitY=0.5;rounded=0;exitDx=0;exitDy=0;" edge="1" parent="1" source="jrHXLefe-VMUljtb0HfS-174">
          <mxGeometry relative="1" as="geometry">
            <Array as="points">
              <mxPoint x="480" y="276" />
              <mxPoint x="477" y="-61" />
            </Array>
            <mxPoint x="433" y="240" as="sourcePoint" />
            <mxPoint x="707" y="-60.77775065104167" as="targetPoint" />
          </mxGeometry>
        </mxCell>
        <mxCell id="J-6z406w2P_gFmTKcNu2-37" value="" style="edgeStyle=entityRelationEdgeStyle;fontSize=12;html=1;endArrow=ERmandOne;startArrow=ERmandOne;rounded=0;exitX=1.012;exitY=0.176;exitDx=0;exitDy=0;exitPerimeter=0;entryX=-0.015;entryY=0.286;entryDx=0;entryDy=0;entryPerimeter=0;" edge="1" parent="1" source="jrHXLefe-VMUljtb0HfS-332" target="J-6z406w2P_gFmTKcNu2-25">
          <mxGeometry width="100" height="100" relative="1" as="geometry">
            <mxPoint x="399" y="35.003999999999834" as="sourcePoint" />
            <mxPoint x="450" y="-310" as="targetPoint" />
            <Array as="points">
              <mxPoint x="366.5" y="-58.33" />
              <mxPoint x="446.5" y="-238.33" />
              <mxPoint x="399" y="-320" />
              <mxPoint x="366.5" y="-28.33" />
              <mxPoint x="436.5" y="-325.33" />
              <mxPoint x="426.5" y="-328.33" />
              <mxPoint x="366.5" y="-168.33" />
              <mxPoint x="356.5" y="-128.33" />
              <mxPoint x="386.5" y="-8.33" />
              <mxPoint x="356.5" y="-28.33" />
              <mxPoint x="386.5" y="1.67" />
              <mxPoint x="356.5" y="5.67" />
              <mxPoint x="356.5" y="-24.33" />
              <mxPoint x="356.5" y="-24.33" />
              <mxPoint x="329" y="-41.28" />
              <mxPoint x="349" y="-141.28" />
            </Array>
          </mxGeometry>
        </mxCell>
        <mxCell id="J-6z406w2P_gFmTKcNu2-38" value="have" style="edgeLabel;html=1;align=center;verticalAlign=middle;resizable=0;points=[];" vertex="1" connectable="0" parent="J-6z406w2P_gFmTKcNu2-37">
          <mxGeometry x="0.0013" y="-1" relative="1" as="geometry">
            <mxPoint as="offset" />
          </mxGeometry>
        </mxCell>
        <mxCell id="J-6z406w2P_gFmTKcNu2-42" value="AdminDashboard" style="shape=table;startSize=25;container=1;collapsible=0;childLayout=tableLayout;fixedRows=1;rowLines=1;fontStyle=1;align=center;resizeLast=1;fillColor=#dae8fc;strokeColor=#6c8ebf;" vertex="1" parent="1">
          <mxGeometry x="50" y="10" width="150" height="155" as="geometry" />
        </mxCell>
        <mxCell id="J-6z406w2P_gFmTKcNu2-43" style="shape=tableRow;horizontal=0;startSize=0;swimlaneHead=0;swimlaneBody=0;fillColor=none;collapsible=0;dropTarget=0;points=[[0,0.5],[1,0.5]];portConstraint=eastwest;top=0;left=0;right=0;bottom=0;" vertex="1" parent="J-6z406w2P_gFmTKcNu2-42">
          <mxGeometry y="25" width="150" height="22" as="geometry" />
        </mxCell>
        <mxCell id="J-6z406w2P_gFmTKcNu2-44" value="PK" style="shape=partialRectangle;connectable=0;fillColor=none;top=0;left=0;bottom=0;right=0;align=left;spacingLeft=2;overflow=hidden;fontSize=11;fontStyle=1" vertex="1" parent="J-6z406w2P_gFmTKcNu2-43">
          <mxGeometry width="30" height="22" as="geometry">
            <mxRectangle width="30" height="22" as="alternateBounds" />
          </mxGeometry>
        </mxCell>
        <mxCell id="J-6z406w2P_gFmTKcNu2-45" value="DashboardID" style="shape=partialRectangle;connectable=0;fillColor=none;top=0;left=0;bottom=0;right=0;align=left;spacingLeft=2;overflow=hidden;fontSize=11;fontStyle=5" vertex="1" parent="J-6z406w2P_gFmTKcNu2-43">
          <mxGeometry x="30" width="120" height="22" as="geometry">
            <mxRectangle width="120" height="22" as="alternateBounds" />
          </mxGeometry>
        </mxCell>
        <mxCell id="J-6z406w2P_gFmTKcNu2-46" style="shape=tableRow;horizontal=0;startSize=0;swimlaneHead=0;swimlaneBody=0;fillColor=none;collapsible=0;dropTarget=0;points=[[0,0.5],[1,0.5]];portConstraint=eastwest;top=0;left=0;right=0;bottom=0;" vertex="1" parent="J-6z406w2P_gFmTKcNu2-42">
          <mxGeometry y="47" width="150" height="22" as="geometry" />
        </mxCell>
        <mxCell id="J-6z406w2P_gFmTKcNu2-47" value="" style="shape=partialRectangle;connectable=0;fillColor=none;top=0;left=0;bottom=0;right=0;align=left;spacingLeft=2;overflow=hidden;fontSize=11;" vertex="1" parent="J-6z406w2P_gFmTKcNu2-46">
          <mxGeometry width="30" height="22" as="geometry">
            <mxRectangle width="30" height="22" as="alternateBounds" />
          </mxGeometry>
        </mxCell>
        <mxCell id="J-6z406w2P_gFmTKcNu2-48" value="FacultyStats" style="shape=partialRectangle;connectable=0;fillColor=none;top=0;left=0;bottom=0;right=0;align=left;spacingLeft=2;overflow=hidden;fontSize=11;" vertex="1" parent="J-6z406w2P_gFmTKcNu2-46">
          <mxGeometry x="30" width="120" height="22" as="geometry">
            <mxRectangle width="120" height="22" as="alternateBounds" />
          </mxGeometry>
        </mxCell>
        <mxCell id="J-6z406w2P_gFmTKcNu2-49" style="shape=tableRow;horizontal=0;startSize=0;swimlaneHead=0;swimlaneBody=0;fillColor=none;collapsible=0;dropTarget=0;points=[[0,0.5],[1,0.5]];portConstraint=eastwest;top=0;left=0;right=0;bottom=0;" vertex="1" parent="J-6z406w2P_gFmTKcNu2-42">
          <mxGeometry y="69" width="150" height="22" as="geometry" />
        </mxCell>
        <mxCell id="J-6z406w2P_gFmTKcNu2-50" value="" style="shape=partialRectangle;connectable=0;fillColor=none;top=0;left=0;bottom=0;right=0;align=left;spacingLeft=2;overflow=hidden;fontSize=11;" vertex="1" parent="J-6z406w2P_gFmTKcNu2-49">
          <mxGeometry width="30" height="22" as="geometry">
            <mxRectangle width="30" height="22" as="alternateBounds" />
          </mxGeometry>
        </mxCell>
        <mxCell id="J-6z406w2P_gFmTKcNu2-51" value="StudentEnrollment" style="shape=partialRectangle;connectable=0;fillColor=none;top=0;left=0;bottom=0;right=0;align=left;spacingLeft=2;overflow=hidden;fontSize=11;" vertex="1" parent="J-6z406w2P_gFmTKcNu2-49">
          <mxGeometry x="30" width="120" height="22" as="geometry">
            <mxRectangle width="120" height="22" as="alternateBounds" />
          </mxGeometry>
        </mxCell>
        <mxCell id="J-6z406w2P_gFmTKcNu2-52" style="shape=tableRow;horizontal=0;startSize=0;swimlaneHead=0;swimlaneBody=0;fillColor=none;collapsible=0;dropTarget=0;points=[[0,0.5],[1,0.5]];portConstraint=eastwest;top=0;left=0;right=0;bottom=0;" vertex="1" parent="J-6z406w2P_gFmTKcNu2-42">
          <mxGeometry y="91" width="150" height="20" as="geometry" />
        </mxCell>
        <mxCell id="J-6z406w2P_gFmTKcNu2-53" value="" style="shape=partialRectangle;connectable=0;fillColor=none;top=0;left=0;bottom=0;right=0;align=left;spacingLeft=2;overflow=hidden;fontSize=11;fontStyle=1" vertex="1" parent="J-6z406w2P_gFmTKcNu2-52">
          <mxGeometry width="30" height="20" as="geometry">
            <mxRectangle width="30" height="20" as="alternateBounds" />
          </mxGeometry>
        </mxCell>
        <mxCell id="J-6z406w2P_gFmTKcNu2-54" value=" ProgramEffectiveness" style="shape=partialRectangle;connectable=0;fillColor=none;top=0;left=0;bottom=0;right=0;align=left;spacingLeft=2;overflow=hidden;fontSize=11;" vertex="1" parent="J-6z406w2P_gFmTKcNu2-52">
          <mxGeometry x="30" width="120" height="20" as="geometry">
            <mxRectangle width="120" height="20" as="alternateBounds" />
          </mxGeometry>
        </mxCell>
        <mxCell id="J-6z406w2P_gFmTKcNu2-55" style="shape=tableRow;horizontal=0;startSize=0;swimlaneHead=0;swimlaneBody=0;fillColor=none;collapsible=0;dropTarget=0;points=[[0,0.5],[1,0.5]];portConstraint=eastwest;top=0;left=0;right=0;bottom=0;" vertex="1" parent="J-6z406w2P_gFmTKcNu2-42">
          <mxGeometry y="111" width="150" height="22" as="geometry" />
        </mxCell>
        <mxCell id="J-6z406w2P_gFmTKcNu2-56" value="" style="shape=partialRectangle;connectable=0;fillColor=none;top=0;left=0;bottom=0;right=0;align=left;spacingLeft=2;overflow=hidden;fontSize=11;" vertex="1" parent="J-6z406w2P_gFmTKcNu2-55">
          <mxGeometry width="30" height="22" as="geometry">
            <mxRectangle width="30" height="22" as="alternateBounds" />
          </mxGeometry>
        </mxCell>
        <mxCell id="J-6z406w2P_gFmTKcNu2-57" value="ResourceAllocation" style="shape=partialRectangle;connectable=0;fillColor=none;top=0;left=0;bottom=0;right=0;align=left;spacingLeft=2;overflow=hidden;fontSize=11;" vertex="1" parent="J-6z406w2P_gFmTKcNu2-55">
          <mxGeometry x="30" width="120" height="22" as="geometry">
            <mxRectangle width="120" height="22" as="alternateBounds" />
          </mxGeometry>
        </mxCell>
        <mxCell id="J-6z406w2P_gFmTKcNu2-64" style="shape=tableRow;horizontal=0;startSize=0;swimlaneHead=0;swimlaneBody=0;fillColor=none;collapsible=0;dropTarget=0;points=[[0,0.5],[1,0.5]];portConstraint=eastwest;top=0;left=0;right=0;bottom=0;" vertex="1" parent="J-6z406w2P_gFmTKcNu2-42">
          <mxGeometry y="133" width="150" height="22" as="geometry" />
        </mxCell>
        <mxCell id="J-6z406w2P_gFmTKcNu2-65" value="FK" style="shape=partialRectangle;connectable=0;fillColor=none;top=0;left=0;bottom=0;right=0;align=left;spacingLeft=2;overflow=hidden;fontSize=11;fontStyle=1" vertex="1" parent="J-6z406w2P_gFmTKcNu2-64">
          <mxGeometry width="30" height="22" as="geometry">
            <mxRectangle width="30" height="22" as="alternateBounds" />
          </mxGeometry>
        </mxCell>
        <mxCell id="J-6z406w2P_gFmTKcNu2-66" value="AdminID " style="shape=partialRectangle;connectable=0;fillColor=none;top=0;left=0;bottom=0;right=0;align=left;spacingLeft=2;overflow=hidden;fontSize=11;fontStyle=0" vertex="1" parent="J-6z406w2P_gFmTKcNu2-64">
          <mxGeometry x="30" width="120" height="22" as="geometry">
            <mxRectangle width="120" height="22" as="alternateBounds" />
          </mxGeometry>
        </mxCell>
        <mxCell id="J-6z406w2P_gFmTKcNu2-58" value="" style="edgeStyle=entityRelationEdgeStyle;fontSize=12;html=1;endArrow=ERmandOne;startArrow=ERmandOne;rounded=0;entryX=-0.002;entryY=0.145;entryDx=0;entryDy=0;entryPerimeter=0;exitX=0.996;exitY=0.175;exitDx=0;exitDy=0;exitPerimeter=0;" edge="1" parent="1" source="J-6z406w2P_gFmTKcNu2-49" target="jrHXLefe-VMUljtb0HfS-338">
          <mxGeometry width="100" height="100" relative="1" as="geometry">
            <mxPoint x="190" y="100" as="sourcePoint" />
            <mxPoint x="317" y="83" as="targetPoint" />
            <Array as="points">
              <mxPoint x="240" y="50" />
            </Array>
          </mxGeometry>
        </mxCell>
        <mxCell id="J-6z406w2P_gFmTKcNu2-59" value="have" style="edgeLabel;html=1;align=center;verticalAlign=middle;resizable=0;points=[];" vertex="1" connectable="0" parent="J-6z406w2P_gFmTKcNu2-58">
          <mxGeometry x="0.0447" relative="1" as="geometry">
            <mxPoint as="offset" />
          </mxGeometry>
        </mxCell>
        <mxCell id="J-6z406w2P_gFmTKcNu2-61" value="oversee" style="curved=0;startArrow=ERmandOne;startSize=10;;endArrow=ERmany;endSize=10;;entryX=-0.037;entryY=0.173;rounded=0;entryDx=0;entryDy=0;entryPerimeter=0;exitX=-0.03;exitY=1.271;exitDx=0;exitDy=0;exitPerimeter=0;" edge="1" parent="1" source="jrHXLefe-VMUljtb0HfS-338" target="jrHXLefe-VMUljtb0HfS-189">
          <mxGeometry relative="1" as="geometry">
            <Array as="points">
              <mxPoint x="280" y="107" />
              <mxPoint x="10" y="320" />
              <mxPoint x="10" y="499" />
            </Array>
            <mxPoint x="-150" y="170" as="sourcePoint" />
            <mxPoint x="25" y="131" as="targetPoint" />
          </mxGeometry>
        </mxCell>
        <mxCell id="J-6z406w2P_gFmTKcNu2-62" value="manage" style="curved=0;startArrow=ERmandOne;startSize=10;;endArrow=ERmany;endSize=10;;rounded=0;exitX=0.963;exitY=-0.142;exitDx=0;exitDy=0;exitPerimeter=0;entryX=0.992;entryY=0.034;entryDx=0;entryDy=0;entryPerimeter=0;" edge="1" parent="1" source="jrHXLefe-VMUljtb0HfS-338" target="jrHXLefe-VMUljtb0HfS-284">
          <mxGeometry relative="1" as="geometry">
            <Array as="points">
              <mxPoint x="1040" y="80" />
              <mxPoint x="1040" y="560" />
            </Array>
            <mxPoint x="580" y="100" as="sourcePoint" />
            <mxPoint x="1050" y="563.7333984375" as="targetPoint" />
          </mxGeometry>
        </mxCell>
        <mxCell id="J-6z406w2P_gFmTKcNu2-63" value="manage" style="curved=0;startArrow=ERmandOne;startSize=10;;endArrow=ERmany;endSize=10;;rounded=0;exitX=0.5;exitY=0;exitDx=0;exitDy=0;entryX=0;entryY=0.5;entryDx=0;entryDy=0;" edge="1" parent="1" source="jrHXLefe-VMUljtb0HfS-331" target="jrHXLefe-VMUljtb0HfS-268">
          <mxGeometry relative="1" as="geometry">
            <Array as="points">
              <mxPoint x="360" y="-40" />
              <mxPoint x="-160" y="-40" />
              <mxPoint x="-160" y="1444" />
            </Array>
            <mxPoint x="-100" y="260" as="sourcePoint" />
            <mxPoint x="219" y="741" as="targetPoint" />
          </mxGeometry>
        </mxCell>
        <mxCell id="J-6z406w2P_gFmTKcNu2-70" value="&lt;span style=&quot;text-align: left;&quot;&gt;&lt;b&gt;&lt;u&gt;CollegeID&lt;/u&gt;&lt;/b&gt;&lt;/span&gt;" style="rounded=0;whiteSpace=wrap;html=1;fillColor=#dae8fc;strokeColor=#6c8ebf;" vertex="1" parent="1">
          <mxGeometry x="-690" y="1810" width="80" height="30" as="geometry" />
        </mxCell>
        <mxCell id="J-6z406w2P_gFmTKcNu2-71" value="&lt;span style=&quot;text-align: left;&quot;&gt;Name&lt;/span&gt;" style="rounded=0;whiteSpace=wrap;html=1;fillColor=#d5e8d4;strokeColor=#82b366;" vertex="1" parent="1">
          <mxGeometry x="-610" y="1810" width="80" height="30" as="geometry" />
        </mxCell>
        <mxCell id="J-6z406w2P_gFmTKcNu2-72" value="&lt;b&gt;College&lt;/b&gt;" style="text;html=1;align=center;verticalAlign=middle;resizable=0;points=[];autosize=1;strokeColor=none;fillColor=none;" vertex="1" parent="1">
          <mxGeometry x="-690" y="1780" width="70" height="30" as="geometry" />
        </mxCell>
        <mxCell id="J-6z406w2P_gFmTKcNu2-74" value="&lt;span style=&quot;text-align: left;&quot;&gt;Email&amp;nbsp;&lt;/span&gt;" style="rounded=0;whiteSpace=wrap;html=1;fillColor=#d5e8d4;strokeColor=#82b366;" vertex="1" parent="1">
          <mxGeometry x="-530" y="1810" width="80" height="30" as="geometry" />
        </mxCell>
        <mxCell id="J-6z406w2P_gFmTKcNu2-75" value="&lt;span style=&quot;text-align: left;&quot;&gt;Role&lt;/span&gt;" style="rounded=0;whiteSpace=wrap;html=1;fillColor=#d5e8d4;strokeColor=#82b366;" vertex="1" parent="1">
          <mxGeometry x="-450" y="1810" width="80" height="30" as="geometry" />
        </mxCell>
        <mxCell id="J-6z406w2P_gFmTKcNu2-76" value="&lt;span style=&quot;text-align: left;&quot;&gt;AdminID&amp;nbsp;&lt;/span&gt;" style="rounded=0;whiteSpace=wrap;html=1;fillColor=#ffe6cc;strokeColor=#d79b00;" vertex="1" parent="1">
          <mxGeometry x="-370" y="1810" width="80" height="30" as="geometry" />
        </mxCell>
        <mxCell id="J-6z406w2P_gFmTKcNu2-77" value="&lt;span style=&quot;text-align: left;&quot;&gt;&lt;b&gt;&lt;u&gt;StaffID&amp;nbsp;&lt;/u&gt;&lt;/b&gt;&lt;/span&gt;" style="rounded=0;whiteSpace=wrap;html=1;fillColor=#dae8fc;strokeColor=#6c8ebf;" vertex="1" parent="1">
          <mxGeometry x="-692.5" y="2330" width="85" height="30" as="geometry" />
        </mxCell>
        <mxCell id="J-6z406w2P_gFmTKcNu2-78" value="&lt;span style=&quot;text-align: left;&quot;&gt;Name&lt;/span&gt;" style="rounded=0;whiteSpace=wrap;html=1;fillColor=#d5e8d4;strokeColor=#82b366;" vertex="1" parent="1">
          <mxGeometry x="-607.5" y="2330" width="75" height="30" as="geometry" />
        </mxCell>
        <mxCell id="J-6z406w2P_gFmTKcNu2-79" value="&lt;span style=&quot;text-align: left; text-wrap: wrap;&quot;&gt;&lt;b&gt;CollegeStaff&lt;/b&gt;&lt;/span&gt;" style="text;html=1;align=center;verticalAlign=middle;resizable=0;points=[];autosize=1;strokeColor=none;fillColor=none;" vertex="1" parent="1">
          <mxGeometry x="-692.5" y="2300" width="90" height="30" as="geometry" />
        </mxCell>
        <mxCell id="J-6z406w2P_gFmTKcNu2-80" value="&lt;span style=&quot;text-align: left;&quot;&gt;ContactNumber&lt;/span&gt;" style="rounded=0;whiteSpace=wrap;html=1;fillColor=#d5e8d4;strokeColor=#82b366;" vertex="1" parent="1">
          <mxGeometry x="-532.5" y="2330" width="100" height="30" as="geometry" />
        </mxCell>
        <mxCell id="J-6z406w2P_gFmTKcNu2-81" value="&lt;span style=&quot;text-align: left;&quot;&gt;EstablishedDate&lt;/span&gt;" style="rounded=0;whiteSpace=wrap;html=1;fillColor=#d5e8d4;strokeColor=#82b366;" vertex="1" parent="1">
          <mxGeometry x="-432.5" y="2330" width="100" height="30" as="geometry" />
        </mxCell>
        <mxCell id="J-6z406w2P_gFmTKcNu2-82" value="&lt;span style=&quot;text-align: left;&quot;&gt;CollegeID&amp;nbsp;&lt;/span&gt;" style="rounded=0;whiteSpace=wrap;html=1;fillColor=#ffe6cc;strokeColor=#d79b00;" vertex="1" parent="1">
          <mxGeometry x="-332.5" y="2330" width="75" height="30" as="geometry" />
        </mxCell>
        <mxCell id="J-6z406w2P_gFmTKcNu2-84" value="&lt;span style=&quot;text-align: left;&quot;&gt;&lt;b&gt;&lt;u&gt;DepartmentID&amp;nbsp;&lt;/u&gt;&lt;/b&gt;&lt;/span&gt;" style="rounded=0;whiteSpace=wrap;html=1;fillColor=#dae8fc;strokeColor=#6c8ebf;" vertex="1" parent="1">
          <mxGeometry x="-692.5" y="2430" width="95" height="30" as="geometry" />
        </mxCell>
        <mxCell id="J-6z406w2P_gFmTKcNu2-85" value="&lt;span style=&quot;text-align: left;&quot;&gt;Name&lt;/span&gt;" style="rounded=0;whiteSpace=wrap;html=1;fillColor=#d5e8d4;strokeColor=#82b366;" vertex="1" parent="1">
          <mxGeometry x="-597.5" y="2430" width="75" height="30" as="geometry" />
        </mxCell>
        <mxCell id="J-6z406w2P_gFmTKcNu2-86" value="&lt;span style=&quot;text-align: left; text-wrap: wrap;&quot;&gt;&lt;b&gt;Department&lt;/b&gt;&lt;/span&gt;" style="text;html=1;align=center;verticalAlign=middle;resizable=0;points=[];autosize=1;strokeColor=none;fillColor=none;" vertex="1" parent="1">
          <mxGeometry x="-692.5" y="2400" width="90" height="30" as="geometry" />
        </mxCell>
        <mxCell id="J-6z406w2P_gFmTKcNu2-87" value="&lt;span style=&quot;text-align: left;&quot;&gt;CollegeID&lt;/span&gt;" style="rounded=0;whiteSpace=wrap;html=1;fillColor=#ffe6cc;strokeColor=#d79b00;" vertex="1" parent="1">
          <mxGeometry x="-522.5" y="2430" width="90" height="30" as="geometry" />
        </mxCell>
        <mxCell id="J-6z406w2P_gFmTKcNu2-88" value="&lt;span style=&quot;text-align: left;&quot;&gt;HOD&lt;/span&gt;" style="rounded=0;whiteSpace=wrap;html=1;fillColor=#d5e8d4;strokeColor=#82b366;" vertex="1" parent="1">
          <mxGeometry x="-432.5" y="2430" width="80" height="30" as="geometry" />
        </mxCell>
        <mxCell id="J-6z406w2P_gFmTKcNu2-89" value="&lt;span style=&quot;text-align: left;&quot;&gt;OfficeNumber&lt;/span&gt;" style="rounded=0;whiteSpace=wrap;html=1;fillColor=#d5e8d4;strokeColor=#82b366;" vertex="1" parent="1">
          <mxGeometry x="-352.5" y="2430" width="90" height="30" as="geometry" />
        </mxCell>
        <mxCell id="J-6z406w2P_gFmTKcNu2-92" value="&lt;span style=&quot;text-align: left;&quot;&gt;&lt;b&gt;&lt;u&gt;ProgramID&amp;nbsp;&lt;/u&gt;&lt;/b&gt;&lt;/span&gt;" style="rounded=0;whiteSpace=wrap;html=1;fillColor=#dae8fc;strokeColor=#6c8ebf;" vertex="1" parent="1">
          <mxGeometry x="-692.5" y="2530" width="95" height="30" as="geometry" />
        </mxCell>
        <mxCell id="J-6z406w2P_gFmTKcNu2-93" value="&lt;span style=&quot;text-align: left;&quot;&gt;Name&lt;/span&gt;" style="rounded=0;whiteSpace=wrap;html=1;fillColor=#d5e8d4;strokeColor=#82b366;" vertex="1" parent="1">
          <mxGeometry x="-597.5" y="2530" width="75" height="30" as="geometry" />
        </mxCell>
        <mxCell id="J-6z406w2P_gFmTKcNu2-94" value="&lt;span style=&quot;text-align: left; text-wrap: wrap;&quot;&gt;&lt;b&gt;Program&lt;/b&gt;&lt;/span&gt;" style="text;html=1;align=center;verticalAlign=middle;resizable=0;points=[];autosize=1;strokeColor=none;fillColor=none;" vertex="1" parent="1">
          <mxGeometry x="-692.5" y="2500" width="70" height="30" as="geometry" />
        </mxCell>
        <mxCell id="J-6z406w2P_gFmTKcNu2-95" value="&lt;span style=&quot;text-align: left;&quot;&gt;Description&lt;/span&gt;" style="rounded=0;whiteSpace=wrap;html=1;fillColor=#d5e8d4;strokeColor=#82b366;" vertex="1" parent="1">
          <mxGeometry x="-522.5" y="2530" width="90" height="30" as="geometry" />
        </mxCell>
        <mxCell id="J-6z406w2P_gFmTKcNu2-96" value="&lt;span style=&quot;text-align: left;&quot;&gt;TotalCredits&lt;/span&gt;" style="rounded=0;whiteSpace=wrap;html=1;fillColor=#d5e8d4;strokeColor=#82b366;" vertex="1" parent="1">
          <mxGeometry x="-432.5" y="2530" width="80" height="30" as="geometry" />
        </mxCell>
        <mxCell id="J-6z406w2P_gFmTKcNu2-97" value="&lt;span style=&quot;text-align: left;&quot;&gt;DepartmentID&amp;nbsp;&lt;/span&gt;" style="rounded=0;whiteSpace=wrap;html=1;fillColor=#ffe6cc;strokeColor=#d79b00;" vertex="1" parent="1">
          <mxGeometry x="-352.5" y="2530" width="90" height="30" as="geometry" />
        </mxCell>
        <mxCell id="J-6z406w2P_gFmTKcNu2-100" value="&lt;span style=&quot;text-align: left;&quot;&gt;CollegeStaffID&lt;/span&gt;&lt;span style=&quot;text-align: left;&quot;&gt;&amp;nbsp;&lt;/span&gt;" style="rounded=0;whiteSpace=wrap;html=1;fillColor=#ffe6cc;strokeColor=#d79b00;" vertex="1" parent="1">
          <mxGeometry x="-262.5" y="2530" width="90" height="30" as="geometry" />
        </mxCell>
        <mxCell id="J-6z406w2P_gFmTKcNu2-101" value="&lt;span style=&quot;text-align: left;&quot;&gt;ProgramID&amp;nbsp;&lt;/span&gt;" style="rounded=0;whiteSpace=wrap;html=1;fillColor=#ffe6cc;strokeColor=#d79b00;" vertex="1" parent="1">
          <mxGeometry x="-692.5" y="2660" width="95" height="30" as="geometry" />
        </mxCell>
        <mxCell id="J-6z406w2P_gFmTKcNu2-103" value="&lt;span style=&quot;text-align: left; text-wrap: wrap;&quot;&gt;&lt;b&gt;UndergraduateProgram&lt;/b&gt;&lt;/span&gt;" style="text;html=1;align=center;verticalAlign=middle;resizable=0;points=[];autosize=1;strokeColor=none;fillColor=none;" vertex="1" parent="1">
          <mxGeometry x="-692.5" y="2630" width="160" height="30" as="geometry" />
        </mxCell>
        <mxCell id="J-6z406w2P_gFmTKcNu2-104" value="&lt;span style=&quot;text-align: left;&quot;&gt;Major&lt;/span&gt;" style="rounded=0;whiteSpace=wrap;html=1;fillColor=#d5e8d4;strokeColor=#82b366;" vertex="1" parent="1">
          <mxGeometry x="-597.5" y="2660" width="70" height="30" as="geometry" />
        </mxCell>
        <mxCell id="J-6z406w2P_gFmTKcNu2-110" value="&lt;span style=&quot;text-align: left;&quot;&gt;ProgramID&amp;nbsp;&lt;/span&gt;" style="rounded=0;whiteSpace=wrap;html=1;fillColor=#ffe6cc;strokeColor=#d79b00;" vertex="1" parent="1">
          <mxGeometry x="-692.5" y="2770" width="95" height="30" as="geometry" />
        </mxCell>
        <mxCell id="J-6z406w2P_gFmTKcNu2-112" value="&lt;span style=&quot;text-align: left;&quot;&gt;Specialization&lt;/span&gt;" style="rounded=0;whiteSpace=wrap;html=1;fillColor=#d5e8d4;strokeColor=#82b366;" vertex="1" parent="1">
          <mxGeometry x="-597.5" y="2770" width="90" height="30" as="geometry" />
        </mxCell>
        <mxCell id="J-6z406w2P_gFmTKcNu2-113" value="&lt;span style=&quot;text-align: left; text-wrap: wrap;&quot;&gt;&lt;b&gt;PostgraduateProgram&lt;/b&gt;&lt;/span&gt;" style="text;html=1;align=center;verticalAlign=middle;resizable=0;points=[];autosize=1;strokeColor=none;fillColor=none;" vertex="1" parent="1">
          <mxGeometry x="-692.5" y="2740" width="150" height="30" as="geometry" />
        </mxCell>
        <mxCell id="J-6z406w2P_gFmTKcNu2-115" value="&lt;span style=&quot;text-align: left;&quot;&gt;ProgramID&amp;nbsp;&lt;/span&gt;" style="rounded=0;whiteSpace=wrap;html=1;fillColor=#ffe6cc;strokeColor=#d79b00;" vertex="1" parent="1">
          <mxGeometry x="-690" y="2870" width="95" height="30" as="geometry" />
        </mxCell>
        <mxCell id="J-6z406w2P_gFmTKcNu2-117" value="&lt;span style=&quot;text-align: left;&quot;&gt;Field&lt;/span&gt;" style="rounded=0;whiteSpace=wrap;html=1;fillColor=#d5e8d4;strokeColor=#82b366;" vertex="1" parent="1">
          <mxGeometry x="-595" y="2870" width="80" height="30" as="geometry" />
        </mxCell>
        <mxCell id="J-6z406w2P_gFmTKcNu2-118" value="&lt;span style=&quot;text-align: left; text-wrap: wrap;&quot;&gt;&lt;b&gt;DiplomaProgram&lt;/b&gt;&lt;/span&gt;" style="text;html=1;align=center;verticalAlign=middle;resizable=0;points=[];autosize=1;strokeColor=none;fillColor=none;" vertex="1" parent="1">
          <mxGeometry x="-692.5" y="2840" width="120" height="30" as="geometry" />
        </mxCell>
        <mxCell id="J-6z406w2P_gFmTKcNu2-120" value="&lt;span style=&quot;text-align: left;&quot;&gt;&lt;b&gt;&lt;u&gt;CourseID&amp;nbsp;&lt;/u&gt;&lt;/b&gt;&lt;/span&gt;" style="rounded=0;whiteSpace=wrap;html=1;fillColor=#dae8fc;strokeColor=#6c8ebf;" vertex="1" parent="1">
          <mxGeometry x="-690" y="2970" width="85" height="30" as="geometry" />
        </mxCell>
        <mxCell id="J-6z406w2P_gFmTKcNu2-121" value="&lt;span style=&quot;text-align: left;&quot;&gt;Name&lt;/span&gt;" style="rounded=0;whiteSpace=wrap;html=1;fillColor=#d5e8d4;strokeColor=#82b366;" vertex="1" parent="1">
          <mxGeometry x="-605" y="2970" width="75" height="30" as="geometry" />
        </mxCell>
        <mxCell id="J-6z406w2P_gFmTKcNu2-122" value="&lt;span style=&quot;text-align: left; text-wrap: wrap;&quot;&gt;&lt;b&gt;Course&lt;/b&gt;&lt;/span&gt;" style="text;html=1;align=center;verticalAlign=middle;resizable=0;points=[];autosize=1;strokeColor=none;fillColor=none;" vertex="1" parent="1">
          <mxGeometry x="-690" y="2940" width="60" height="30" as="geometry" />
        </mxCell>
        <mxCell id="J-6z406w2P_gFmTKcNu2-123" value="&lt;span style=&quot;text-align: left;&quot;&gt;Description&lt;/span&gt;" style="rounded=0;whiteSpace=wrap;html=1;fillColor=#d5e8d4;strokeColor=#82b366;" vertex="1" parent="1">
          <mxGeometry x="-530" y="2970" width="100" height="30" as="geometry" />
        </mxCell>
        <mxCell id="J-6z406w2P_gFmTKcNu2-124" value="&lt;span style=&quot;text-align: left;&quot;&gt;Credits&lt;/span&gt;" style="rounded=0;whiteSpace=wrap;html=1;fillColor=#d5e8d4;strokeColor=#82b366;" vertex="1" parent="1">
          <mxGeometry x="-430" y="2970" width="100" height="30" as="geometry" />
        </mxCell>
        <mxCell id="J-6z406w2P_gFmTKcNu2-125" value="&lt;span style=&quot;text-align: left;&quot;&gt;DepartmentID&amp;nbsp;&lt;/span&gt;" style="rounded=0;whiteSpace=wrap;html=1;fillColor=#ffe6cc;strokeColor=#d79b00;" vertex="1" parent="1">
          <mxGeometry x="-330" y="2970" width="105" height="30" as="geometry" />
        </mxCell>
        <mxCell id="J-6z406w2P_gFmTKcNu2-126" value="&lt;span style=&quot;text-align: left;&quot;&gt;Semester&lt;/span&gt;" style="rounded=0;whiteSpace=wrap;html=1;fillColor=#d5e8d4;strokeColor=#82b366;" vertex="1" parent="1">
          <mxGeometry x="-225" y="2970" width="100" height="30" as="geometry" />
        </mxCell>
        <mxCell id="J-6z406w2P_gFmTKcNu2-129" value="&lt;span style=&quot;text-align: left;&quot;&gt;CourseID&amp;nbsp;&lt;/span&gt;" style="rounded=0;whiteSpace=wrap;html=1;fillColor=#ffe6cc;strokeColor=#d79b00;" vertex="1" parent="1">
          <mxGeometry x="-692.5" y="3080" width="95" height="30" as="geometry" />
        </mxCell>
        <mxCell id="J-6z406w2P_gFmTKcNu2-130" value="&lt;span style=&quot;text-align: left;&quot;&gt;Prerequisites&lt;/span&gt;" style="rounded=0;whiteSpace=wrap;html=1;fillColor=#d5e8d4;strokeColor=#82b366;" vertex="1" parent="1">
          <mxGeometry x="-597.5" y="3080" width="80" height="30" as="geometry" />
        </mxCell>
        <mxCell id="J-6z406w2P_gFmTKcNu2-131" value="&lt;span style=&quot;text-align: left;&quot;&gt;CoreCredits&lt;/span&gt;" style="rounded=0;whiteSpace=wrap;html=1;fillColor=#d5e8d4;strokeColor=#82b366;" vertex="1" parent="1">
          <mxGeometry x="-517.5" y="3080" width="75" height="30" as="geometry" />
        </mxCell>
        <mxCell id="J-6z406w2P_gFmTKcNu2-132" value="&lt;span style=&quot;text-align: left; text-wrap: wrap;&quot;&gt;&lt;b&gt;DiplomaProgram&lt;/b&gt;&lt;/span&gt;" style="text;html=1;align=center;verticalAlign=middle;resizable=0;points=[];autosize=1;strokeColor=none;fillColor=none;" vertex="1" parent="1">
          <mxGeometry x="-692.5" y="3050" width="120" height="30" as="geometry" />
        </mxCell>
        <mxCell id="J-6z406w2P_gFmTKcNu2-134" value="&lt;span style=&quot;text-align: left;&quot;&gt;CourseID&amp;nbsp;&lt;/span&gt;" style="rounded=0;whiteSpace=wrap;html=1;fillColor=#ffe6cc;strokeColor=#d79b00;" vertex="1" parent="1">
          <mxGeometry x="-687.5" y="3180" width="95" height="30" as="geometry" />
        </mxCell>
        <mxCell id="J-6z406w2P_gFmTKcNu2-135" value="&lt;span style=&quot;text-align: left;&quot;&gt;ElectiveCredits&lt;/span&gt;" style="rounded=0;whiteSpace=wrap;html=1;fillColor=#d5e8d4;strokeColor=#82b366;" vertex="1" parent="1">
          <mxGeometry x="-592.5" y="3180" width="95" height="30" as="geometry" />
        </mxCell>
        <mxCell id="J-6z406w2P_gFmTKcNu2-137" value="&lt;span style=&quot;text-align: left; text-wrap: wrap;&quot;&gt;&lt;b&gt;ElectiveCourse&lt;/b&gt;&lt;/span&gt;" style="text;html=1;align=center;verticalAlign=middle;resizable=0;points=[];autosize=1;strokeColor=none;fillColor=none;" vertex="1" parent="1">
          <mxGeometry x="-687.5" y="3150" width="110" height="30" as="geometry" />
        </mxCell>
        <mxCell id="J-6z406w2P_gFmTKcNu2-140" value="&lt;span style=&quot;text-align: left;&quot;&gt;&lt;b&gt;&lt;u&gt;PersonID&amp;nbsp;&lt;/u&gt;&lt;/b&gt;&lt;/span&gt;" style="rounded=0;whiteSpace=wrap;html=1;fillColor=#dae8fc;strokeColor=#6c8ebf;" vertex="1" parent="1">
          <mxGeometry x="-687.5" y="3300" width="85" height="30" as="geometry" />
        </mxCell>
        <mxCell id="J-6z406w2P_gFmTKcNu2-141" value="&lt;span style=&quot;text-align: left;&quot;&gt;Name&lt;/span&gt;" style="rounded=0;whiteSpace=wrap;html=1;fillColor=#d5e8d4;strokeColor=#82b366;" vertex="1" parent="1">
          <mxGeometry x="-602.5" y="3300" width="65" height="30" as="geometry" />
        </mxCell>
        <mxCell id="J-6z406w2P_gFmTKcNu2-142" value="&lt;span style=&quot;text-align: left; text-wrap: wrap;&quot;&gt;&lt;b&gt;Person&lt;/b&gt;&lt;/span&gt;" style="text;html=1;align=center;verticalAlign=middle;resizable=0;points=[];autosize=1;strokeColor=none;fillColor=none;" vertex="1" parent="1">
          <mxGeometry x="-687.5" y="3270" width="60" height="30" as="geometry" />
        </mxCell>
        <mxCell id="J-6z406w2P_gFmTKcNu2-143" value="&lt;span style=&quot;text-align: left;&quot;&gt;Email&amp;nbsp;&lt;/span&gt;" style="rounded=0;whiteSpace=wrap;html=1;fillColor=#d5e8d4;strokeColor=#82b366;" vertex="1" parent="1">
          <mxGeometry x="-537.5" y="3300" width="80" height="30" as="geometry" />
        </mxCell>
        <mxCell id="J-6z406w2P_gFmTKcNu2-144" value="&lt;span style=&quot;text-align: left;&quot;&gt;Credits&lt;/span&gt;" style="rounded=0;whiteSpace=wrap;html=1;fillColor=#d5e8d4;strokeColor=#82b366;" vertex="1" parent="1">
          <mxGeometry x="-457.5" y="3300" width="90" height="30" as="geometry" />
        </mxCell>
        <mxCell id="J-6z406w2P_gFmTKcNu2-145" value="&lt;span style=&quot;text-align: left;&quot;&gt;DateOfBirth&lt;/span&gt;" style="rounded=0;whiteSpace=wrap;html=1;fillColor=#d5e8d4;strokeColor=#82b366;" vertex="1" parent="1">
          <mxGeometry x="-367.5" y="3300" width="90" height="30" as="geometry" />
        </mxCell>
        <mxCell id="J-6z406w2P_gFmTKcNu2-146" value="&lt;span style=&quot;text-align: left;&quot;&gt;Type&lt;/span&gt;" style="rounded=0;whiteSpace=wrap;html=1;fillColor=#d5e8d4;strokeColor=#82b366;" vertex="1" parent="1">
          <mxGeometry x="-277.5" y="3300" width="80" height="30" as="geometry" />
        </mxCell>
        <mxCell id="J-6z406w2P_gFmTKcNu2-148" value="&lt;span style=&quot;text-align: left;&quot;&gt;&lt;b&gt;&lt;u&gt;StudentID&amp;nbsp;&lt;/u&gt;&lt;/b&gt;&lt;/span&gt;" style="rounded=0;whiteSpace=wrap;html=1;fillColor=#dae8fc;strokeColor=#6c8ebf;" vertex="1" parent="1">
          <mxGeometry x="-687.5" y="3420" width="85" height="30" as="geometry" />
        </mxCell>
        <mxCell id="J-6z406w2P_gFmTKcNu2-149" value="&lt;span style=&quot;text-align: left;&quot;&gt;AdmissionDate&lt;/span&gt;" style="rounded=0;whiteSpace=wrap;html=1;fillColor=#d5e8d4;strokeColor=#82b366;" vertex="1" parent="1">
          <mxGeometry x="-602.5" y="3420" width="95" height="30" as="geometry" />
        </mxCell>
        <mxCell id="J-6z406w2P_gFmTKcNu2-150" value="&lt;span style=&quot;text-align: left; text-wrap: wrap;&quot;&gt;&lt;b&gt;Student&lt;/b&gt;&lt;/span&gt;" style="text;html=1;align=center;verticalAlign=middle;resizable=0;points=[];autosize=1;strokeColor=none;fillColor=none;" vertex="1" parent="1">
          <mxGeometry x="-687.5" y="3390" width="70" height="30" as="geometry" />
        </mxCell>
        <mxCell id="J-6z406w2P_gFmTKcNu2-151" value="&lt;span style=&quot;text-align: left;&quot;&gt;Email&amp;nbsp;&lt;/span&gt;" style="rounded=0;whiteSpace=wrap;html=1;fillColor=#d5e8d4;strokeColor=#82b366;" vertex="1" parent="1">
          <mxGeometry x="-507.5" y="3420" width="80" height="30" as="geometry" />
        </mxCell>
        <mxCell id="J-6z406w2P_gFmTKcNu2-152" value="&lt;div style=&quot;text-align: left;&quot;&gt;&lt;span style=&quot;background-color: initial;&quot;&gt;PersonID&lt;/span&gt;&lt;/div&gt;" style="rounded=0;whiteSpace=wrap;html=1;fillColor=#ffe6cc;strokeColor=#d79b00;" vertex="1" parent="1">
          <mxGeometry x="-427.5" y="3420" width="80" height="30" as="geometry" />
        </mxCell>
        <mxCell id="J-6z406w2P_gFmTKcNu2-156" value="&lt;span style=&quot;text-align: left;&quot;&gt;&lt;b&gt;&lt;u&gt;FacultyID&amp;nbsp;&lt;/u&gt;&lt;/b&gt;&lt;/span&gt;" style="rounded=0;whiteSpace=wrap;html=1;fillColor=#dae8fc;strokeColor=#6c8ebf;" vertex="1" parent="1">
          <mxGeometry x="-685" y="3520" width="85" height="30" as="geometry" />
        </mxCell>
        <mxCell id="J-6z406w2P_gFmTKcNu2-157" value="&lt;span style=&quot;text-align: left;&quot;&gt;AdmissionDate&lt;/span&gt;" style="rounded=0;whiteSpace=wrap;html=1;fillColor=#d5e8d4;strokeColor=#82b366;" vertex="1" parent="1">
          <mxGeometry x="-600" y="3520" width="95" height="30" as="geometry" />
        </mxCell>
        <mxCell id="J-6z406w2P_gFmTKcNu2-158" value="&lt;span style=&quot;text-align: left; text-wrap: wrap;&quot;&gt;&lt;b&gt;Faculty&lt;/b&gt;&lt;/span&gt;" style="text;html=1;align=center;verticalAlign=middle;resizable=0;points=[];autosize=1;strokeColor=none;fillColor=none;" vertex="1" parent="1">
          <mxGeometry x="-685" y="3490" width="70" height="30" as="geometry" />
        </mxCell>
        <mxCell id="J-6z406w2P_gFmTKcNu2-159" value="&lt;span style=&quot;text-align: left;&quot;&gt;DateOfJoining&lt;/span&gt;" style="rounded=0;whiteSpace=wrap;html=1;fillColor=#d5e8d4;strokeColor=#82b366;" vertex="1" parent="1">
          <mxGeometry x="-505" y="3520" width="90" height="30" as="geometry" />
        </mxCell>
        <mxCell id="J-6z406w2P_gFmTKcNu2-160" value="&lt;div style=&quot;text-align: left;&quot;&gt;&lt;span style=&quot;background-color: initial;&quot;&gt;PersonID&lt;/span&gt;&lt;/div&gt;" style="rounded=0;whiteSpace=wrap;html=1;fillColor=#ffe6cc;strokeColor=#d79b00;" vertex="1" parent="1">
          <mxGeometry x="-325" y="3520" width="80" height="30" as="geometry" />
        </mxCell>
        <mxCell id="J-6z406w2P_gFmTKcNu2-161" value="&lt;div style=&quot;text-align: left;&quot;&gt;Qualification&lt;br&gt;&lt;/div&gt;" style="rounded=0;whiteSpace=wrap;html=1;fillColor=#d5e8d4;strokeColor=#82b366;" vertex="1" parent="1">
          <mxGeometry x="-415" y="3520" width="90" height="30" as="geometry" />
        </mxCell>
        <mxCell id="J-6z406w2P_gFmTKcNu2-163" value="&lt;span style=&quot;text-align: left;&quot;&gt;&lt;b&gt;&lt;u&gt;EnrollmentID&amp;nbsp;&lt;/u&gt;&lt;/b&gt;&lt;/span&gt;" style="rounded=0;whiteSpace=wrap;html=1;fillColor=#dae8fc;strokeColor=#6c8ebf;" vertex="1" parent="1">
          <mxGeometry x="-685" y="3630" width="90" height="30" as="geometry" />
        </mxCell>
        <mxCell id="J-6z406w2P_gFmTKcNu2-164" value="&lt;span style=&quot;text-align: left;&quot;&gt;StudentID&lt;/span&gt;" style="rounded=0;whiteSpace=wrap;html=1;fillColor=#ffe6cc;strokeColor=#d79b00;" vertex="1" parent="1">
          <mxGeometry x="-600" y="3630" width="85" height="30" as="geometry" />
        </mxCell>
        <mxCell id="J-6z406w2P_gFmTKcNu2-165" value="&lt;span style=&quot;text-align: left; text-wrap: wrap;&quot;&gt;&lt;b&gt;Enrollment&lt;/b&gt;&lt;/span&gt;" style="text;html=1;align=center;verticalAlign=middle;resizable=0;points=[];autosize=1;strokeColor=none;fillColor=none;" vertex="1" parent="1">
          <mxGeometry x="-685" y="3600" width="90" height="30" as="geometry" />
        </mxCell>
        <mxCell id="J-6z406w2P_gFmTKcNu2-166" value="&lt;span style=&quot;text-align: left;&quot;&gt;CourseID&amp;nbsp;&lt;/span&gt;" style="rounded=0;whiteSpace=wrap;html=1;fillColor=#ffe6cc;strokeColor=#d79b00;" vertex="1" parent="1">
          <mxGeometry x="-515" y="3630" width="80" height="30" as="geometry" />
        </mxCell>
        <mxCell id="J-6z406w2P_gFmTKcNu2-167" value="&lt;div style=&quot;text-align: left;&quot;&gt;Status&lt;br&gt;&lt;/div&gt;" style="rounded=0;whiteSpace=wrap;html=1;fillColor=#d5e8d4;strokeColor=#82b366;" vertex="1" parent="1">
          <mxGeometry x="-345" y="3630" width="80" height="30" as="geometry" />
        </mxCell>
        <mxCell id="J-6z406w2P_gFmTKcNu2-168" value="&lt;div style=&quot;text-align: left;&quot;&gt;EnrollmentDate&lt;br&gt;&lt;/div&gt;" style="rounded=0;whiteSpace=wrap;html=1;fillColor=#d5e8d4;strokeColor=#82b366;" vertex="1" parent="1">
          <mxGeometry x="-435" y="3630" width="90" height="30" as="geometry" />
        </mxCell>
        <mxCell id="J-6z406w2P_gFmTKcNu2-169" value="&lt;div style=&quot;text-align: left;&quot;&gt;Timeslot&lt;br&gt;&lt;/div&gt;" style="rounded=0;whiteSpace=wrap;html=1;fillColor=#d5e8d4;strokeColor=#82b366;" vertex="1" parent="1">
          <mxGeometry x="-265" y="3630" width="80" height="30" as="geometry" />
        </mxCell>
        <mxCell id="J-6z406w2P_gFmTKcNu2-171" value="&lt;div style=&quot;text-align: left;&quot;&gt;CollegeStaffID&amp;nbsp;&lt;br&gt;&lt;/div&gt;" style="rounded=0;whiteSpace=wrap;html=1;fillColor=#ffe6cc;strokeColor=#d79b00;" vertex="1" parent="1">
          <mxGeometry x="-185" y="3630" width="100" height="30" as="geometry" />
        </mxCell>
        <mxCell id="J-6z406w2P_gFmTKcNu2-175" value="&lt;div style=&quot;text-align: left;&quot;&gt;&lt;span style=&quot;background-color: initial;&quot;&gt;&lt;b&gt;&lt;u&gt;AssignmentID&lt;/u&gt;&lt;/b&gt;&lt;/span&gt;&lt;/div&gt;" style="rounded=0;whiteSpace=wrap;html=1;fillColor=#dae8fc;strokeColor=#6c8ebf;" vertex="1" parent="1">
          <mxGeometry x="-685" y="3740" width="90" height="30" as="geometry" />
        </mxCell>
        <mxCell id="J-6z406w2P_gFmTKcNu2-176" value="&lt;span style=&quot;text-align: left;&quot;&gt;FacultyID&amp;nbsp;&lt;/span&gt;" style="rounded=0;whiteSpace=wrap;html=1;fillColor=#ffe6cc;strokeColor=#d79b00;" vertex="1" parent="1">
          <mxGeometry x="-595" y="3740" width="70" height="30" as="geometry" />
        </mxCell>
        <mxCell id="J-6z406w2P_gFmTKcNu2-177" value="&lt;span style=&quot;text-align: left; text-wrap: wrap;&quot;&gt;&lt;b&gt;FacultyAssignment&lt;/b&gt;&lt;/span&gt;" style="text;html=1;align=center;verticalAlign=middle;resizable=0;points=[];autosize=1;strokeColor=none;fillColor=none;" vertex="1" parent="1">
          <mxGeometry x="-685" y="3710" width="130" height="30" as="geometry" />
        </mxCell>
        <mxCell id="J-6z406w2P_gFmTKcNu2-178" value="&lt;span style=&quot;text-align: left;&quot;&gt;DepartmentID&amp;nbsp;&lt;/span&gt;" style="rounded=0;whiteSpace=wrap;html=1;fillColor=#ffe6cc;strokeColor=#d79b00;" vertex="1" parent="1">
          <mxGeometry x="-525" y="3740" width="90" height="30" as="geometry" />
        </mxCell>
        <mxCell id="J-6z406w2P_gFmTKcNu2-179" value="&lt;div style=&quot;text-align: left;&quot;&gt;StartDate&lt;br&gt;&lt;/div&gt;" style="rounded=0;whiteSpace=wrap;html=1;fillColor=#d5e8d4;strokeColor=#82b366;" vertex="1" parent="1">
          <mxGeometry x="-355" y="3740" width="80" height="30" as="geometry" />
        </mxCell>
        <mxCell id="J-6z406w2P_gFmTKcNu2-180" value="&lt;div style=&quot;text-align: left;&quot;&gt;CourseID&lt;br&gt;&lt;/div&gt;" style="rounded=0;whiteSpace=wrap;html=1;fillColor=#ffe6cc;strokeColor=#d79b00;" vertex="1" parent="1">
          <mxGeometry x="-435" y="3740" width="80" height="30" as="geometry" />
        </mxCell>
        <mxCell id="J-6z406w2P_gFmTKcNu2-181" value="&lt;div style=&quot;text-align: left;&quot;&gt;EndDate&lt;br&gt;&lt;/div&gt;" style="rounded=0;whiteSpace=wrap;html=1;fillColor=#d5e8d4;strokeColor=#82b366;" vertex="1" parent="1">
          <mxGeometry x="-275" y="3740" width="80" height="30" as="geometry" />
        </mxCell>
        <mxCell id="J-6z406w2P_gFmTKcNu2-182" value="&lt;div style=&quot;text-align: left;&quot;&gt;RecurringType&lt;br&gt;&lt;/div&gt;" style="rounded=0;whiteSpace=wrap;html=1;fillColor=#d5e8d4;strokeColor=#82b366;" vertex="1" parent="1">
          <mxGeometry x="-195" y="3740" width="100" height="30" as="geometry" />
        </mxCell>
        <mxCell id="J-6z406w2P_gFmTKcNu2-183" value="&lt;div style=&quot;text-align: left;&quot;&gt;DaysOfWeek&lt;br&gt;&lt;/div&gt;" style="rounded=0;whiteSpace=wrap;html=1;fillColor=#d5e8d4;strokeColor=#82b366;" vertex="1" parent="1">
          <mxGeometry x="-95" y="3740" width="100" height="30" as="geometry" />
        </mxCell>
        <mxCell id="J-6z406w2P_gFmTKcNu2-184" value="&lt;div style=&quot;text-align: left;&quot;&gt;Timeslot&lt;br&gt;&lt;/div&gt;" style="rounded=0;whiteSpace=wrap;html=1;fillColor=#d5e8d4;strokeColor=#82b366;" vertex="1" parent="1">
          <mxGeometry x="5" y="3740" width="80" height="30" as="geometry" />
        </mxCell>
        <mxCell id="J-6z406w2P_gFmTKcNu2-217" value="" style="endArrow=classic;html=1;rounded=0;exitX=0.5;exitY=1;exitDx=0;exitDy=0;entryX=0.466;entryY=0.978;entryDx=0;entryDy=0;entryPerimeter=0;" edge="1" parent="1" source="J-6z406w2P_gFmTKcNu2-76" target="J-6z406w2P_gFmTKcNu2-218">
          <mxGeometry width="50" height="50" relative="1" as="geometry">
            <mxPoint x="-780" y="1960" as="sourcePoint" />
            <mxPoint x="-730" y="1910" as="targetPoint" />
            <Array as="points">
              <mxPoint x="-330" y="1860" />
              <mxPoint x="-240" y="1860" />
              <mxPoint x="-240" y="1780" />
              <mxPoint x="-646" y="1780" />
            </Array>
          </mxGeometry>
        </mxCell>
        <mxCell id="J-6z406w2P_gFmTKcNu2-218" value="&lt;span style=&quot;text-align: left;&quot;&gt;&lt;b&gt;&lt;u&gt;AdminID&amp;nbsp;&lt;/u&gt;&lt;/b&gt;&lt;/span&gt;" style="rounded=0;whiteSpace=wrap;html=1;fillColor=#dae8fc;strokeColor=#6c8ebf;" vertex="1" parent="1">
          <mxGeometry x="-690" y="1730" width="95" height="30" as="geometry" />
        </mxCell>
        <mxCell id="J-6z406w2P_gFmTKcNu2-219" value="&lt;span style=&quot;text-align: left;&quot;&gt;Name&lt;/span&gt;" style="rounded=0;whiteSpace=wrap;html=1;fillColor=#d5e8d4;strokeColor=#82b366;" vertex="1" parent="1">
          <mxGeometry x="-595" y="1730" width="80" height="30" as="geometry" />
        </mxCell>
        <mxCell id="J-6z406w2P_gFmTKcNu2-220" value="&lt;span style=&quot;text-align: left;&quot;&gt;Email&amp;nbsp;&lt;/span&gt;" style="rounded=0;whiteSpace=wrap;html=1;fillColor=#d5e8d4;strokeColor=#82b366;" vertex="1" parent="1">
          <mxGeometry x="-515" y="1730" width="75" height="30" as="geometry" />
        </mxCell>
        <mxCell id="J-6z406w2P_gFmTKcNu2-221" value="&lt;span style=&quot;text-align: left; text-wrap: wrap;&quot;&gt;&lt;b&gt;Admin&lt;/b&gt;&lt;/span&gt;" style="text;html=1;align=center;verticalAlign=middle;resizable=0;points=[];autosize=1;strokeColor=none;fillColor=none;" vertex="1" parent="1">
          <mxGeometry x="-690" y="1700" width="60" height="30" as="geometry" />
        </mxCell>
        <mxCell id="J-6z406w2P_gFmTKcNu2-222" value="&lt;span style=&quot;text-align: left;&quot;&gt;&lt;b&gt;&lt;u&gt;RoleID&amp;nbsp;&lt;/u&gt;&lt;/b&gt;&lt;/span&gt;" style="rounded=0;whiteSpace=wrap;html=1;fillColor=#dae8fc;strokeColor=#6c8ebf;" vertex="1" parent="1">
          <mxGeometry x="-690" y="1910" width="80" height="30" as="geometry" />
        </mxCell>
        <mxCell id="J-6z406w2P_gFmTKcNu2-223" value="&lt;span style=&quot;text-align: left;&quot;&gt;RoleName&lt;/span&gt;" style="rounded=0;whiteSpace=wrap;html=1;fillColor=#d5e8d4;strokeColor=#82b366;" vertex="1" parent="1">
          <mxGeometry x="-610" y="1910" width="90" height="30" as="geometry" />
        </mxCell>
        <mxCell id="J-6z406w2P_gFmTKcNu2-224" value="&lt;span style=&quot;text-align: left; text-wrap: wrap;&quot;&gt;&lt;b&gt;Roles&lt;/b&gt;&lt;/span&gt;" style="text;html=1;align=center;verticalAlign=middle;resizable=0;points=[];autosize=1;strokeColor=none;fillColor=none;" vertex="1" parent="1">
          <mxGeometry x="-690" y="1880" width="60" height="30" as="geometry" />
        </mxCell>
        <mxCell id="J-6z406w2P_gFmTKcNu2-225" value="&lt;span style=&quot;text-align: left;&quot;&gt;&lt;b&gt;&lt;u&gt;UserID&amp;nbsp;&lt;/u&gt;&lt;/b&gt;&lt;/span&gt;" style="rounded=0;whiteSpace=wrap;html=1;fillColor=#dae8fc;strokeColor=#6c8ebf;" vertex="1" parent="1">
          <mxGeometry x="-690" y="2000" width="85" height="30" as="geometry" />
        </mxCell>
        <mxCell id="J-6z406w2P_gFmTKcNu2-226" value="&lt;span style=&quot;text-align: left;&quot;&gt;Username&lt;/span&gt;" style="rounded=0;whiteSpace=wrap;html=1;fillColor=#d5e8d4;strokeColor=#82b366;" vertex="1" parent="1">
          <mxGeometry x="-605" y="2000" width="95" height="30" as="geometry" />
        </mxCell>
        <mxCell id="J-6z406w2P_gFmTKcNu2-227" value="&lt;span style=&quot;text-align: left; text-wrap: wrap;&quot;&gt;&lt;b&gt;Users&lt;/b&gt;&lt;/span&gt;" style="text;html=1;align=center;verticalAlign=middle;resizable=0;points=[];autosize=1;strokeColor=none;fillColor=none;" vertex="1" parent="1">
          <mxGeometry x="-690" y="1970" width="60" height="30" as="geometry" />
        </mxCell>
        <mxCell id="J-6z406w2P_gFmTKcNu2-228" value="&lt;span style=&quot;text-align: left;&quot;&gt;Email&lt;/span&gt;" style="rounded=0;whiteSpace=wrap;html=1;fillColor=#d5e8d4;strokeColor=#82b366;" vertex="1" parent="1">
          <mxGeometry x="-510" y="2000" width="90" height="30" as="geometry" />
        </mxCell>
        <mxCell id="J-6z406w2P_gFmTKcNu2-229" value="&lt;div style=&quot;text-align: left;&quot;&gt;CollegeID&amp;nbsp;&lt;br&gt;&lt;/div&gt;" style="rounded=0;whiteSpace=wrap;html=1;fillColor=#ffe6cc;strokeColor=#d79b00;" vertex="1" parent="1">
          <mxGeometry x="-330" y="2000" width="80" height="30" as="geometry" />
        </mxCell>
        <mxCell id="J-6z406w2P_gFmTKcNu2-230" value="&lt;div style=&quot;text-align: left;&quot;&gt;RoleID&amp;nbsp;&lt;br&gt;&lt;/div&gt;" style="rounded=0;whiteSpace=wrap;html=1;fillColor=#ffe6cc;strokeColor=#d79b00;" vertex="1" parent="1">
          <mxGeometry x="-420" y="2000" width="90" height="30" as="geometry" />
        </mxCell>
        <mxCell id="J-6z406w2P_gFmTKcNu2-231" value="&lt;span style=&quot;text-align: left;&quot;&gt;&lt;b&gt;&lt;u&gt;CredentialID&lt;/u&gt;&lt;/b&gt;&lt;/span&gt;" style="rounded=0;whiteSpace=wrap;html=1;fillColor=#dae8fc;strokeColor=#6c8ebf;" vertex="1" parent="1">
          <mxGeometry x="-690" y="2100" width="85" height="30" as="geometry" />
        </mxCell>
        <mxCell id="J-6z406w2P_gFmTKcNu2-232" value="&lt;span style=&quot;text-align: left;&quot;&gt;Password&lt;/span&gt;" style="rounded=0;whiteSpace=wrap;html=1;fillColor=#d5e8d4;strokeColor=#82b366;" vertex="1" parent="1">
          <mxGeometry x="-605" y="2100" width="95" height="30" as="geometry" />
        </mxCell>
        <mxCell id="J-6z406w2P_gFmTKcNu2-233" value="&lt;span style=&quot;text-align: left; text-wrap: wrap;&quot;&gt;&lt;b&gt;Credential&lt;/b&gt;&lt;/span&gt;" style="text;html=1;align=center;verticalAlign=middle;resizable=0;points=[];autosize=1;strokeColor=none;fillColor=none;" vertex="1" parent="1">
          <mxGeometry x="-690" y="2070" width="80" height="30" as="geometry" />
        </mxCell>
        <mxCell id="J-6z406w2P_gFmTKcNu2-234" value="&lt;span style=&quot;text-align: left;&quot;&gt;AdminID&lt;/span&gt;" style="rounded=0;whiteSpace=wrap;html=1;fillColor=#ffe6cc;strokeColor=#d79b00;" vertex="1" parent="1">
          <mxGeometry x="-510" y="2100" width="80" height="30" as="geometry" />
        </mxCell>
        <mxCell id="J-6z406w2P_gFmTKcNu2-235" value="&lt;div style=&quot;text-align: left;&quot;&gt;UserID&lt;br&gt;&lt;/div&gt;" style="rounded=0;whiteSpace=wrap;html=1;fillColor=#ffe6cc;strokeColor=#d79b00;" vertex="1" parent="1">
          <mxGeometry x="-430" y="2100" width="80" height="30" as="geometry" />
        </mxCell>
        <mxCell id="J-6z406w2P_gFmTKcNu2-236" value="&lt;span style=&quot;text-align: left;&quot;&gt;&lt;b&gt;&lt;u&gt;DashboardID&lt;/u&gt;&lt;/b&gt;&lt;/span&gt;" style="rounded=0;whiteSpace=wrap;html=1;fillColor=#dae8fc;strokeColor=#6c8ebf;" vertex="1" parent="1">
          <mxGeometry x="-692.5" y="2210" width="85" height="30" as="geometry" />
        </mxCell>
        <mxCell id="J-6z406w2P_gFmTKcNu2-237" value="&lt;span style=&quot;text-align: left;&quot;&gt;AdminID&lt;/span&gt;" style="rounded=0;whiteSpace=wrap;html=1;fillColor=#ffe6cc;strokeColor=#d79b00;" vertex="1" parent="1">
          <mxGeometry x="-607.5" y="2210" width="95" height="30" as="geometry" />
        </mxCell>
        <mxCell id="J-6z406w2P_gFmTKcNu2-238" value="&lt;span style=&quot;text-align: left;&quot;&gt;Insights&lt;/span&gt;" style="rounded=0;whiteSpace=wrap;html=1;fillColor=#d5e8d4;strokeColor=#82b366;" vertex="1" parent="1">
          <mxGeometry x="-512.5" y="2210" width="80" height="30" as="geometry" />
        </mxCell>
        <mxCell id="J-6z406w2P_gFmTKcNu2-239" value="&lt;div style=&quot;text-align: left;&quot;&gt;Statistic&lt;br&gt;&lt;/div&gt;" style="rounded=0;whiteSpace=wrap;html=1;fillColor=#d5e8d4;strokeColor=#82b366;" vertex="1" parent="1">
          <mxGeometry x="-432.5" y="2210" width="80" height="30" as="geometry" />
        </mxCell>
        <mxCell id="J-6z406w2P_gFmTKcNu2-240" value="&lt;span style=&quot;text-align: left; text-wrap: wrap;&quot;&gt;&lt;b&gt;AdminDashboard&lt;/b&gt;&lt;/span&gt;" style="text;html=1;align=center;verticalAlign=middle;resizable=0;points=[];autosize=1;strokeColor=none;fillColor=none;" vertex="1" parent="1">
          <mxGeometry x="-692.5" y="2180" width="120" height="30" as="geometry" />
        </mxCell>
        <mxCell id="J-6z406w2P_gFmTKcNu2-241" value="" style="endArrow=classic;html=1;rounded=0;entryX=0.5;entryY=1;entryDx=0;entryDy=0;exitX=0.5;exitY=1;exitDx=0;exitDy=0;" edge="1" parent="1" source="J-6z406w2P_gFmTKcNu2-229" target="J-6z406w2P_gFmTKcNu2-70">
          <mxGeometry width="50" height="50" relative="1" as="geometry">
            <mxPoint x="-530" y="1980" as="sourcePoint" />
            <mxPoint x="-480" y="1930" as="targetPoint" />
            <Array as="points">
              <mxPoint x="-290" y="2060" />
              <mxPoint x="-180" y="2060" />
              <mxPoint x="-180" y="1870" />
              <mxPoint x="-650" y="1870" />
            </Array>
          </mxGeometry>
        </mxCell>
        <mxCell id="J-6z406w2P_gFmTKcNu2-242" value="" style="endArrow=classic;html=1;rounded=0;entryX=0.25;entryY=1;entryDx=0;entryDy=0;exitX=0.5;exitY=1;exitDx=0;exitDy=0;" edge="1" parent="1" source="J-6z406w2P_gFmTKcNu2-234" target="J-6z406w2P_gFmTKcNu2-218">
          <mxGeometry width="50" height="50" relative="1" as="geometry">
            <mxPoint x="-570" y="2050" as="sourcePoint" />
            <mxPoint x="-520" y="2000" as="targetPoint" />
            <Array as="points">
              <mxPoint x="-470" y="2150" />
              <mxPoint x="-740" y="2150" />
              <mxPoint x="-740" y="1780" />
              <mxPoint x="-666" y="1780" />
            </Array>
          </mxGeometry>
        </mxCell>
        <mxCell id="J-6z406w2P_gFmTKcNu2-243" value="" style="endArrow=classic;html=1;rounded=0;entryX=0.442;entryY=0.964;entryDx=0;entryDy=0;entryPerimeter=0;exitX=0.565;exitY=1.077;exitDx=0;exitDy=0;exitPerimeter=0;" edge="1" parent="1" source="J-6z406w2P_gFmTKcNu2-235" target="J-6z406w2P_gFmTKcNu2-225">
          <mxGeometry width="50" height="50" relative="1" as="geometry">
            <mxPoint x="-540" y="1970" as="sourcePoint" />
            <mxPoint x="-490" y="1920" as="targetPoint" />
            <Array as="points">
              <mxPoint x="-385" y="2150" />
              <mxPoint x="-320" y="2150" />
              <mxPoint x="-320" y="2060" />
              <mxPoint x="-652" y="2060" />
            </Array>
          </mxGeometry>
        </mxCell>
        <mxCell id="J-6z406w2P_gFmTKcNu2-244" value="" style="endArrow=classic;html=1;rounded=0;entryX=0.085;entryY=0.998;entryDx=0;entryDy=0;exitX=0.577;exitY=1.009;exitDx=0;exitDy=0;entryPerimeter=0;exitPerimeter=0;" edge="1" parent="1" source="J-6z406w2P_gFmTKcNu2-237" target="J-6z406w2P_gFmTKcNu2-218">
          <mxGeometry width="50" height="50" relative="1" as="geometry">
            <mxPoint x="-480" y="2140" as="sourcePoint" />
            <mxPoint x="-676" y="1770" as="targetPoint" />
            <Array as="points">
              <mxPoint x="-553" y="2270" />
              <mxPoint x="-750" y="2270" />
              <mxPoint x="-750" y="1790" />
              <mxPoint x="-682" y="1790" />
            </Array>
          </mxGeometry>
        </mxCell>
        <mxCell id="J-6z406w2P_gFmTKcNu2-245" value="" style="endArrow=classic;html=1;rounded=0;entryX=0.172;entryY=1.036;entryDx=0;entryDy=0;entryPerimeter=0;exitX=0.5;exitY=1;exitDx=0;exitDy=0;" edge="1" parent="1" source="J-6z406w2P_gFmTKcNu2-82" target="J-6z406w2P_gFmTKcNu2-70">
          <mxGeometry width="50" height="50" relative="1" as="geometry">
            <mxPoint x="-470" y="2250" as="sourcePoint" />
            <mxPoint x="-420" y="2200" as="targetPoint" />
            <Array as="points">
              <mxPoint x="-290" y="2370" />
              <mxPoint x="-160" y="2370" />
              <mxPoint x="-160" y="1880" />
              <mxPoint x="-676" y="1880" />
            </Array>
          </mxGeometry>
        </mxCell>
        <mxCell id="J-6z406w2P_gFmTKcNu2-247" value="" style="endArrow=classic;html=1;rounded=0;exitX=0.5;exitY=1;exitDx=0;exitDy=0;entryX=0.5;entryY=1;entryDx=0;entryDy=0;" edge="1" parent="1" source="J-6z406w2P_gFmTKcNu2-97" target="J-6z406w2P_gFmTKcNu2-84">
          <mxGeometry width="50" height="50" relative="1" as="geometry">
            <mxPoint x="-645" y="2490" as="sourcePoint" />
            <mxPoint x="-410" y="2410" as="targetPoint" />
            <Array as="points">
              <mxPoint x="-307" y="2580" />
              <mxPoint x="-750" y="2580" />
              <mxPoint x="-750" y="2490" />
              <mxPoint x="-645" y="2490" />
            </Array>
          </mxGeometry>
        </mxCell>
        <mxCell id="J-6z406w2P_gFmTKcNu2-248" value="" style="endArrow=classic;html=1;rounded=0;entryX=0.5;entryY=1;entryDx=0;entryDy=0;exitX=0.591;exitY=0.999;exitDx=0;exitDy=0;exitPerimeter=0;" edge="1" parent="1" source="J-6z406w2P_gFmTKcNu2-100" target="J-6z406w2P_gFmTKcNu2-77">
          <mxGeometry width="50" height="50" relative="1" as="geometry">
            <mxPoint x="-530" y="2470" as="sourcePoint" />
            <mxPoint x="-480" y="2420" as="targetPoint" />
            <Array as="points">
              <mxPoint x="-210" y="2580" />
              <mxPoint x="-110" y="2580" />
              <mxPoint x="-110" y="2390" />
              <mxPoint x="-650" y="2390" />
            </Array>
          </mxGeometry>
        </mxCell>
        <mxCell id="J-6z406w2P_gFmTKcNu2-249" value="" style="endArrow=classic;html=1;rounded=0;entryX=0.5;entryY=1;entryDx=0;entryDy=0;exitX=0.5;exitY=1;exitDx=0;exitDy=0;" edge="1" parent="1" source="J-6z406w2P_gFmTKcNu2-101" target="J-6z406w2P_gFmTKcNu2-92">
          <mxGeometry width="50" height="50" relative="1" as="geometry">
            <mxPoint x="-530" y="2600" as="sourcePoint" />
            <mxPoint x="-480" y="2550" as="targetPoint" />
            <Array as="points">
              <mxPoint x="-645" y="2700" />
              <mxPoint x="-750" y="2700" />
              <mxPoint x="-750" y="2600" />
              <mxPoint x="-645" y="2600" />
            </Array>
          </mxGeometry>
        </mxCell>
        <mxCell id="J-6z406w2P_gFmTKcNu2-250" value="" style="endArrow=classic;html=1;rounded=0;entryX=0.75;entryY=1;entryDx=0;entryDy=0;exitX=0.5;exitY=1;exitDx=0;exitDy=0;" edge="1" parent="1" source="J-6z406w2P_gFmTKcNu2-110" target="J-6z406w2P_gFmTKcNu2-92">
          <mxGeometry width="50" height="50" relative="1" as="geometry">
            <mxPoint x="-600" y="2710" as="sourcePoint" />
            <mxPoint x="-550" y="2660" as="targetPoint" />
            <Array as="points">
              <mxPoint x="-645" y="2820" />
              <mxPoint x="-360" y="2820" />
              <mxPoint x="-360" y="2600" />
              <mxPoint x="-621" y="2600" />
            </Array>
          </mxGeometry>
        </mxCell>
        <mxCell id="J-6z406w2P_gFmTKcNu2-251" value="" style="endArrow=classic;html=1;rounded=0;entryX=0.25;entryY=1;entryDx=0;entryDy=0;exitX=0.523;exitY=0.98;exitDx=0;exitDy=0;exitPerimeter=0;" edge="1" parent="1" source="J-6z406w2P_gFmTKcNu2-115" target="J-6z406w2P_gFmTKcNu2-92">
          <mxGeometry width="50" height="50" relative="1" as="geometry">
            <mxPoint x="-610" y="2790" as="sourcePoint" />
            <mxPoint x="-560" y="2740" as="targetPoint" />
            <Array as="points">
              <mxPoint x="-640" y="2910" />
              <mxPoint x="-760" y="2910" />
              <mxPoint x="-760" y="2610" />
              <mxPoint x="-670" y="2610" />
            </Array>
          </mxGeometry>
        </mxCell>
        <mxCell id="J-6z406w2P_gFmTKcNu2-252" value="" style="endArrow=classic;html=1;rounded=0;entryX=0.75;entryY=1;entryDx=0;entryDy=0;exitX=0.5;exitY=1;exitDx=0;exitDy=0;" edge="1" parent="1" source="J-6z406w2P_gFmTKcNu2-125" target="J-6z406w2P_gFmTKcNu2-84">
          <mxGeometry width="50" height="50" relative="1" as="geometry">
            <mxPoint x="-460" y="2570" as="sourcePoint" />
            <mxPoint x="-410" y="2520" as="targetPoint" />
            <Array as="points">
              <mxPoint x="-277" y="3030" />
              <mxPoint x="-90" y="3030" />
              <mxPoint x="-90" y="2490" />
              <mxPoint x="-620" y="2490" />
            </Array>
          </mxGeometry>
        </mxCell>
        <mxCell id="J-6z406w2P_gFmTKcNu2-253" value="" style="endArrow=classic;html=1;rounded=0;entryX=0.5;entryY=1;entryDx=0;entryDy=0;exitX=0.5;exitY=1;exitDx=0;exitDy=0;" edge="1" parent="1" source="J-6z406w2P_gFmTKcNu2-129" target="J-6z406w2P_gFmTKcNu2-120">
          <mxGeometry width="50" height="50" relative="1" as="geometry">
            <mxPoint x="-460" y="3090" as="sourcePoint" />
            <mxPoint x="-410" y="3040" as="targetPoint" />
            <Array as="points">
              <mxPoint x="-645" y="3130" />
              <mxPoint x="-720" y="3130" />
              <mxPoint x="-720" y="3030" />
              <mxPoint x="-647" y="3030" />
            </Array>
          </mxGeometry>
        </mxCell>
        <mxCell id="J-6z406w2P_gFmTKcNu2-254" value="" style="endArrow=classic;html=1;rounded=0;entryX=0.711;entryY=1.058;entryDx=0;entryDy=0;entryPerimeter=0;exitX=0.553;exitY=1.061;exitDx=0;exitDy=0;exitPerimeter=0;" edge="1" parent="1" source="J-6z406w2P_gFmTKcNu2-134" target="J-6z406w2P_gFmTKcNu2-120">
          <mxGeometry width="50" height="50" relative="1" as="geometry">
            <mxPoint x="-560" y="3150" as="sourcePoint" />
            <mxPoint x="-510" y="3100" as="targetPoint" />
            <Array as="points">
              <mxPoint x="-635" y="3230" />
              <mxPoint x="-420" y="3230" />
              <mxPoint x="-420" y="3030" />
              <mxPoint x="-630" y="3030" />
            </Array>
          </mxGeometry>
        </mxCell>
        <mxCell id="J-6z406w2P_gFmTKcNu2-255" value="" style="endArrow=classic;html=1;rounded=0;exitX=0.5;exitY=1;exitDx=0;exitDy=0;" edge="1" parent="1" source="J-6z406w2P_gFmTKcNu2-140">
          <mxGeometry width="50" height="50" relative="1" as="geometry">
            <mxPoint x="-470" y="3250" as="sourcePoint" />
            <mxPoint x="-672" y="3000" as="targetPoint" />
            <Array as="points">
              <mxPoint x="-645" y="3350" />
              <mxPoint x="-750" y="3350" />
              <mxPoint x="-750" y="3040" />
              <mxPoint x="-672" y="3040" />
            </Array>
          </mxGeometry>
        </mxCell>
        <mxCell id="J-6z406w2P_gFmTKcNu2-256" value="" style="endArrow=classic;html=1;rounded=0;entryX=0.679;entryY=1.045;entryDx=0;entryDy=0;entryPerimeter=0;exitX=0.5;exitY=1;exitDx=0;exitDy=0;" edge="1" parent="1" source="J-6z406w2P_gFmTKcNu2-152" target="J-6z406w2P_gFmTKcNu2-140">
          <mxGeometry width="50" height="50" relative="1" as="geometry">
            <mxPoint x="-570" y="3400" as="sourcePoint" />
            <mxPoint x="-520" y="3350" as="targetPoint" />
            <Array as="points">
              <mxPoint x="-387" y="3470" />
              <mxPoint x="-320" y="3470" />
              <mxPoint x="-320" y="3350" />
              <mxPoint x="-630" y="3350" />
            </Array>
          </mxGeometry>
        </mxCell>
        <mxCell id="J-6z406w2P_gFmTKcNu2-257" value="" style="endArrow=classic;html=1;rounded=0;entryX=0.177;entryY=1.142;entryDx=0;entryDy=0;entryPerimeter=0;exitX=0.5;exitY=1;exitDx=0;exitDy=0;" edge="1" parent="1" source="J-6z406w2P_gFmTKcNu2-160" target="J-6z406w2P_gFmTKcNu2-140">
          <mxGeometry width="50" height="50" relative="1" as="geometry">
            <mxPoint x="-590" y="3480" as="sourcePoint" />
            <mxPoint x="-540" y="3480" as="targetPoint" />
            <Array as="points">
              <mxPoint x="-285" y="3570" />
              <mxPoint x="-750" y="3570" />
              <mxPoint x="-750" y="3370" />
              <mxPoint x="-672" y="3370" />
            </Array>
          </mxGeometry>
        </mxCell>
        <mxCell id="J-6z406w2P_gFmTKcNu2-258" value="" style="endArrow=classic;html=1;rounded=0;entryX=0.5;entryY=1;entryDx=0;entryDy=0;exitX=0.5;exitY=1;exitDx=0;exitDy=0;" edge="1" parent="1" source="J-6z406w2P_gFmTKcNu2-164" target="J-6z406w2P_gFmTKcNu2-148">
          <mxGeometry width="50" height="50" relative="1" as="geometry">
            <mxPoint x="-470" y="3580" as="sourcePoint" />
            <mxPoint x="-420" y="3530" as="targetPoint" />
            <Array as="points">
              <mxPoint x="-557" y="3680" />
              <mxPoint x="-770" y="3680" />
              <mxPoint x="-770" y="3480" />
              <mxPoint x="-645" y="3480" />
            </Array>
          </mxGeometry>
        </mxCell>
        <mxCell id="J-6z406w2P_gFmTKcNu2-259" value="" style="endArrow=classic;html=1;rounded=0;entryX=0.054;entryY=0.967;entryDx=0;entryDy=0;entryPerimeter=0;exitX=0.547;exitY=1.011;exitDx=0;exitDy=0;exitPerimeter=0;" edge="1" parent="1" source="J-6z406w2P_gFmTKcNu2-166" target="J-6z406w2P_gFmTKcNu2-120">
          <mxGeometry width="50" height="50" relative="1" as="geometry">
            <mxPoint x="-420" y="3570" as="sourcePoint" />
            <mxPoint x="-370" y="3520" as="targetPoint" />
            <Array as="points">
              <mxPoint x="-470" y="3700" />
              <mxPoint x="-780" y="3700" />
              <mxPoint x="-780" y="3020" />
              <mxPoint x="-685" y="3020" />
            </Array>
          </mxGeometry>
        </mxCell>
        <mxCell id="J-6z406w2P_gFmTKcNu2-260" value="" style="endArrow=classic;html=1;rounded=0;entryX=0.75;entryY=1;entryDx=0;entryDy=0;exitX=0.644;exitY=1.025;exitDx=0;exitDy=0;exitPerimeter=0;" edge="1" parent="1" source="J-6z406w2P_gFmTKcNu2-171" target="J-6z406w2P_gFmTKcNu2-77">
          <mxGeometry width="50" height="50" relative="1" as="geometry">
            <mxPoint x="-400" y="3670" as="sourcePoint" />
            <mxPoint x="-350" y="3620" as="targetPoint" />
            <Array as="points">
              <mxPoint x="-120" y="3690" />
              <mxPoint x="-70" y="3690" />
              <mxPoint x="-80" y="2400" />
              <mxPoint x="-629" y="2400" />
            </Array>
          </mxGeometry>
        </mxCell>
        <mxCell id="J-6z406w2P_gFmTKcNu2-261" value="" style="endArrow=classic;html=1;rounded=0;entryX=0.5;entryY=1;entryDx=0;entryDy=0;exitX=0.5;exitY=1;exitDx=0;exitDy=0;" edge="1" parent="1" source="J-6z406w2P_gFmTKcNu2-176" target="J-6z406w2P_gFmTKcNu2-156">
          <mxGeometry width="50" height="50" relative="1" as="geometry">
            <mxPoint x="-420" y="3690" as="sourcePoint" />
            <mxPoint x="-370" y="3640" as="targetPoint" />
            <Array as="points">
              <mxPoint x="-560" y="3800" />
              <mxPoint x="-750" y="3800" />
              <mxPoint x="-750" y="3590" />
              <mxPoint x="-642" y="3590" />
            </Array>
          </mxGeometry>
        </mxCell>
        <mxCell id="J-6z406w2P_gFmTKcNu2-262" value="" style="endArrow=classic;html=1;rounded=0;entryX=0.25;entryY=1;entryDx=0;entryDy=0;exitX=0.576;exitY=1.015;exitDx=0;exitDy=0;exitPerimeter=0;" edge="1" parent="1" source="J-6z406w2P_gFmTKcNu2-178" target="J-6z406w2P_gFmTKcNu2-84">
          <mxGeometry width="50" height="50" relative="1" as="geometry">
            <mxPoint x="-520" y="3690" as="sourcePoint" />
            <mxPoint x="-470" y="3640" as="targetPoint" />
            <Array as="points">
              <mxPoint x="-472" y="3820" />
              <mxPoint x="-790" y="3820" />
              <mxPoint x="-780" y="2500" />
              <mxPoint x="-669" y="2500" />
            </Array>
          </mxGeometry>
        </mxCell>
        <mxCell id="J-6z406w2P_gFmTKcNu2-263" value="" style="endArrow=classic;html=1;rounded=0;entryX=0.916;entryY=1.061;entryDx=0;entryDy=0;entryPerimeter=0;exitX=0.5;exitY=1;exitDx=0;exitDy=0;" edge="1" parent="1" source="J-6z406w2P_gFmTKcNu2-180" target="J-6z406w2P_gFmTKcNu2-120">
          <mxGeometry width="50" height="50" relative="1" as="geometry">
            <mxPoint x="-330" y="3780" as="sourcePoint" />
            <mxPoint x="-280" y="3730" as="targetPoint" />
            <Array as="points">
              <mxPoint x="-395" y="3820" />
              <mxPoint x="120" y="3820" />
              <mxPoint x="120" y="3040" />
              <mxPoint x="-610" y="3040" />
            </Array>
          </mxGeometry>
        </mxCell>
        <mxCell id="J-6z406w2P_gFmTKcNu2-293" value="&lt;span style=&quot;text-align: left;&quot;&gt;Duration&lt;/span&gt;" style="rounded=0;whiteSpace=wrap;html=1;fillColor=#d5e8d4;strokeColor=#82b366;" vertex="1" parent="1">
          <mxGeometry x="-172.5" y="2530" width="75" height="30" as="geometry" />
        </mxCell>
        <mxCell id="J-6z406w2P_gFmTKcNu2-295" value="" style="endArrow=classic;html=1;rounded=0;entryX=0.5;entryY=1;entryDx=0;entryDy=0;exitX=0.5;exitY=1;exitDx=0;exitDy=0;" edge="1" parent="1" source="J-6z406w2P_gFmTKcNu2-230" target="J-6z406w2P_gFmTKcNu2-222">
          <mxGeometry width="50" height="50" relative="1" as="geometry">
            <mxPoint x="-460" y="1970" as="sourcePoint" />
            <mxPoint x="-410" y="1920" as="targetPoint" />
            <Array as="points">
              <mxPoint x="-375" y="2070" />
              <mxPoint x="-720" y="2070" />
              <mxPoint x="-720" y="1960" />
              <mxPoint x="-650" y="1960" />
            </Array>
          </mxGeometry>
        </mxCell>
        <mxCell id="J-6z406w2P_gFmTKcNu2-296" value="" style="endArrow=classic;html=1;rounded=0;entryX=0.75;entryY=1;entryDx=0;entryDy=0;exitX=0.5;exitY=1;exitDx=0;exitDy=0;" edge="1" parent="1" source="J-6z406w2P_gFmTKcNu2-87" target="J-6z406w2P_gFmTKcNu2-70">
          <mxGeometry width="50" height="50" relative="1" as="geometry">
            <mxPoint x="-400" y="2310" as="sourcePoint" />
            <mxPoint x="-350" y="2260" as="targetPoint" />
            <Array as="points">
              <mxPoint x="-477" y="2480" />
              <mxPoint x="-210" y="2480" />
              <mxPoint x="-210" y="1890" />
              <mxPoint x="-630" y="1890" />
            </Array>
          </mxGeometry>
        </mxCell>
      </root>
    </mxGraphModel>
  </diagram>
</mxfile>
